0
SECTION
2
HEADER
9
$INSUNITS
70
4
0
ENDSEC
0
SECTION
2
TABLES
0
TABLE
2
LTYPE
0
LTYPE
72
65
70
64
2
CONTINUOUS
3
______
73
0
40
0
0
ENDTAB
0
TABLE
2
LAYER
0
ENDTAB
0
ENDSEC
0
SECTION
2
ENTITIES
0
LINE
8
0
10
-10
20
-10
11
29
21
-10
0
LINE
8
0
10
-10
20
-10
11
-10
21
86
0
LINE
8
0
10
-10
20
86
11
28
21
86
0
LINE
8
0
10
29
20
-5
11
29
21
-10
0
LINE
8
0
10
48
20
-3
11
48
21
-5
0
LINE
8
0
10
29
20
-5
11
48
21
-5
0
LINE
8
0
10
28
20
91
11
47
21
91
0
LINE
8
0
10
28
20
86
11
28
21
91
0
LINE
8
0
10
48
20
-3
11
69.9903812
21
-3
0
LINE
8
0
10
47
20
93
11
67
21
93
0
LINE
8
0
10
67
20
93
11
67
21
91
0
LINE
8
0
10
47
20
91
11
47
21
93
0
LINE
8
0
10
67
20
91
11
86
21
91
0
LINE
8
0
10
86
20
91
11
86
21
89
0
LINE
8
0
10
86
20
89
11
124
21
89
0
LINE
8
0
10
124
20
9.6961524
11
124
21
89
0
LINE
8
0
10
69.9903812
20
-3
11
127.0692193
21
-35.9544827
0
LINE
8
0
10
127.0692193
20
-35.9544827
11
146.0692193
21
-3.0455173
0
LINE
8
0
10
124
20
9.6961524
11
146.0692193
21
-3.0455173
0
LINE
8
0
10
-9
20
-9
11
9
21
-9
0
LINE
8
0
10
9
20
-9
11
9
21
9
0
LINE
8
0
10
9
20
9
11
-9
21
9
0
LINE
8
0
10
-9
20
9
11
-9
21
-9
0
LINE
8
0
10
-9
20
10
11
9
21
10
0
LINE
8
0
10
9
20
10
11
9
21
28
0
LINE
8
0
10
9
20
28
11
-9
21
28
0
LINE
8
0
10
-9
20
28
11
-9
21
10
0
LINE
8
0
10
-9
20
29
11
9
21
29
0
LINE
8
0
10
9
20
29
11
9
21
47
0
LINE
8
0
10
9
20
47
11
-9
21
47
0
LINE
8
0
10
-9
20
47
11
-9
21
29
0
LINE
8
0
10
-9
20
48
11
9
21
48
0
LINE
8
0
10
9
20
48
11
9
21
66
0
LINE
8
0
10
9
20
66
11
-9
21
66
0
LINE
8
0
10
-9
20
66
11
-9
21
48
0
LINE
8
0
10
-9
20
67
11
9
21
67
0
LINE
8
0
10
9
20
67
11
9
21
85
0
LINE
8
0
10
9
20
85
11
-9
21
85
0
LINE
8
0
10
-9
20
85
11
-9
21
67
0
LINE
8
0
10
10
20
-9
11
28
21
-9
0
LINE
8
0
10
28
20
-9
11
28
21
9
0
LINE
8
0
10
28
20
9
11
10
21
9
0
LINE
8
0
10
10
20
9
11
10
21
-9
0
LINE
8
0
10
10
20
10
11
28
21
10
0
LINE
8
0
10
28
20
10
11
28
21
28
0
LINE
8
0
10
28
20
28
11
10
21
28
0
LINE
8
0
10
10
20
28
11
10
21
10
0
LINE
8
0
10
10
20
29
11
28
21
29
0
LINE
8
0
10
28
20
29
11
28
21
47
0
LINE
8
0
10
28
20
47
11
10
21
47
0
LINE
8
0
10
10
20
47
11
10
21
29
0
LINE
8
0
10
10
20
48
11
28
21
48
0
LINE
8
0
10
28
20
48
11
28
21
66
0
LINE
8
0
10
28
20
66
11
10
21
66
0
LINE
8
0
10
10
20
66
11
10
21
48
0
LINE
8
0
10
10
20
67
11
28
21
67
0
LINE
8
0
10
28
20
67
11
28
21
85
0
LINE
8
0
10
28
20
85
11
10
21
85
0
LINE
8
0
10
10
20
85
11
10
21
67
0
LINE
8
0
10
29
20
-4
11
47
21
-4
0
LINE
8
0
10
47
20
-4
11
47
21
14
0
LINE
8
0
10
47
20
14
11
29
21
14
0
LINE
8
0
10
29
20
14
11
29
21
-4
0
LINE
8
0
10
29
20
15
11
47
21
15
0
LINE
8
0
10
47
20
15
11
47
21
33
0
LINE
8
0
10
47
20
33
11
29
21
33
0
LINE
8
0
10
29
20
33
11
29
21
15
0
LINE
8
0
10
29
20
34
11
47
21
34
0
LINE
8
0
10
47
20
34
11
47
21
52
0
LINE
8
0
10
47
20
52
11
29
21
52
0
LINE
8
0
10
29
20
52
11
29
21
34
0
LINE
8
0
10
29
20
53
11
47
21
53
0
LINE
8
0
10
47
20
53
11
47
21
71
0
LINE
8
0
10
47
20
71
11
29
21
71
0
LINE
8
0
10
29
20
71
11
29
21
53
0
LINE
8
0
10
29
20
72
11
47
21
72
0
LINE
8
0
10
47
20
72
11
47
21
90
0
LINE
8
0
10
47
20
90
11
29
21
90
0
LINE
8
0
10
29
20
90
11
29
21
72
0
LINE
8
0
10
48
20
-2
11
66
21
-2
0
LINE
8
0
10
66
20
-2
11
66
21
16
0
LINE
8
0
10
66
20
16
11
48
21
16
0
LINE
8
0
10
48
20
16
11
48
21
-2
0
LINE
8
0
10
48
20
17
11
66
21
17
0
LINE
8
0
10
66
20
17
11
66
21
35
0
LINE
8
0
10
66
20
35
11
48
21
35
0
LINE
8
0
10
48
20
35
11
48
21
17
0
LINE
8
0
10
48
20
36
11
66
21
36
0
LINE
8
0
10
66
20
36
11
66
21
54
0
LINE
8
0
10
66
20
54
11
48
21
54
0
LINE
8
0
10
48
20
54
11
48
21
36
0
LINE
8
0
10
48
20
55
11
66
21
55
0
LINE
8
0
10
66
20
55
11
66
21
73
0
LINE
8
0
10
66
20
73
11
48
21
73
0
LINE
8
0
10
48
20
73
11
48
21
55
0
LINE
8
0
10
48
20
74
11
66
21
74
0
LINE
8
0
10
66
20
74
11
66
21
92
0
LINE
8
0
10
66
20
92
11
48
21
92
0
LINE
8
0
10
48
20
92
11
48
21
74
0
LINE
8
0
10
67
20
15
11
85
21
15
0
LINE
8
0
10
85
20
15
11
85
21
33
0
LINE
8
0
10
85
20
33
11
67
21
33
0
LINE
8
0
10
67
20
33
11
67
21
15
0
LINE
8
0
10
67
20
34
11
85
21
34
0
LINE
8
0
10
85
20
34
11
85
21
52
0
LINE
8
0
10
85
20
52
11
67
21
52
0
LINE
8
0
10
67
20
52
11
67
21
34
0
LINE
8
0
10
67
20
53
11
85
21
53
0
LINE
8
0
10
85
20
53
11
85
21
71
0
LINE
8
0
10
85
20
71
11
67
21
71
0
LINE
8
0
10
67
20
71
11
67
21
53
0
LINE
8
0
10
67
20
72
11
85
21
72
0
LINE
8
0
10
85
20
72
11
85
21
90
0
LINE
8
0
10
85
20
90
11
67
21
90
0
LINE
8
0
10
67
20
90
11
67
21
72
0
LINE
8
0
10
86
20
13
11
104
21
13
0
LINE
8
0
10
104
20
13
11
104
21
31
0
LINE
8
0
10
104
20
31
11
86
21
31
0
LINE
8
0
10
86
20
31
11
86
21
13
0
LINE
8
0
10
86
20
32
11
104
21
32
0
LINE
8
0
10
104
20
32
11
104
21
50
0
LINE
8
0
10
104
20
50
11
86
21
50
0
LINE
8
0
10
86
20
50
11
86
21
32
0
LINE
8
0
10
86
20
51
11
104
21
51
0
LINE
8
0
10
104
20
51
11
104
21
69
0
LINE
8
0
10
104
20
69
11
86
21
69
0
LINE
8
0
10
86
20
69
11
86
21
51
0
LINE
8
0
10
86
20
70
11
104
21
70
0
LINE
8
0
10
104
20
70
11
104
21
88
0
LINE
8
0
10
104
20
88
11
86
21
88
0
LINE
8
0
10
86
20
88
11
86
21
70
0
LINE
8
0
10
105
20
32
11
123
21
32
0
LINE
8
0
10
123
20
32
11
123
21
50
0
LINE
8
0
10
123
20
50
11
105
21
50
0
LINE
8
0
10
105
20
50
11
105
21
32
0
LINE
8
0
10
105
20
51
11
123
21
51
0
LINE
8
0
10
123
20
51
11
123
21
69
0
LINE
8
0
10
123
20
69
11
105
21
69
0
LINE
8
0
10
105
20
69
11
105
21
51
0
LINE
8
0
10
105
20
70
11
123
21
70
0
LINE
8
0
10
123
20
70
11
123
21
88
0
LINE
8
0
10
123
20
88
11
105
21
88
0
LINE
8
0
10
105
20
88
11
105
21
70
0
LINE
8
0
10
78.2057714
20
-6.5884572
11
93.7942286
21
-15.5884572
0
LINE
8
0
10
93.7942286
20
-15.5884572
11
102.7942286
21
0
0
LINE
8
0
10
102.7942286
20
0
11
87.2057714
21
9
0
LINE
8
0
10
87.2057714
20
9
11
78.2057714
21
-6.5884572
0
LINE
8
0
10
99.1602541
20
-8.2942286
11
114.7487113
21
-17.2942286
0
LINE
8
0
10
114.7487113
20
-17.2942286
11
123.7487113
21
-1.7057714
0
LINE
8
0
10
123.7487113
20
-1.7057714
11
108.1602541
21
7.2942286
0
LINE
8
0
10
108.1602541
20
7.2942286
11
99.1602541
21
-8.2942286
0
LINE
8
0
10
115.6147367
20
-17.7942286
11
131.2031939
21
-26.7942286
0
LINE
8
0
10
131.2031939
20
-26.7942286
11
140.2031939
21
-11.2057714
0
LINE
8
0
10
140.2031939
20
-11.2057714
11
124.6147367
21
-2.2057714
0
LINE
8
0
10
124.6147367
20
-2.2057714
11
115.6147367
21
-17.7942286
0
ENDSEC
0
EOF