M48
; DRILL file {KiCad 6.0.11-2627ca5db0~126~ubuntu20.04.1} date gio 30 mar 2023, 17:12:58
; FORMAT={-:-/ absolute / inch / decimal}
; #@! TF.CreationDate,2023-03-30T17:12:58+02:00
; #@! TF.GenerationSoftware,Kicad,Pcbnew,6.0.11-2627ca5db0~126~ubuntu20.04.1
; #@! TF.FileFunction,NonPlated,1,2,NPTH
FMAT,2
INCH
; #@! TA.AperFunction,NonPlated,NPTH,ComponentDrill
T1C0.0591
; #@! TA.AperFunction,NonPlated,NPTH,ComponentDrill
T2C0.1200
; #@! TA.AperFunction,NonPlated,NPTH,ComponentDrill
T3C0.1570
; #@! TA.AperFunction,NonPlated,NPTH,ComponentDrill
T4C0.1575
; #@! TA.AperFunction,NonPlated,NPTH,ComponentDrill
T5C0.2047
; #@! TA.AperFunction,NonPlated,NPTH,ComponentDrill
T6C0.2087
%
G90
G05
T1
X6.187Y-0.7672
X6.187Y-1.0428
X6.3681Y-0.7672
X6.3681Y-1.0428
T2
X1.3785Y-2.8189
X1.3785Y-3.7559
X5.5709Y-5.6226
X6.0394Y-4.8111
X6.2205Y-5.9966
X6.689Y-5.1851
T3
X1.9785Y-2.8189
X1.9785Y-3.7559
X6.0905Y-5.9226
X6.559Y-5.1111
X6.7401Y-6.2966
X7.2086Y-5.4851
T4
X2.9587Y-1.2756
X2.9606Y-0.9331
T5
X1.6516Y-5.1575
X1.6535Y-2.1654
X1.6535Y-3.2874
X1.6535Y-4.4094
X2.4016Y-2.1654
X2.4016Y-2.9134
X2.4016Y-3.6614
X2.4016Y-4.4094
X2.4016Y-5.1575
X3.1496Y-1.9685
X3.1496Y-2.7165
X3.1496Y-3.4646
X3.1496Y-4.2126
X3.1496Y-4.9606
X3.8976Y-1.8898
X3.8976Y-2.6378
X3.8976Y-3.3858
X3.8976Y-4.1339
X3.9016Y-4.8819
X4.6457Y-1.9685
X4.6457Y-2.7165
X4.6457Y-3.4646
X4.6457Y-4.2126
X5.2165Y-5.2756
X5.3937Y-2.0472
X5.3937Y-2.7953
X5.3937Y-3.5433
X5.3937Y-4.2913
X6.0433Y-5.3543
X6.1417Y-2.7953
X6.1417Y-3.5433
X6.1457Y-2.0472
X6.6929Y-5.7283
T6
X1.0276Y-5.252
X1.0315Y-2.0709
X6.7638Y-1.9488
X7.5039Y-5.6732
T0
M30
