M48
; DRILL file {KiCad 6.0.11-2627ca5db0~126~ubuntu20.04.1} date gio 30 mar 2023, 17:12:58
; FORMAT={-:-/ absolute / inch / decimal}
; #@! TF.CreationDate,2023-03-30T17:12:58+02:00
; #@! TF.GenerationSoftware,Kicad,Pcbnew,6.0.11-2627ca5db0~126~ubuntu20.04.1
; #@! TF.FileFunction,Plated,1,2,PTH
FMAT,2
INCH
; #@! TA.AperFunction,Plated,PTH,ComponentDrill
T1C0.0118
; #@! TA.AperFunction,Plated,PTH,ViaDrill
T2C0.0157
; #@! TA.AperFunction,Plated,PTH,ComponentDrill
T3C0.0354
; #@! TA.AperFunction,Plated,PTH,ComponentDrill
T4C0.0394
; #@! TA.AperFunction,Plated,PTH,ComponentDrill
T5C0.0433
; #@! TA.AperFunction,Plated,PTH,ComponentDrill
T6C0.0472
%
G90
G05
T1
X1.4764Y-1.9734
X1.4764Y-2.1033
X1.4764Y-3.0945
X1.4764Y-3.2244
X1.4764Y-4.2116
X1.4764Y-4.3415
X1.4764Y-4.94
X1.4764Y-5.0699
X2.2244Y-1.9754
X2.2244Y-2.1053
X2.2244Y-2.7362
X2.2244Y-2.8661
X2.2244Y-3.4587
X2.2244Y-3.5886
X2.2244Y-4.2116
X2.2244Y-4.3415
X2.2244Y-4.935
X2.2244Y-5.065
X2.9724Y-1.7657
X2.9724Y-1.8957
X2.9724Y-2.5138
X2.9724Y-2.6437
X2.9724Y-3.2667
X2.9724Y-3.3967
X2.9724Y-3.9951
X2.9724Y-4.125
X2.9724Y-4.7579
X2.9724Y-4.8878
X3.7205Y-1.7067
X3.7205Y-1.8366
X3.7205Y-2.4203
X3.7205Y-2.5502
X3.7205Y-3.1683
X3.7205Y-3.2982
X3.7205Y-3.9311
X3.7205Y-4.061
X3.7402Y-4.6644
X3.7402Y-4.7943
X4.4685Y-1.7756
X4.4685Y-1.9055
X4.4685Y-2.499
X4.4685Y-2.6289
X4.4685Y-3.247
X4.4685Y-3.377
X4.4803Y-4.0098
X4.4803Y-4.1398
X5.1378Y-4.9744
X5.1378Y-5.1043
X5.2165Y-2.5778
X5.2165Y-2.7077
X5.2165Y-3.3258
X5.2165Y-3.4557
X5.2165Y-4.0738
X5.2165Y-4.2037
X5.2362Y-1.8642
X5.2362Y-1.9941
X5.9646Y-2.5925
X5.9646Y-2.7224
X5.9646Y-3.3258
X5.9646Y-3.4557
X5.9646Y-4.9793
X5.9646Y-5.1093
X5.9744Y-1.8543
X5.9744Y-1.9843
X6.6142Y-5.3878
X6.6142Y-5.5177
T2
X3.0118Y-1.6732
X3.5236Y-2.4016
X3.5433Y-1.6929
X4.4291Y-1.6535
X4.7894Y-0.9429
X4.7894Y-1.0098
X4.7894Y-1.06
X4.7894Y-1.1142
X4.7894Y-1.1673
X4.8894Y-1.213
X4.8898Y-1.2874
X4.9016Y-1.7126
X4.9882Y-1.2913
X5.0886Y-1.2972
X5.2894Y-1.3031
X5.3898Y-1.2972
X5.4902Y-1.2992
X5.5512Y-1.7913
X5.7283Y-1.6929
X5.878Y-0.7303
X5.8789Y-1.126
X6.126Y-0.9705
T4
X5.7539Y-1.2589
X5.7539Y-1.3589
T5
X4.4402Y-0.7748
X4.4402Y-1.3748
X4.4894Y-0.8614
X4.4894Y-1.4614
X4.5402Y-0.7748
X4.5402Y-1.3748
X4.5894Y-0.8614
X4.5894Y-1.4614
X4.6402Y-0.7748
X4.6402Y-1.3748
X4.6894Y-0.8614
X4.6894Y-1.4614
X4.7402Y-0.7748
X4.7402Y-1.3748
X4.7894Y-0.8614
X4.7894Y-1.4614
X4.8402Y-0.7748
X4.8402Y-1.3748
X4.8894Y-0.8614
X4.8894Y-1.4614
X4.9402Y-0.7748
X4.9402Y-1.3748
X4.9894Y-0.8614
X4.9894Y-1.4614
X5.0402Y-0.7748
X5.0402Y-1.3748
X5.0894Y-0.8614
X5.0894Y-1.4614
X5.1402Y-0.7748
X5.1402Y-1.3748
X5.1894Y-0.8614
X5.1894Y-1.4614
X5.2402Y-0.7748
X5.2402Y-1.3748
X5.2894Y-0.8614
X5.2894Y-1.4614
X5.3402Y-0.7748
X5.3402Y-1.3748
X5.3894Y-0.8614
X5.3894Y-1.4614
X5.4402Y-0.7748
X5.4402Y-1.3748
X5.4894Y-0.8614
X5.4894Y-1.4614
X5.5402Y-0.7748
X5.5402Y-1.3748
X5.5894Y-0.8614
X5.5894Y-1.4614
T6
X1.4783Y-5.3425
X1.4803Y-2.3504
X1.4803Y-3.4724
X1.4803Y-4.5945
X1.5492Y-5.3839
X1.5512Y-2.3917
X1.5512Y-3.5138
X1.5512Y-4.6358
X1.7539Y-5.3839
X1.7559Y-2.3917
X1.7559Y-3.5138
X1.7559Y-4.6358
X1.8248Y-5.3425
X1.8268Y-2.3504
X1.8268Y-3.4724
X1.8268Y-4.5945
X2.2283Y-2.3504
X2.2283Y-3.0984
X2.2283Y-3.8465
X2.2283Y-4.5945
X2.2283Y-5.3425
X2.2992Y-2.3917
X2.2992Y-3.1398
X2.2992Y-3.8878
X2.2992Y-4.6358
X2.2992Y-5.3839
X2.5039Y-2.3917
X2.5039Y-3.1398
X2.5039Y-3.8878
X2.5039Y-4.6358
X2.5039Y-5.3839
X2.5748Y-2.3504
X2.5748Y-3.0984
X2.5748Y-3.8465
X2.5748Y-4.5945
X2.5748Y-5.3425
X2.9764Y-2.1535
X2.9764Y-2.9016
X2.9764Y-3.6496
X2.9764Y-4.3976
X2.9764Y-5.1457
X3.0472Y-2.1949
X3.0472Y-2.9429
X3.0472Y-3.6909
X3.0472Y-4.439
X3.0472Y-5.187
X3.252Y-2.1949
X3.252Y-2.9429
X3.252Y-3.6909
X3.252Y-4.439
X3.252Y-5.187
X3.3228Y-2.1535
X3.3228Y-2.9016
X3.3228Y-3.6496
X3.3228Y-4.3976
X3.3228Y-5.1457
X3.7244Y-2.0748
X3.7244Y-2.8228
X3.7244Y-3.5709
X3.7244Y-4.3189
X3.7283Y-5.0669
X3.7953Y-2.1161
X3.7953Y-2.8642
X3.7953Y-3.6122
X3.7953Y-4.3602
X3.7992Y-5.1083
X4.0Y-2.1161
X4.0Y-2.8642
X4.0Y-3.6122
X4.0Y-4.3602
X4.0039Y-5.1083
X4.0709Y-2.0748
X4.0709Y-2.8228
X4.0709Y-3.5709
X4.0709Y-4.3189
X4.0748Y-5.0669
X4.4724Y-2.1535
X4.4724Y-2.9016
X4.4724Y-3.6496
X4.4724Y-4.3976
X4.5433Y-2.1949
X4.5433Y-2.9429
X4.5433Y-3.6909
X4.5433Y-4.439
X4.748Y-2.1949
X4.748Y-2.9429
X4.748Y-3.6909
X4.748Y-4.439
X4.8189Y-2.1535
X4.8189Y-2.9016
X4.8189Y-3.6496
X4.8189Y-4.3976
X4.974Y-5.3492
X5.0147Y-5.4205
X5.192Y-5.5228
X5.2205Y-2.2323
X5.2205Y-2.9803
X5.2205Y-3.7283
X5.2205Y-4.4764
X5.274Y-5.5225
X5.2913Y-2.2736
X5.2913Y-3.0217
X5.2913Y-3.7697
X5.2913Y-4.5177
X5.4961Y-2.2736
X5.4961Y-3.0217
X5.4961Y-3.7697
X5.4961Y-4.5177
X5.5669Y-2.2323
X5.5669Y-2.9803
X5.5669Y-3.7283
X5.5669Y-4.4764
X5.8008Y-5.428
X5.8415Y-5.4992
X5.9685Y-2.9803
X5.9685Y-3.7283
X5.9724Y-2.2323
X6.0188Y-5.6016
X6.0394Y-3.0217
X6.0394Y-3.7697
X6.0433Y-2.2736
X6.1008Y-5.6012
X6.2441Y-3.0217
X6.2441Y-3.7697
X6.248Y-2.2736
X6.315Y-2.9803
X6.315Y-3.7283
X6.3189Y-2.2323
X6.4504Y-5.802
X6.4911Y-5.8732
X6.6684Y-5.9756
X6.7504Y-5.9752
T3
G00X6.0965Y-1.1373
M15
G01X6.0965Y-1.1609
M16
G05
G00X6.2776Y-0.8184
M15
G01X6.2776Y-0.842
M16
G05
G00X6.2776Y-0.9365
M15
G01X6.2776Y-0.9601
M16
G05
G00X6.2776Y-1.094
M15
G01X6.2776Y-1.1176
M16
G05
G00X6.4587Y-1.1373
M15
G01X6.4587Y-1.1609
M16
G05
T0
M30
