%TF.GenerationSoftware,KiCad,Pcbnew,6.0.11-2627ca5db0~126~ubuntu20.04.1*%
%TF.CreationDate,2023-03-30T17:12:58+02:00*%
%TF.ProjectId,ergodash-low,6572676f-6461-4736-982d-6c6f772e6b69,rev?*%
%TF.SameCoordinates,Original*%
%TF.FileFunction,Soldermask,Bot*%
%TF.FilePolarity,Negative*%
%FSLAX46Y46*%
G04 Gerber Fmt 4.6, Leading zero omitted, Abs format (unit mm)*
G04 Created by KiCad (PCBNEW 6.0.11-2627ca5db0~126~ubuntu20.04.1) date 2023-03-30 17:12:58*
%MOMM*%
%LPD*%
G01*
G04 APERTURE LIST*
G04 Aperture macros list*
%AMRoundRect*
0 Rectangle with rounded corners*
0 $1 Rounding radius*
0 $2 $3 $4 $5 $6 $7 $8 $9 X,Y pos of 4 corners*
0 Add a 4 corners polygon primitive as box body*
4,1,4,$2,$3,$4,$5,$6,$7,$8,$9,$2,$3,0*
0 Add four circle primitives for the rounded corners*
1,1,$1+$1,$2,$3*
1,1,$1+$1,$4,$5*
1,1,$1+$1,$6,$7*
1,1,$1+$1,$8,$9*
0 Add four rect primitives between the rounded corners*
20,1,$1+$1,$2,$3,$4,$5,0*
20,1,$1+$1,$4,$5,$6,$7,0*
20,1,$1+$1,$6,$7,$8,$9,0*
20,1,$1+$1,$8,$9,$2,$3,0*%
%AMFreePoly0*
4,1,22,0.500000,-0.750000,0.000000,-0.750000,0.000000,-0.745033,-0.079941,-0.743568,-0.215256,-0.701293,-0.333266,-0.622738,-0.424486,-0.514219,-0.481581,-0.384460,-0.499164,-0.250000,-0.500000,-0.250000,-0.500000,0.250000,-0.499164,0.250000,-0.499963,0.256109,-0.478152,0.396186,-0.417904,0.524511,-0.324060,0.630769,-0.204165,0.706417,-0.067858,0.745374,0.000000,0.744959,0.000000,0.750000,
0.500000,0.750000,0.500000,-0.750000,0.500000,-0.750000,$1*%
%AMFreePoly1*
4,1,20,0.000000,0.744959,0.073905,0.744508,0.209726,0.703889,0.328688,0.626782,0.421226,0.519385,0.479903,0.390333,0.500000,0.250000,0.500000,-0.250000,0.499851,-0.262216,0.476331,-0.402017,0.414519,-0.529596,0.319384,-0.634700,0.198574,-0.708877,0.061801,-0.746166,0.000000,-0.745033,0.000000,-0.750000,-0.500000,-0.750000,-0.500000,0.750000,0.000000,0.750000,0.000000,0.744959,
0.000000,0.744959,$1*%
G04 Aperture macros list end*
%ADD10C,1.500000*%
%ADD11O,1.600000X2.200000*%
%ADD12C,5.200000*%
%ADD13C,2.400000*%
%ADD14C,3.987800*%
%ADD15C,3.048000*%
%ADD16C,4.000000*%
%ADD17C,5.300000*%
%ADD18R,1.700000X1.700000*%
%ADD19O,1.700000X1.700000*%
%ADD20C,1.700000*%
%ADD21R,1.200000X0.900000*%
%ADD22FreePoly0,0.000000*%
%ADD23FreePoly1,0.000000*%
%ADD24RoundRect,0.237500X0.237500X-0.250000X0.237500X0.250000X-0.237500X0.250000X-0.237500X-0.250000X0*%
%ADD25RoundRect,0.237500X-0.237500X0.250000X-0.237500X-0.250000X0.237500X-0.250000X0.237500X0.250000X0*%
G04 APERTURE END LIST*
D10*
%TO.C,J2*%
X161750000Y-19487500D03*
X161750000Y-26487500D03*
X157150000Y-26487500D03*
X157150000Y-19487500D03*
D11*
X159450000Y-28087500D03*
X159450000Y-24087500D03*
X159450000Y-21087500D03*
X154850000Y-29187500D03*
X164050000Y-29187500D03*
%TD*%
D12*
%TO.C,SW7*%
X61000000Y-93000000D03*
D13*
X63600000Y-98750000D03*
X65400000Y-97700000D03*
X58400000Y-98750000D03*
X56600000Y-97700000D03*
%TD*%
D12*
%TO.C,SW1*%
X42000000Y-55000000D03*
D13*
X44600000Y-60750000D03*
X46400000Y-59700000D03*
X39400000Y-60750000D03*
X37600000Y-59700000D03*
%TD*%
D12*
%TO.C,SW3*%
X42000000Y-112000000D03*
D13*
X46400000Y-116700000D03*
X44600000Y-117750000D03*
X37600000Y-116700000D03*
X39400000Y-117750000D03*
%TD*%
D12*
%TO.C,SW21*%
X118000000Y-69000000D03*
D13*
X122400000Y-73700000D03*
X120600000Y-74750000D03*
X115400000Y-74750000D03*
X113600000Y-73700000D03*
%TD*%
D12*
%TO.C,SW15*%
X99000000Y-48000000D03*
D13*
X103400000Y-52700000D03*
X101600000Y-53750000D03*
X96400000Y-53750000D03*
X94600000Y-52700000D03*
%TD*%
D12*
%TO.C,SW11*%
X80000000Y-69000000D03*
D13*
X84400000Y-73700000D03*
X82600000Y-74750000D03*
X77400000Y-74750000D03*
X75600000Y-73700000D03*
%TD*%
D12*
%TO.C,SW32*%
X156000000Y-90000000D03*
D13*
X160400000Y-94700000D03*
X158600000Y-95750000D03*
X153400000Y-95750000D03*
X151600000Y-94700000D03*
%TD*%
D14*
%TO.C,SW29*%
X166599040Y-129821798D03*
D12*
X153500000Y-136000000D03*
D15*
X141500813Y-142813202D03*
D14*
X154699040Y-150433202D03*
D15*
X153400813Y-122201798D03*
D13*
X154960512Y-142270319D03*
X152876666Y-142279646D03*
X148373334Y-139679646D03*
X147339488Y-137870319D03*
%TD*%
D12*
%TO.C,SW25*%
X137000000Y-52000000D03*
D13*
X139600000Y-57750000D03*
X141400000Y-56700000D03*
X132600000Y-56700000D03*
X134400000Y-57750000D03*
%TD*%
D12*
%TO.C,SW14*%
X80000000Y-126000000D03*
D13*
X84400000Y-130700000D03*
X82600000Y-131750000D03*
X75600000Y-130700000D03*
X77400000Y-131750000D03*
%TD*%
D12*
%TO.C,SW24*%
X132500000Y-134000000D03*
D13*
X131876666Y-140279646D03*
X133960512Y-140270319D03*
X127373334Y-137679646D03*
X126339488Y-135870319D03*
%TD*%
D16*
%TO.C,H6*%
X75150000Y-32400000D03*
%TD*%
D12*
%TO.C,SW8*%
X61000000Y-112000000D03*
D13*
X63600000Y-117750000D03*
X65400000Y-116700000D03*
X58400000Y-117750000D03*
X56600000Y-116700000D03*
%TD*%
D14*
%TO.C,SW33*%
X183099040Y-139321798D03*
D12*
X170000000Y-145500000D03*
D14*
X171199040Y-159933202D03*
D15*
X158000813Y-152313202D03*
X169900813Y-131701798D03*
D13*
X169376666Y-151779646D03*
X171460512Y-151770319D03*
X164873334Y-149179646D03*
X163839488Y-147370319D03*
%TD*%
D12*
%TO.C,SW16*%
X99000000Y-67000000D03*
D13*
X103400000Y-71700000D03*
X101600000Y-72750000D03*
X94600000Y-71700000D03*
X96400000Y-72750000D03*
%TD*%
D12*
%TO.C,SW31*%
X156000000Y-71000000D03*
D13*
X158600000Y-76750000D03*
X160400000Y-75700000D03*
X151600000Y-75700000D03*
X153400000Y-76750000D03*
%TD*%
D12*
%TO.C,SW9*%
X61000000Y-131000000D03*
D13*
X65400000Y-135700000D03*
X63600000Y-136750000D03*
X56600000Y-135700000D03*
X58400000Y-136750000D03*
%TD*%
D17*
%TO.C,H3*%
X26100000Y-133400000D03*
%TD*%
%TO.C,H1*%
X26200000Y-52600000D03*
%TD*%
D12*
%TO.C,SW6*%
X61000000Y-74000000D03*
D13*
X65400000Y-78700000D03*
X63600000Y-79750000D03*
X56600000Y-78700000D03*
X58400000Y-79750000D03*
%TD*%
D12*
%TO.C,SW27*%
X137000000Y-90000000D03*
D13*
X141400000Y-94700000D03*
X139600000Y-95750000D03*
X134400000Y-95750000D03*
X132600000Y-94700000D03*
%TD*%
D12*
%TO.C,SW5*%
X61000000Y-55000000D03*
D13*
X65400000Y-59700000D03*
X63600000Y-60750000D03*
X58400000Y-60750000D03*
X56600000Y-59700000D03*
%TD*%
D12*
%TO.C,SW28*%
X137000000Y-109000000D03*
D13*
X139600000Y-114750000D03*
X141400000Y-113700000D03*
X132600000Y-113700000D03*
X134400000Y-114750000D03*
%TD*%
D18*
%TO.C,J1*%
X146150000Y-31975000D03*
D19*
X146150000Y-34515000D03*
%TD*%
D17*
%TO.C,H2*%
X171800000Y-49500000D03*
%TD*%
D12*
%TO.C,SW4*%
X41950000Y-131000000D03*
D13*
X44550000Y-136750000D03*
X46350000Y-135700000D03*
X39350000Y-136750000D03*
X37550000Y-135700000D03*
%TD*%
D12*
%TO.C,SW19*%
X99100000Y-124000000D03*
D13*
X101700000Y-129750000D03*
X103500000Y-128700000D03*
X96500000Y-129750000D03*
X94700000Y-128700000D03*
%TD*%
D18*
%TO.C,U1*%
X114030000Y-37120000D03*
D20*
X116570000Y-37120000D03*
X119110000Y-37120000D03*
X121650000Y-37120000D03*
X124190000Y-37120000D03*
X126730000Y-37120000D03*
X129270000Y-37120000D03*
X131810000Y-37120000D03*
X134350000Y-37120000D03*
X136890000Y-37120000D03*
X139430000Y-37120000D03*
X141970000Y-37120000D03*
X141970000Y-21880000D03*
X139430000Y-21880000D03*
X136890000Y-21880000D03*
X134350000Y-21880000D03*
X131810000Y-21880000D03*
X129270000Y-21880000D03*
X126730000Y-21880000D03*
X124190000Y-21880000D03*
X121650000Y-21880000D03*
X119110000Y-21880000D03*
X116570000Y-21880000D03*
X114030000Y-21880000D03*
%TD*%
D12*
%TO.C,SW26*%
X137000000Y-71000000D03*
D13*
X141400000Y-75700000D03*
X139600000Y-76750000D03*
X132600000Y-75700000D03*
X134400000Y-76750000D03*
%TD*%
D12*
%TO.C,SW17*%
X99000000Y-86000000D03*
D13*
X101600000Y-91750000D03*
X103400000Y-90700000D03*
X94600000Y-90700000D03*
X96400000Y-91750000D03*
%TD*%
D12*
%TO.C,SW12*%
X80000000Y-88000000D03*
D13*
X84400000Y-92700000D03*
X82600000Y-93750000D03*
X75600000Y-92700000D03*
X77400000Y-93750000D03*
%TD*%
D12*
%TO.C,SW22*%
X118000000Y-88000000D03*
D13*
X120600000Y-93750000D03*
X122400000Y-92700000D03*
X113600000Y-92700000D03*
X115400000Y-93750000D03*
%TD*%
D17*
%TO.C,H4*%
X190600000Y-144100000D03*
%TD*%
D12*
%TO.C,SW23*%
X118000000Y-107000000D03*
D13*
X120600000Y-112750000D03*
X122400000Y-111700000D03*
X115400000Y-112750000D03*
X113600000Y-111700000D03*
%TD*%
D12*
%TO.C,SW10*%
X80000000Y-50000000D03*
D13*
X84400000Y-54700000D03*
X82600000Y-55750000D03*
X75600000Y-54700000D03*
X77400000Y-55750000D03*
%TD*%
D12*
%TO.C,SW13*%
X80000000Y-107000000D03*
D13*
X82600000Y-112750000D03*
X84400000Y-111700000D03*
X75600000Y-111700000D03*
X77400000Y-112750000D03*
%TD*%
D12*
%TO.C,SW20*%
X118000000Y-50000000D03*
D13*
X122400000Y-54700000D03*
X120600000Y-55750000D03*
X113600000Y-54700000D03*
X115400000Y-55750000D03*
%TD*%
D12*
%TO.C,SW30*%
X156100000Y-52000000D03*
D13*
X158700000Y-57750000D03*
X160500000Y-56700000D03*
X151700000Y-56700000D03*
X153500000Y-57750000D03*
%TD*%
D16*
%TO.C,H5*%
X75200000Y-23700000D03*
%TD*%
D12*
%TO.C,SW2*%
X42000000Y-83500000D03*
D15*
X35015000Y-71600000D03*
X35015000Y-95400000D03*
D14*
X50255000Y-95400000D03*
X50255000Y-71600000D03*
D13*
X46400000Y-88200000D03*
X44600000Y-89250000D03*
X39400000Y-89250000D03*
X37600000Y-88200000D03*
%TD*%
D12*
%TO.C,SW18*%
X99000000Y-105000000D03*
D13*
X103400000Y-109700000D03*
X101600000Y-110750000D03*
X94600000Y-109700000D03*
X96400000Y-110750000D03*
%TD*%
D21*
%TO.C,D12*%
X75500000Y-82975000D03*
X75500000Y-86275000D03*
%TD*%
%TO.C,D9*%
X56500000Y-125350000D03*
X56500000Y-128650000D03*
%TD*%
%TO.C,D2*%
X37500000Y-78600000D03*
X37500000Y-81900000D03*
%TD*%
%TO.C,D23*%
X113800000Y-101850000D03*
X113800000Y-105150000D03*
%TD*%
%TO.C,D13*%
X75500000Y-101475000D03*
X75500000Y-104775000D03*
%TD*%
%TO.C,D25*%
X133000000Y-47350000D03*
X133000000Y-50650000D03*
%TD*%
%TO.C,D32*%
X151500000Y-84475000D03*
X151500000Y-87775000D03*
%TD*%
D22*
%TO.C,JP1*%
X145750000Y-22300000D03*
D23*
X147050000Y-22300000D03*
%TD*%
D24*
%TO.C,R2*%
X149325000Y-26887500D03*
X149325000Y-25062500D03*
%TD*%
D21*
%TO.C,D16*%
X94500000Y-61475000D03*
X94500000Y-64775000D03*
%TD*%
D18*
%TO.C,U2*%
X112780000Y-19680000D03*
D20*
X115320000Y-19680000D03*
X117860000Y-19680000D03*
X120400000Y-19680000D03*
X122940000Y-19680000D03*
X125480000Y-19680000D03*
X128020000Y-19680000D03*
X130560000Y-19680000D03*
X133100000Y-19680000D03*
X135640000Y-19680000D03*
X138180000Y-19680000D03*
X140720000Y-19680000D03*
X140720000Y-34920000D03*
X138180000Y-34920000D03*
X135640000Y-34920000D03*
X133100000Y-34920000D03*
X130560000Y-34920000D03*
X128020000Y-34920000D03*
X125480000Y-34920000D03*
X122940000Y-34920000D03*
X120400000Y-34920000D03*
X117860000Y-34920000D03*
X115320000Y-34920000D03*
X112780000Y-34920000D03*
%TD*%
D21*
%TO.C,D17*%
X94500000Y-80475000D03*
X94500000Y-83775000D03*
%TD*%
%TO.C,D24*%
X130500000Y-126350000D03*
X130500000Y-129650000D03*
%TD*%
%TO.C,D27*%
X132500000Y-84475000D03*
X132500000Y-87775000D03*
%TD*%
%TO.C,D15*%
X94500000Y-43350000D03*
X94500000Y-46650000D03*
%TD*%
D22*
%TO.C,JP2*%
X145750000Y-25050000D03*
D23*
X147050000Y-25050000D03*
%TD*%
D21*
%TO.C,D19*%
X95000000Y-118475000D03*
X95000000Y-121775000D03*
%TD*%
%TO.C,D22*%
X113500000Y-82475000D03*
X113500000Y-85775000D03*
%TD*%
%TO.C,D30*%
X151750000Y-47100000D03*
X151750000Y-50400000D03*
%TD*%
D25*
%TO.C,R1*%
X149300000Y-20412500D03*
X149300000Y-22237500D03*
%TD*%
D21*
%TO.C,D29*%
X151500000Y-126475000D03*
X151500000Y-129775000D03*
%TD*%
%TO.C,D33*%
X168000000Y-136850000D03*
X168000000Y-140150000D03*
%TD*%
%TO.C,D31*%
X151500000Y-65850000D03*
X151500000Y-69150000D03*
%TD*%
%TO.C,D11*%
X75500000Y-63850000D03*
X75500000Y-67150000D03*
%TD*%
%TO.C,D5*%
X56500000Y-50175000D03*
X56500000Y-53475000D03*
%TD*%
%TO.C,D14*%
X75500000Y-120850000D03*
X75500000Y-124150000D03*
%TD*%
%TO.C,D10*%
X75500000Y-44850000D03*
X75500000Y-48150000D03*
%TD*%
%TO.C,D18*%
X94500000Y-99850000D03*
X94500000Y-103150000D03*
%TD*%
%TO.C,D3*%
X37500000Y-106975000D03*
X37500000Y-110275000D03*
%TD*%
%TO.C,D1*%
X37500000Y-50125000D03*
X37500000Y-53425000D03*
%TD*%
%TO.C,D28*%
X132500000Y-103475000D03*
X132500000Y-106775000D03*
%TD*%
%TO.C,D26*%
X132500000Y-65475000D03*
X132500000Y-68775000D03*
%TD*%
%TO.C,D20*%
X113500000Y-45100000D03*
X113500000Y-48400000D03*
%TD*%
%TO.C,D4*%
X37500000Y-125475000D03*
X37500000Y-128775000D03*
%TD*%
%TO.C,D21*%
X113500000Y-63475000D03*
X113500000Y-66775000D03*
%TD*%
%TO.C,D8*%
X56500000Y-106975000D03*
X56500000Y-110275000D03*
%TD*%
%TO.C,D6*%
X56500000Y-69500000D03*
X56500000Y-72800000D03*
%TD*%
%TO.C,D7*%
X56500000Y-87850000D03*
X56500000Y-91150000D03*
%TD*%
M02*
