%TF.GenerationSoftware,KiCad,Pcbnew,6.0.11-2627ca5db0~126~ubuntu20.04.1*%
%TF.CreationDate,2023-03-30T17:12:58+02:00*%
%TF.ProjectId,ergodash-low,6572676f-6461-4736-982d-6c6f772e6b69,rev?*%
%TF.SameCoordinates,Original*%
%TF.FileFunction,Legend,Bot*%
%TF.FilePolarity,Positive*%
%FSLAX46Y46*%
G04 Gerber Fmt 4.6, Leading zero omitted, Abs format (unit mm)*
G04 Created by KiCad (PCBNEW 6.0.11-2627ca5db0~126~ubuntu20.04.1) date 2023-03-30 17:12:58*
%MOMM*%
%LPD*%
G01*
G04 APERTURE LIST*
%ADD10C,0.150000*%
%ADD11C,0.100000*%
%ADD12C,0.120000*%
G04 APERTURE END LIST*
D10*
%TO.C,J2*%
X163902380Y-20018452D02*
X162902380Y-20018452D01*
X162902380Y-20399404D01*
X162950000Y-20494642D01*
X162997619Y-20542261D01*
X163092857Y-20589880D01*
X163235714Y-20589880D01*
X163330952Y-20542261D01*
X163378571Y-20494642D01*
X163426190Y-20399404D01*
X163426190Y-20018452D01*
X162902380Y-21304166D02*
X163616666Y-21304166D01*
X163759523Y-21256547D01*
X163854761Y-21161309D01*
X163902380Y-21018452D01*
X163902380Y-20923214D01*
X163521428Y-21780357D02*
X163521428Y-22542261D01*
X162902380Y-22923214D02*
X162902380Y-23542261D01*
X163283333Y-23208928D01*
X163283333Y-23351785D01*
X163330952Y-23447023D01*
X163378571Y-23494642D01*
X163473809Y-23542261D01*
X163711904Y-23542261D01*
X163807142Y-23494642D01*
X163854761Y-23447023D01*
X163902380Y-23351785D01*
X163902380Y-23066071D01*
X163854761Y-22970833D01*
X163807142Y-22923214D01*
X162997619Y-23923214D02*
X162950000Y-23970833D01*
X162902380Y-24066071D01*
X162902380Y-24304166D01*
X162950000Y-24399404D01*
X162997619Y-24447023D01*
X163092857Y-24494642D01*
X163188095Y-24494642D01*
X163330952Y-24447023D01*
X163902380Y-23875595D01*
X163902380Y-24494642D01*
X162902380Y-25113690D02*
X162902380Y-25208928D01*
X162950000Y-25304166D01*
X162997619Y-25351785D01*
X163092857Y-25399404D01*
X163283333Y-25447023D01*
X163521428Y-25447023D01*
X163711904Y-25399404D01*
X163807142Y-25351785D01*
X163854761Y-25304166D01*
X163902380Y-25208928D01*
X163902380Y-25113690D01*
X163854761Y-25018452D01*
X163807142Y-24970833D01*
X163711904Y-24923214D01*
X163521428Y-24875595D01*
X163283333Y-24875595D01*
X163092857Y-24923214D01*
X162997619Y-24970833D01*
X162950000Y-25018452D01*
X162902380Y-25113690D01*
X163616666Y-25827976D02*
X163616666Y-26304166D01*
X163902380Y-25732738D02*
X162902380Y-26066071D01*
X163902380Y-26399404D01*
%TO.C,SW7*%
X62333333Y-103404761D02*
X62190476Y-103452380D01*
X61952380Y-103452380D01*
X61857142Y-103404761D01*
X61809523Y-103357142D01*
X61761904Y-103261904D01*
X61761904Y-103166666D01*
X61809523Y-103071428D01*
X61857142Y-103023809D01*
X61952380Y-102976190D01*
X62142857Y-102928571D01*
X62238095Y-102880952D01*
X62285714Y-102833333D01*
X62333333Y-102738095D01*
X62333333Y-102642857D01*
X62285714Y-102547619D01*
X62238095Y-102500000D01*
X62142857Y-102452380D01*
X61904761Y-102452380D01*
X61761904Y-102500000D01*
X61428571Y-102452380D02*
X61190476Y-103452380D01*
X61000000Y-102738095D01*
X60809523Y-103452380D01*
X60571428Y-102452380D01*
X60285714Y-102452380D02*
X59619047Y-102452380D01*
X60047619Y-103452380D01*
%TO.C,SW1*%
X43333333Y-65404761D02*
X43190476Y-65452380D01*
X42952380Y-65452380D01*
X42857142Y-65404761D01*
X42809523Y-65357142D01*
X42761904Y-65261904D01*
X42761904Y-65166666D01*
X42809523Y-65071428D01*
X42857142Y-65023809D01*
X42952380Y-64976190D01*
X43142857Y-64928571D01*
X43238095Y-64880952D01*
X43285714Y-64833333D01*
X43333333Y-64738095D01*
X43333333Y-64642857D01*
X43285714Y-64547619D01*
X43238095Y-64500000D01*
X43142857Y-64452380D01*
X42904761Y-64452380D01*
X42761904Y-64500000D01*
X42428571Y-64452380D02*
X42190476Y-65452380D01*
X42000000Y-64738095D01*
X41809523Y-65452380D01*
X41571428Y-64452380D01*
X40666666Y-65452380D02*
X41238095Y-65452380D01*
X40952380Y-65452380D02*
X40952380Y-64452380D01*
X41047619Y-64595238D01*
X41142857Y-64690476D01*
X41238095Y-64738095D01*
%TO.C,SW3*%
X43333333Y-122404761D02*
X43190476Y-122452380D01*
X42952380Y-122452380D01*
X42857142Y-122404761D01*
X42809523Y-122357142D01*
X42761904Y-122261904D01*
X42761904Y-122166666D01*
X42809523Y-122071428D01*
X42857142Y-122023809D01*
X42952380Y-121976190D01*
X43142857Y-121928571D01*
X43238095Y-121880952D01*
X43285714Y-121833333D01*
X43333333Y-121738095D01*
X43333333Y-121642857D01*
X43285714Y-121547619D01*
X43238095Y-121500000D01*
X43142857Y-121452380D01*
X42904761Y-121452380D01*
X42761904Y-121500000D01*
X42428571Y-121452380D02*
X42190476Y-122452380D01*
X42000000Y-121738095D01*
X41809523Y-122452380D01*
X41571428Y-121452380D01*
X41285714Y-121452380D02*
X40666666Y-121452380D01*
X41000000Y-121833333D01*
X40857142Y-121833333D01*
X40761904Y-121880952D01*
X40714285Y-121928571D01*
X40666666Y-122023809D01*
X40666666Y-122261904D01*
X40714285Y-122357142D01*
X40761904Y-122404761D01*
X40857142Y-122452380D01*
X41142857Y-122452380D01*
X41238095Y-122404761D01*
X41285714Y-122357142D01*
%TO.C,SW21*%
X119809523Y-79404761D02*
X119666666Y-79452380D01*
X119428571Y-79452380D01*
X119333333Y-79404761D01*
X119285714Y-79357142D01*
X119238095Y-79261904D01*
X119238095Y-79166666D01*
X119285714Y-79071428D01*
X119333333Y-79023809D01*
X119428571Y-78976190D01*
X119619047Y-78928571D01*
X119714285Y-78880952D01*
X119761904Y-78833333D01*
X119809523Y-78738095D01*
X119809523Y-78642857D01*
X119761904Y-78547619D01*
X119714285Y-78500000D01*
X119619047Y-78452380D01*
X119380952Y-78452380D01*
X119238095Y-78500000D01*
X118904761Y-78452380D02*
X118666666Y-79452380D01*
X118476190Y-78738095D01*
X118285714Y-79452380D01*
X118047619Y-78452380D01*
X117714285Y-78547619D02*
X117666666Y-78500000D01*
X117571428Y-78452380D01*
X117333333Y-78452380D01*
X117238095Y-78500000D01*
X117190476Y-78547619D01*
X117142857Y-78642857D01*
X117142857Y-78738095D01*
X117190476Y-78880952D01*
X117761904Y-79452380D01*
X117142857Y-79452380D01*
X116190476Y-79452380D02*
X116761904Y-79452380D01*
X116476190Y-79452380D02*
X116476190Y-78452380D01*
X116571428Y-78595238D01*
X116666666Y-78690476D01*
X116761904Y-78738095D01*
%TO.C,SW15*%
X100809523Y-58404761D02*
X100666666Y-58452380D01*
X100428571Y-58452380D01*
X100333333Y-58404761D01*
X100285714Y-58357142D01*
X100238095Y-58261904D01*
X100238095Y-58166666D01*
X100285714Y-58071428D01*
X100333333Y-58023809D01*
X100428571Y-57976190D01*
X100619047Y-57928571D01*
X100714285Y-57880952D01*
X100761904Y-57833333D01*
X100809523Y-57738095D01*
X100809523Y-57642857D01*
X100761904Y-57547619D01*
X100714285Y-57500000D01*
X100619047Y-57452380D01*
X100380952Y-57452380D01*
X100238095Y-57500000D01*
X99904761Y-57452380D02*
X99666666Y-58452380D01*
X99476190Y-57738095D01*
X99285714Y-58452380D01*
X99047619Y-57452380D01*
X98142857Y-58452380D02*
X98714285Y-58452380D01*
X98428571Y-58452380D02*
X98428571Y-57452380D01*
X98523809Y-57595238D01*
X98619047Y-57690476D01*
X98714285Y-57738095D01*
X97238095Y-57452380D02*
X97714285Y-57452380D01*
X97761904Y-57928571D01*
X97714285Y-57880952D01*
X97619047Y-57833333D01*
X97380952Y-57833333D01*
X97285714Y-57880952D01*
X97238095Y-57928571D01*
X97190476Y-58023809D01*
X97190476Y-58261904D01*
X97238095Y-58357142D01*
X97285714Y-58404761D01*
X97380952Y-58452380D01*
X97619047Y-58452380D01*
X97714285Y-58404761D01*
X97761904Y-58357142D01*
%TO.C,SW11*%
X81809523Y-79404761D02*
X81666666Y-79452380D01*
X81428571Y-79452380D01*
X81333333Y-79404761D01*
X81285714Y-79357142D01*
X81238095Y-79261904D01*
X81238095Y-79166666D01*
X81285714Y-79071428D01*
X81333333Y-79023809D01*
X81428571Y-78976190D01*
X81619047Y-78928571D01*
X81714285Y-78880952D01*
X81761904Y-78833333D01*
X81809523Y-78738095D01*
X81809523Y-78642857D01*
X81761904Y-78547619D01*
X81714285Y-78500000D01*
X81619047Y-78452380D01*
X81380952Y-78452380D01*
X81238095Y-78500000D01*
X80904761Y-78452380D02*
X80666666Y-79452380D01*
X80476190Y-78738095D01*
X80285714Y-79452380D01*
X80047619Y-78452380D01*
X79142857Y-79452380D02*
X79714285Y-79452380D01*
X79428571Y-79452380D02*
X79428571Y-78452380D01*
X79523809Y-78595238D01*
X79619047Y-78690476D01*
X79714285Y-78738095D01*
X78190476Y-79452380D02*
X78761904Y-79452380D01*
X78476190Y-79452380D02*
X78476190Y-78452380D01*
X78571428Y-78595238D01*
X78666666Y-78690476D01*
X78761904Y-78738095D01*
%TO.C,SW32*%
X157809523Y-100404761D02*
X157666666Y-100452380D01*
X157428571Y-100452380D01*
X157333333Y-100404761D01*
X157285714Y-100357142D01*
X157238095Y-100261904D01*
X157238095Y-100166666D01*
X157285714Y-100071428D01*
X157333333Y-100023809D01*
X157428571Y-99976190D01*
X157619047Y-99928571D01*
X157714285Y-99880952D01*
X157761904Y-99833333D01*
X157809523Y-99738095D01*
X157809523Y-99642857D01*
X157761904Y-99547619D01*
X157714285Y-99500000D01*
X157619047Y-99452380D01*
X157380952Y-99452380D01*
X157238095Y-99500000D01*
X156904761Y-99452380D02*
X156666666Y-100452380D01*
X156476190Y-99738095D01*
X156285714Y-100452380D01*
X156047619Y-99452380D01*
X155761904Y-99452380D02*
X155142857Y-99452380D01*
X155476190Y-99833333D01*
X155333333Y-99833333D01*
X155238095Y-99880952D01*
X155190476Y-99928571D01*
X155142857Y-100023809D01*
X155142857Y-100261904D01*
X155190476Y-100357142D01*
X155238095Y-100404761D01*
X155333333Y-100452380D01*
X155619047Y-100452380D01*
X155714285Y-100404761D01*
X155761904Y-100357142D01*
X154761904Y-99547619D02*
X154714285Y-99500000D01*
X154619047Y-99452380D01*
X154380952Y-99452380D01*
X154285714Y-99500000D01*
X154238095Y-99547619D01*
X154190476Y-99642857D01*
X154190476Y-99738095D01*
X154238095Y-99880952D01*
X154809523Y-100452380D01*
X154190476Y-100452380D01*
%TO.C,SW29*%
X149864712Y-145915549D02*
X149717185Y-145885360D01*
X149510988Y-145766313D01*
X149452319Y-145677454D01*
X149434889Y-145612405D01*
X149441269Y-145506117D01*
X149488888Y-145423639D01*
X149577746Y-145364970D01*
X149642795Y-145347540D01*
X149749083Y-145353920D01*
X149937850Y-145407918D01*
X150044138Y-145414298D01*
X150109187Y-145396868D01*
X150198045Y-145338199D01*
X150245665Y-145255721D01*
X150252044Y-145149432D01*
X150234614Y-145084384D01*
X150175945Y-144995525D01*
X149969749Y-144876478D01*
X149822221Y-144846288D01*
X149557356Y-144638382D02*
X148851159Y-145385360D01*
X149043345Y-144671533D01*
X148521245Y-145194884D01*
X148815048Y-144209811D01*
X148478754Y-144125623D02*
X148461324Y-144060574D01*
X148402655Y-143971716D01*
X148196459Y-143852668D01*
X148090171Y-143846288D01*
X148025122Y-143863718D01*
X147936263Y-143922387D01*
X147888644Y-144004866D01*
X147858455Y-144152393D01*
X148067612Y-144932979D01*
X147531502Y-144623455D01*
X147119108Y-144385360D02*
X146954151Y-144290122D01*
X146895482Y-144201264D01*
X146878052Y-144136215D01*
X146867002Y-143964878D01*
X146921001Y-143776111D01*
X147111477Y-143446197D01*
X147200336Y-143387528D01*
X147265385Y-143370098D01*
X147371673Y-143376478D01*
X147536630Y-143471716D01*
X147595299Y-143560574D01*
X147612729Y-143625623D01*
X147606349Y-143731911D01*
X147487301Y-143938108D01*
X147398443Y-143996777D01*
X147333394Y-144014206D01*
X147227106Y-144007827D01*
X147062149Y-143912589D01*
X147003480Y-143823730D01*
X146986050Y-143758681D01*
X146992430Y-143652393D01*
%TO.C,SW25*%
X138809523Y-62404761D02*
X138666666Y-62452380D01*
X138428571Y-62452380D01*
X138333333Y-62404761D01*
X138285714Y-62357142D01*
X138238095Y-62261904D01*
X138238095Y-62166666D01*
X138285714Y-62071428D01*
X138333333Y-62023809D01*
X138428571Y-61976190D01*
X138619047Y-61928571D01*
X138714285Y-61880952D01*
X138761904Y-61833333D01*
X138809523Y-61738095D01*
X138809523Y-61642857D01*
X138761904Y-61547619D01*
X138714285Y-61500000D01*
X138619047Y-61452380D01*
X138380952Y-61452380D01*
X138238095Y-61500000D01*
X137904761Y-61452380D02*
X137666666Y-62452380D01*
X137476190Y-61738095D01*
X137285714Y-62452380D01*
X137047619Y-61452380D01*
X136714285Y-61547619D02*
X136666666Y-61500000D01*
X136571428Y-61452380D01*
X136333333Y-61452380D01*
X136238095Y-61500000D01*
X136190476Y-61547619D01*
X136142857Y-61642857D01*
X136142857Y-61738095D01*
X136190476Y-61880952D01*
X136761904Y-62452380D01*
X136142857Y-62452380D01*
X135238095Y-61452380D02*
X135714285Y-61452380D01*
X135761904Y-61928571D01*
X135714285Y-61880952D01*
X135619047Y-61833333D01*
X135380952Y-61833333D01*
X135285714Y-61880952D01*
X135238095Y-61928571D01*
X135190476Y-62023809D01*
X135190476Y-62261904D01*
X135238095Y-62357142D01*
X135285714Y-62404761D01*
X135380952Y-62452380D01*
X135619047Y-62452380D01*
X135714285Y-62404761D01*
X135761904Y-62357142D01*
%TO.C,SW14*%
X81809523Y-136404761D02*
X81666666Y-136452380D01*
X81428571Y-136452380D01*
X81333333Y-136404761D01*
X81285714Y-136357142D01*
X81238095Y-136261904D01*
X81238095Y-136166666D01*
X81285714Y-136071428D01*
X81333333Y-136023809D01*
X81428571Y-135976190D01*
X81619047Y-135928571D01*
X81714285Y-135880952D01*
X81761904Y-135833333D01*
X81809523Y-135738095D01*
X81809523Y-135642857D01*
X81761904Y-135547619D01*
X81714285Y-135500000D01*
X81619047Y-135452380D01*
X81380952Y-135452380D01*
X81238095Y-135500000D01*
X80904761Y-135452380D02*
X80666666Y-136452380D01*
X80476190Y-135738095D01*
X80285714Y-136452380D01*
X80047619Y-135452380D01*
X79142857Y-136452380D02*
X79714285Y-136452380D01*
X79428571Y-136452380D02*
X79428571Y-135452380D01*
X79523809Y-135595238D01*
X79619047Y-135690476D01*
X79714285Y-135738095D01*
X78285714Y-135785714D02*
X78285714Y-136452380D01*
X78523809Y-135404761D02*
X78761904Y-136119047D01*
X78142857Y-136119047D01*
%TO.C,SW24*%
X128864712Y-143915549D02*
X128717185Y-143885360D01*
X128510988Y-143766313D01*
X128452319Y-143677454D01*
X128434889Y-143612405D01*
X128441269Y-143506117D01*
X128488888Y-143423639D01*
X128577746Y-143364970D01*
X128642795Y-143347540D01*
X128749083Y-143353920D01*
X128937850Y-143407918D01*
X129044138Y-143414298D01*
X129109187Y-143396868D01*
X129198045Y-143338199D01*
X129245665Y-143255721D01*
X129252044Y-143149432D01*
X129234614Y-143084384D01*
X129175945Y-142995525D01*
X128969749Y-142876478D01*
X128822221Y-142846288D01*
X128557356Y-142638382D02*
X127851159Y-143385360D01*
X128043345Y-142671533D01*
X127521245Y-143194884D01*
X127815048Y-142209811D01*
X127478754Y-142125623D02*
X127461324Y-142060574D01*
X127402655Y-141971716D01*
X127196459Y-141852668D01*
X127090171Y-141846288D01*
X127025122Y-141863718D01*
X126936263Y-141922387D01*
X126888644Y-142004866D01*
X126858455Y-142152393D01*
X127067612Y-142932979D01*
X126531502Y-142623455D01*
X126122527Y-141617534D02*
X125789194Y-142194884D01*
X126519200Y-141406667D02*
X126368254Y-142144304D01*
X125832143Y-141834780D01*
%TO.C,SW8*%
X62333333Y-122404761D02*
X62190476Y-122452380D01*
X61952380Y-122452380D01*
X61857142Y-122404761D01*
X61809523Y-122357142D01*
X61761904Y-122261904D01*
X61761904Y-122166666D01*
X61809523Y-122071428D01*
X61857142Y-122023809D01*
X61952380Y-121976190D01*
X62142857Y-121928571D01*
X62238095Y-121880952D01*
X62285714Y-121833333D01*
X62333333Y-121738095D01*
X62333333Y-121642857D01*
X62285714Y-121547619D01*
X62238095Y-121500000D01*
X62142857Y-121452380D01*
X61904761Y-121452380D01*
X61761904Y-121500000D01*
X61428571Y-121452380D02*
X61190476Y-122452380D01*
X61000000Y-121738095D01*
X60809523Y-122452380D01*
X60571428Y-121452380D01*
X60047619Y-121880952D02*
X60142857Y-121833333D01*
X60190476Y-121785714D01*
X60238095Y-121690476D01*
X60238095Y-121642857D01*
X60190476Y-121547619D01*
X60142857Y-121500000D01*
X60047619Y-121452380D01*
X59857142Y-121452380D01*
X59761904Y-121500000D01*
X59714285Y-121547619D01*
X59666666Y-121642857D01*
X59666666Y-121690476D01*
X59714285Y-121785714D01*
X59761904Y-121833333D01*
X59857142Y-121880952D01*
X60047619Y-121880952D01*
X60142857Y-121928571D01*
X60190476Y-121976190D01*
X60238095Y-122071428D01*
X60238095Y-122261904D01*
X60190476Y-122357142D01*
X60142857Y-122404761D01*
X60047619Y-122452380D01*
X59857142Y-122452380D01*
X59761904Y-122404761D01*
X59714285Y-122357142D01*
X59666666Y-122261904D01*
X59666666Y-122071428D01*
X59714285Y-121976190D01*
X59761904Y-121928571D01*
X59857142Y-121880952D01*
%TO.C,SW33*%
X166364712Y-155415549D02*
X166217185Y-155385360D01*
X166010988Y-155266313D01*
X165952319Y-155177454D01*
X165934889Y-155112405D01*
X165941269Y-155006117D01*
X165988888Y-154923639D01*
X166077746Y-154864970D01*
X166142795Y-154847540D01*
X166249083Y-154853920D01*
X166437850Y-154907918D01*
X166544138Y-154914298D01*
X166609187Y-154896868D01*
X166698045Y-154838199D01*
X166745665Y-154755721D01*
X166752044Y-154649432D01*
X166734614Y-154584384D01*
X166675945Y-154495525D01*
X166469749Y-154376478D01*
X166322221Y-154346288D01*
X166057356Y-154138382D02*
X165351159Y-154885360D01*
X165543345Y-154171533D01*
X165021245Y-154694884D01*
X165315048Y-153709811D01*
X165067612Y-153566954D02*
X164531502Y-153257430D01*
X164629700Y-153754011D01*
X164505983Y-153682583D01*
X164399694Y-153676203D01*
X164334646Y-153693633D01*
X164245787Y-153752302D01*
X164126740Y-153958498D01*
X164120360Y-154064786D01*
X164137790Y-154129835D01*
X164196459Y-154218694D01*
X164443895Y-154361551D01*
X164550183Y-154367930D01*
X164615232Y-154350501D01*
X164242826Y-153090763D02*
X163706715Y-152781240D01*
X163804914Y-153277821D01*
X163681196Y-153206392D01*
X163574908Y-153200012D01*
X163509860Y-153217442D01*
X163421001Y-153276111D01*
X163301954Y-153482308D01*
X163295574Y-153588596D01*
X163313004Y-153653645D01*
X163371673Y-153742503D01*
X163619108Y-153885360D01*
X163725397Y-153891740D01*
X163790445Y-153874310D01*
%TO.C,SW16*%
X100809523Y-77404761D02*
X100666666Y-77452380D01*
X100428571Y-77452380D01*
X100333333Y-77404761D01*
X100285714Y-77357142D01*
X100238095Y-77261904D01*
X100238095Y-77166666D01*
X100285714Y-77071428D01*
X100333333Y-77023809D01*
X100428571Y-76976190D01*
X100619047Y-76928571D01*
X100714285Y-76880952D01*
X100761904Y-76833333D01*
X100809523Y-76738095D01*
X100809523Y-76642857D01*
X100761904Y-76547619D01*
X100714285Y-76500000D01*
X100619047Y-76452380D01*
X100380952Y-76452380D01*
X100238095Y-76500000D01*
X99904761Y-76452380D02*
X99666666Y-77452380D01*
X99476190Y-76738095D01*
X99285714Y-77452380D01*
X99047619Y-76452380D01*
X98142857Y-77452380D02*
X98714285Y-77452380D01*
X98428571Y-77452380D02*
X98428571Y-76452380D01*
X98523809Y-76595238D01*
X98619047Y-76690476D01*
X98714285Y-76738095D01*
X97285714Y-76452380D02*
X97476190Y-76452380D01*
X97571428Y-76500000D01*
X97619047Y-76547619D01*
X97714285Y-76690476D01*
X97761904Y-76880952D01*
X97761904Y-77261904D01*
X97714285Y-77357142D01*
X97666666Y-77404761D01*
X97571428Y-77452380D01*
X97380952Y-77452380D01*
X97285714Y-77404761D01*
X97238095Y-77357142D01*
X97190476Y-77261904D01*
X97190476Y-77023809D01*
X97238095Y-76928571D01*
X97285714Y-76880952D01*
X97380952Y-76833333D01*
X97571428Y-76833333D01*
X97666666Y-76880952D01*
X97714285Y-76928571D01*
X97761904Y-77023809D01*
%TO.C,SW31*%
X157809523Y-81404761D02*
X157666666Y-81452380D01*
X157428571Y-81452380D01*
X157333333Y-81404761D01*
X157285714Y-81357142D01*
X157238095Y-81261904D01*
X157238095Y-81166666D01*
X157285714Y-81071428D01*
X157333333Y-81023809D01*
X157428571Y-80976190D01*
X157619047Y-80928571D01*
X157714285Y-80880952D01*
X157761904Y-80833333D01*
X157809523Y-80738095D01*
X157809523Y-80642857D01*
X157761904Y-80547619D01*
X157714285Y-80500000D01*
X157619047Y-80452380D01*
X157380952Y-80452380D01*
X157238095Y-80500000D01*
X156904761Y-80452380D02*
X156666666Y-81452380D01*
X156476190Y-80738095D01*
X156285714Y-81452380D01*
X156047619Y-80452380D01*
X155761904Y-80452380D02*
X155142857Y-80452380D01*
X155476190Y-80833333D01*
X155333333Y-80833333D01*
X155238095Y-80880952D01*
X155190476Y-80928571D01*
X155142857Y-81023809D01*
X155142857Y-81261904D01*
X155190476Y-81357142D01*
X155238095Y-81404761D01*
X155333333Y-81452380D01*
X155619047Y-81452380D01*
X155714285Y-81404761D01*
X155761904Y-81357142D01*
X154190476Y-81452380D02*
X154761904Y-81452380D01*
X154476190Y-81452380D02*
X154476190Y-80452380D01*
X154571428Y-80595238D01*
X154666666Y-80690476D01*
X154761904Y-80738095D01*
%TO.C,SW9*%
X62333333Y-141404761D02*
X62190476Y-141452380D01*
X61952380Y-141452380D01*
X61857142Y-141404761D01*
X61809523Y-141357142D01*
X61761904Y-141261904D01*
X61761904Y-141166666D01*
X61809523Y-141071428D01*
X61857142Y-141023809D01*
X61952380Y-140976190D01*
X62142857Y-140928571D01*
X62238095Y-140880952D01*
X62285714Y-140833333D01*
X62333333Y-140738095D01*
X62333333Y-140642857D01*
X62285714Y-140547619D01*
X62238095Y-140500000D01*
X62142857Y-140452380D01*
X61904761Y-140452380D01*
X61761904Y-140500000D01*
X61428571Y-140452380D02*
X61190476Y-141452380D01*
X61000000Y-140738095D01*
X60809523Y-141452380D01*
X60571428Y-140452380D01*
X60142857Y-141452380D02*
X59952380Y-141452380D01*
X59857142Y-141404761D01*
X59809523Y-141357142D01*
X59714285Y-141214285D01*
X59666666Y-141023809D01*
X59666666Y-140642857D01*
X59714285Y-140547619D01*
X59761904Y-140500000D01*
X59857142Y-140452380D01*
X60047619Y-140452380D01*
X60142857Y-140500000D01*
X60190476Y-140547619D01*
X60238095Y-140642857D01*
X60238095Y-140880952D01*
X60190476Y-140976190D01*
X60142857Y-141023809D01*
X60047619Y-141071428D01*
X59857142Y-141071428D01*
X59761904Y-141023809D01*
X59714285Y-140976190D01*
X59666666Y-140880952D01*
%TO.C,SW6*%
X62333333Y-84404761D02*
X62190476Y-84452380D01*
X61952380Y-84452380D01*
X61857142Y-84404761D01*
X61809523Y-84357142D01*
X61761904Y-84261904D01*
X61761904Y-84166666D01*
X61809523Y-84071428D01*
X61857142Y-84023809D01*
X61952380Y-83976190D01*
X62142857Y-83928571D01*
X62238095Y-83880952D01*
X62285714Y-83833333D01*
X62333333Y-83738095D01*
X62333333Y-83642857D01*
X62285714Y-83547619D01*
X62238095Y-83500000D01*
X62142857Y-83452380D01*
X61904761Y-83452380D01*
X61761904Y-83500000D01*
X61428571Y-83452380D02*
X61190476Y-84452380D01*
X61000000Y-83738095D01*
X60809523Y-84452380D01*
X60571428Y-83452380D01*
X59761904Y-83452380D02*
X59952380Y-83452380D01*
X60047619Y-83500000D01*
X60095238Y-83547619D01*
X60190476Y-83690476D01*
X60238095Y-83880952D01*
X60238095Y-84261904D01*
X60190476Y-84357142D01*
X60142857Y-84404761D01*
X60047619Y-84452380D01*
X59857142Y-84452380D01*
X59761904Y-84404761D01*
X59714285Y-84357142D01*
X59666666Y-84261904D01*
X59666666Y-84023809D01*
X59714285Y-83928571D01*
X59761904Y-83880952D01*
X59857142Y-83833333D01*
X60047619Y-83833333D01*
X60142857Y-83880952D01*
X60190476Y-83928571D01*
X60238095Y-84023809D01*
%TO.C,SW27*%
X138809523Y-100404761D02*
X138666666Y-100452380D01*
X138428571Y-100452380D01*
X138333333Y-100404761D01*
X138285714Y-100357142D01*
X138238095Y-100261904D01*
X138238095Y-100166666D01*
X138285714Y-100071428D01*
X138333333Y-100023809D01*
X138428571Y-99976190D01*
X138619047Y-99928571D01*
X138714285Y-99880952D01*
X138761904Y-99833333D01*
X138809523Y-99738095D01*
X138809523Y-99642857D01*
X138761904Y-99547619D01*
X138714285Y-99500000D01*
X138619047Y-99452380D01*
X138380952Y-99452380D01*
X138238095Y-99500000D01*
X137904761Y-99452380D02*
X137666666Y-100452380D01*
X137476190Y-99738095D01*
X137285714Y-100452380D01*
X137047619Y-99452380D01*
X136714285Y-99547619D02*
X136666666Y-99500000D01*
X136571428Y-99452380D01*
X136333333Y-99452380D01*
X136238095Y-99500000D01*
X136190476Y-99547619D01*
X136142857Y-99642857D01*
X136142857Y-99738095D01*
X136190476Y-99880952D01*
X136761904Y-100452380D01*
X136142857Y-100452380D01*
X135809523Y-99452380D02*
X135142857Y-99452380D01*
X135571428Y-100452380D01*
%TO.C,SW5*%
X62333333Y-65404761D02*
X62190476Y-65452380D01*
X61952380Y-65452380D01*
X61857142Y-65404761D01*
X61809523Y-65357142D01*
X61761904Y-65261904D01*
X61761904Y-65166666D01*
X61809523Y-65071428D01*
X61857142Y-65023809D01*
X61952380Y-64976190D01*
X62142857Y-64928571D01*
X62238095Y-64880952D01*
X62285714Y-64833333D01*
X62333333Y-64738095D01*
X62333333Y-64642857D01*
X62285714Y-64547619D01*
X62238095Y-64500000D01*
X62142857Y-64452380D01*
X61904761Y-64452380D01*
X61761904Y-64500000D01*
X61428571Y-64452380D02*
X61190476Y-65452380D01*
X61000000Y-64738095D01*
X60809523Y-65452380D01*
X60571428Y-64452380D01*
X59714285Y-64452380D02*
X60190476Y-64452380D01*
X60238095Y-64928571D01*
X60190476Y-64880952D01*
X60095238Y-64833333D01*
X59857142Y-64833333D01*
X59761904Y-64880952D01*
X59714285Y-64928571D01*
X59666666Y-65023809D01*
X59666666Y-65261904D01*
X59714285Y-65357142D01*
X59761904Y-65404761D01*
X59857142Y-65452380D01*
X60095238Y-65452380D01*
X60190476Y-65404761D01*
X60238095Y-65357142D01*
%TO.C,SW28*%
X138809523Y-119404761D02*
X138666666Y-119452380D01*
X138428571Y-119452380D01*
X138333333Y-119404761D01*
X138285714Y-119357142D01*
X138238095Y-119261904D01*
X138238095Y-119166666D01*
X138285714Y-119071428D01*
X138333333Y-119023809D01*
X138428571Y-118976190D01*
X138619047Y-118928571D01*
X138714285Y-118880952D01*
X138761904Y-118833333D01*
X138809523Y-118738095D01*
X138809523Y-118642857D01*
X138761904Y-118547619D01*
X138714285Y-118500000D01*
X138619047Y-118452380D01*
X138380952Y-118452380D01*
X138238095Y-118500000D01*
X137904761Y-118452380D02*
X137666666Y-119452380D01*
X137476190Y-118738095D01*
X137285714Y-119452380D01*
X137047619Y-118452380D01*
X136714285Y-118547619D02*
X136666666Y-118500000D01*
X136571428Y-118452380D01*
X136333333Y-118452380D01*
X136238095Y-118500000D01*
X136190476Y-118547619D01*
X136142857Y-118642857D01*
X136142857Y-118738095D01*
X136190476Y-118880952D01*
X136761904Y-119452380D01*
X136142857Y-119452380D01*
X135571428Y-118880952D02*
X135666666Y-118833333D01*
X135714285Y-118785714D01*
X135761904Y-118690476D01*
X135761904Y-118642857D01*
X135714285Y-118547619D01*
X135666666Y-118500000D01*
X135571428Y-118452380D01*
X135380952Y-118452380D01*
X135285714Y-118500000D01*
X135238095Y-118547619D01*
X135190476Y-118642857D01*
X135190476Y-118690476D01*
X135238095Y-118785714D01*
X135285714Y-118833333D01*
X135380952Y-118880952D01*
X135571428Y-118880952D01*
X135666666Y-118928571D01*
X135714285Y-118976190D01*
X135761904Y-119071428D01*
X135761904Y-119261904D01*
X135714285Y-119357142D01*
X135666666Y-119404761D01*
X135571428Y-119452380D01*
X135380952Y-119452380D01*
X135285714Y-119404761D01*
X135238095Y-119357142D01*
X135190476Y-119261904D01*
X135190476Y-119071428D01*
X135238095Y-118976190D01*
X135285714Y-118928571D01*
X135380952Y-118880952D01*
%TO.C,SW4*%
X43283333Y-141404761D02*
X43140476Y-141452380D01*
X42902380Y-141452380D01*
X42807142Y-141404761D01*
X42759523Y-141357142D01*
X42711904Y-141261904D01*
X42711904Y-141166666D01*
X42759523Y-141071428D01*
X42807142Y-141023809D01*
X42902380Y-140976190D01*
X43092857Y-140928571D01*
X43188095Y-140880952D01*
X43235714Y-140833333D01*
X43283333Y-140738095D01*
X43283333Y-140642857D01*
X43235714Y-140547619D01*
X43188095Y-140500000D01*
X43092857Y-140452380D01*
X42854761Y-140452380D01*
X42711904Y-140500000D01*
X42378571Y-140452380D02*
X42140476Y-141452380D01*
X41950000Y-140738095D01*
X41759523Y-141452380D01*
X41521428Y-140452380D01*
X40711904Y-140785714D02*
X40711904Y-141452380D01*
X40950000Y-140404761D02*
X41188095Y-141119047D01*
X40569047Y-141119047D01*
%TO.C,SW19*%
X100909523Y-134404761D02*
X100766666Y-134452380D01*
X100528571Y-134452380D01*
X100433333Y-134404761D01*
X100385714Y-134357142D01*
X100338095Y-134261904D01*
X100338095Y-134166666D01*
X100385714Y-134071428D01*
X100433333Y-134023809D01*
X100528571Y-133976190D01*
X100719047Y-133928571D01*
X100814285Y-133880952D01*
X100861904Y-133833333D01*
X100909523Y-133738095D01*
X100909523Y-133642857D01*
X100861904Y-133547619D01*
X100814285Y-133500000D01*
X100719047Y-133452380D01*
X100480952Y-133452380D01*
X100338095Y-133500000D01*
X100004761Y-133452380D02*
X99766666Y-134452380D01*
X99576190Y-133738095D01*
X99385714Y-134452380D01*
X99147619Y-133452380D01*
X98242857Y-134452380D02*
X98814285Y-134452380D01*
X98528571Y-134452380D02*
X98528571Y-133452380D01*
X98623809Y-133595238D01*
X98719047Y-133690476D01*
X98814285Y-133738095D01*
X97766666Y-134452380D02*
X97576190Y-134452380D01*
X97480952Y-134404761D01*
X97433333Y-134357142D01*
X97338095Y-134214285D01*
X97290476Y-134023809D01*
X97290476Y-133642857D01*
X97338095Y-133547619D01*
X97385714Y-133500000D01*
X97480952Y-133452380D01*
X97671428Y-133452380D01*
X97766666Y-133500000D01*
X97814285Y-133547619D01*
X97861904Y-133642857D01*
X97861904Y-133880952D01*
X97814285Y-133976190D01*
X97766666Y-134023809D01*
X97671428Y-134071428D01*
X97480952Y-134071428D01*
X97385714Y-134023809D01*
X97338095Y-133976190D01*
X97290476Y-133880952D01*
%TO.C,SW26*%
X138809523Y-81404761D02*
X138666666Y-81452380D01*
X138428571Y-81452380D01*
X138333333Y-81404761D01*
X138285714Y-81357142D01*
X138238095Y-81261904D01*
X138238095Y-81166666D01*
X138285714Y-81071428D01*
X138333333Y-81023809D01*
X138428571Y-80976190D01*
X138619047Y-80928571D01*
X138714285Y-80880952D01*
X138761904Y-80833333D01*
X138809523Y-80738095D01*
X138809523Y-80642857D01*
X138761904Y-80547619D01*
X138714285Y-80500000D01*
X138619047Y-80452380D01*
X138380952Y-80452380D01*
X138238095Y-80500000D01*
X137904761Y-80452380D02*
X137666666Y-81452380D01*
X137476190Y-80738095D01*
X137285714Y-81452380D01*
X137047619Y-80452380D01*
X136714285Y-80547619D02*
X136666666Y-80500000D01*
X136571428Y-80452380D01*
X136333333Y-80452380D01*
X136238095Y-80500000D01*
X136190476Y-80547619D01*
X136142857Y-80642857D01*
X136142857Y-80738095D01*
X136190476Y-80880952D01*
X136761904Y-81452380D01*
X136142857Y-81452380D01*
X135285714Y-80452380D02*
X135476190Y-80452380D01*
X135571428Y-80500000D01*
X135619047Y-80547619D01*
X135714285Y-80690476D01*
X135761904Y-80880952D01*
X135761904Y-81261904D01*
X135714285Y-81357142D01*
X135666666Y-81404761D01*
X135571428Y-81452380D01*
X135380952Y-81452380D01*
X135285714Y-81404761D01*
X135238095Y-81357142D01*
X135190476Y-81261904D01*
X135190476Y-81023809D01*
X135238095Y-80928571D01*
X135285714Y-80880952D01*
X135380952Y-80833333D01*
X135571428Y-80833333D01*
X135666666Y-80880952D01*
X135714285Y-80928571D01*
X135761904Y-81023809D01*
%TO.C,SW17*%
X100809523Y-96404761D02*
X100666666Y-96452380D01*
X100428571Y-96452380D01*
X100333333Y-96404761D01*
X100285714Y-96357142D01*
X100238095Y-96261904D01*
X100238095Y-96166666D01*
X100285714Y-96071428D01*
X100333333Y-96023809D01*
X100428571Y-95976190D01*
X100619047Y-95928571D01*
X100714285Y-95880952D01*
X100761904Y-95833333D01*
X100809523Y-95738095D01*
X100809523Y-95642857D01*
X100761904Y-95547619D01*
X100714285Y-95500000D01*
X100619047Y-95452380D01*
X100380952Y-95452380D01*
X100238095Y-95500000D01*
X99904761Y-95452380D02*
X99666666Y-96452380D01*
X99476190Y-95738095D01*
X99285714Y-96452380D01*
X99047619Y-95452380D01*
X98142857Y-96452380D02*
X98714285Y-96452380D01*
X98428571Y-96452380D02*
X98428571Y-95452380D01*
X98523809Y-95595238D01*
X98619047Y-95690476D01*
X98714285Y-95738095D01*
X97809523Y-95452380D02*
X97142857Y-95452380D01*
X97571428Y-96452380D01*
%TO.C,SW12*%
X81809523Y-98404761D02*
X81666666Y-98452380D01*
X81428571Y-98452380D01*
X81333333Y-98404761D01*
X81285714Y-98357142D01*
X81238095Y-98261904D01*
X81238095Y-98166666D01*
X81285714Y-98071428D01*
X81333333Y-98023809D01*
X81428571Y-97976190D01*
X81619047Y-97928571D01*
X81714285Y-97880952D01*
X81761904Y-97833333D01*
X81809523Y-97738095D01*
X81809523Y-97642857D01*
X81761904Y-97547619D01*
X81714285Y-97500000D01*
X81619047Y-97452380D01*
X81380952Y-97452380D01*
X81238095Y-97500000D01*
X80904761Y-97452380D02*
X80666666Y-98452380D01*
X80476190Y-97738095D01*
X80285714Y-98452380D01*
X80047619Y-97452380D01*
X79142857Y-98452380D02*
X79714285Y-98452380D01*
X79428571Y-98452380D02*
X79428571Y-97452380D01*
X79523809Y-97595238D01*
X79619047Y-97690476D01*
X79714285Y-97738095D01*
X78761904Y-97547619D02*
X78714285Y-97500000D01*
X78619047Y-97452380D01*
X78380952Y-97452380D01*
X78285714Y-97500000D01*
X78238095Y-97547619D01*
X78190476Y-97642857D01*
X78190476Y-97738095D01*
X78238095Y-97880952D01*
X78809523Y-98452380D01*
X78190476Y-98452380D01*
%TO.C,SW22*%
X119809523Y-98404761D02*
X119666666Y-98452380D01*
X119428571Y-98452380D01*
X119333333Y-98404761D01*
X119285714Y-98357142D01*
X119238095Y-98261904D01*
X119238095Y-98166666D01*
X119285714Y-98071428D01*
X119333333Y-98023809D01*
X119428571Y-97976190D01*
X119619047Y-97928571D01*
X119714285Y-97880952D01*
X119761904Y-97833333D01*
X119809523Y-97738095D01*
X119809523Y-97642857D01*
X119761904Y-97547619D01*
X119714285Y-97500000D01*
X119619047Y-97452380D01*
X119380952Y-97452380D01*
X119238095Y-97500000D01*
X118904761Y-97452380D02*
X118666666Y-98452380D01*
X118476190Y-97738095D01*
X118285714Y-98452380D01*
X118047619Y-97452380D01*
X117714285Y-97547619D02*
X117666666Y-97500000D01*
X117571428Y-97452380D01*
X117333333Y-97452380D01*
X117238095Y-97500000D01*
X117190476Y-97547619D01*
X117142857Y-97642857D01*
X117142857Y-97738095D01*
X117190476Y-97880952D01*
X117761904Y-98452380D01*
X117142857Y-98452380D01*
X116761904Y-97547619D02*
X116714285Y-97500000D01*
X116619047Y-97452380D01*
X116380952Y-97452380D01*
X116285714Y-97500000D01*
X116238095Y-97547619D01*
X116190476Y-97642857D01*
X116190476Y-97738095D01*
X116238095Y-97880952D01*
X116809523Y-98452380D01*
X116190476Y-98452380D01*
%TO.C,SW23*%
X119809523Y-117404761D02*
X119666666Y-117452380D01*
X119428571Y-117452380D01*
X119333333Y-117404761D01*
X119285714Y-117357142D01*
X119238095Y-117261904D01*
X119238095Y-117166666D01*
X119285714Y-117071428D01*
X119333333Y-117023809D01*
X119428571Y-116976190D01*
X119619047Y-116928571D01*
X119714285Y-116880952D01*
X119761904Y-116833333D01*
X119809523Y-116738095D01*
X119809523Y-116642857D01*
X119761904Y-116547619D01*
X119714285Y-116500000D01*
X119619047Y-116452380D01*
X119380952Y-116452380D01*
X119238095Y-116500000D01*
X118904761Y-116452380D02*
X118666666Y-117452380D01*
X118476190Y-116738095D01*
X118285714Y-117452380D01*
X118047619Y-116452380D01*
X117714285Y-116547619D02*
X117666666Y-116500000D01*
X117571428Y-116452380D01*
X117333333Y-116452380D01*
X117238095Y-116500000D01*
X117190476Y-116547619D01*
X117142857Y-116642857D01*
X117142857Y-116738095D01*
X117190476Y-116880952D01*
X117761904Y-117452380D01*
X117142857Y-117452380D01*
X116809523Y-116452380D02*
X116190476Y-116452380D01*
X116523809Y-116833333D01*
X116380952Y-116833333D01*
X116285714Y-116880952D01*
X116238095Y-116928571D01*
X116190476Y-117023809D01*
X116190476Y-117261904D01*
X116238095Y-117357142D01*
X116285714Y-117404761D01*
X116380952Y-117452380D01*
X116666666Y-117452380D01*
X116761904Y-117404761D01*
X116809523Y-117357142D01*
%TO.C,SW10*%
X81809523Y-60404761D02*
X81666666Y-60452380D01*
X81428571Y-60452380D01*
X81333333Y-60404761D01*
X81285714Y-60357142D01*
X81238095Y-60261904D01*
X81238095Y-60166666D01*
X81285714Y-60071428D01*
X81333333Y-60023809D01*
X81428571Y-59976190D01*
X81619047Y-59928571D01*
X81714285Y-59880952D01*
X81761904Y-59833333D01*
X81809523Y-59738095D01*
X81809523Y-59642857D01*
X81761904Y-59547619D01*
X81714285Y-59500000D01*
X81619047Y-59452380D01*
X81380952Y-59452380D01*
X81238095Y-59500000D01*
X80904761Y-59452380D02*
X80666666Y-60452380D01*
X80476190Y-59738095D01*
X80285714Y-60452380D01*
X80047619Y-59452380D01*
X79142857Y-60452380D02*
X79714285Y-60452380D01*
X79428571Y-60452380D02*
X79428571Y-59452380D01*
X79523809Y-59595238D01*
X79619047Y-59690476D01*
X79714285Y-59738095D01*
X78523809Y-59452380D02*
X78428571Y-59452380D01*
X78333333Y-59500000D01*
X78285714Y-59547619D01*
X78238095Y-59642857D01*
X78190476Y-59833333D01*
X78190476Y-60071428D01*
X78238095Y-60261904D01*
X78285714Y-60357142D01*
X78333333Y-60404761D01*
X78428571Y-60452380D01*
X78523809Y-60452380D01*
X78619047Y-60404761D01*
X78666666Y-60357142D01*
X78714285Y-60261904D01*
X78761904Y-60071428D01*
X78761904Y-59833333D01*
X78714285Y-59642857D01*
X78666666Y-59547619D01*
X78619047Y-59500000D01*
X78523809Y-59452380D01*
%TO.C,SW13*%
X81809523Y-117404761D02*
X81666666Y-117452380D01*
X81428571Y-117452380D01*
X81333333Y-117404761D01*
X81285714Y-117357142D01*
X81238095Y-117261904D01*
X81238095Y-117166666D01*
X81285714Y-117071428D01*
X81333333Y-117023809D01*
X81428571Y-116976190D01*
X81619047Y-116928571D01*
X81714285Y-116880952D01*
X81761904Y-116833333D01*
X81809523Y-116738095D01*
X81809523Y-116642857D01*
X81761904Y-116547619D01*
X81714285Y-116500000D01*
X81619047Y-116452380D01*
X81380952Y-116452380D01*
X81238095Y-116500000D01*
X80904761Y-116452380D02*
X80666666Y-117452380D01*
X80476190Y-116738095D01*
X80285714Y-117452380D01*
X80047619Y-116452380D01*
X79142857Y-117452380D02*
X79714285Y-117452380D01*
X79428571Y-117452380D02*
X79428571Y-116452380D01*
X79523809Y-116595238D01*
X79619047Y-116690476D01*
X79714285Y-116738095D01*
X78809523Y-116452380D02*
X78190476Y-116452380D01*
X78523809Y-116833333D01*
X78380952Y-116833333D01*
X78285714Y-116880952D01*
X78238095Y-116928571D01*
X78190476Y-117023809D01*
X78190476Y-117261904D01*
X78238095Y-117357142D01*
X78285714Y-117404761D01*
X78380952Y-117452380D01*
X78666666Y-117452380D01*
X78761904Y-117404761D01*
X78809523Y-117357142D01*
%TO.C,SW20*%
X119809523Y-60404761D02*
X119666666Y-60452380D01*
X119428571Y-60452380D01*
X119333333Y-60404761D01*
X119285714Y-60357142D01*
X119238095Y-60261904D01*
X119238095Y-60166666D01*
X119285714Y-60071428D01*
X119333333Y-60023809D01*
X119428571Y-59976190D01*
X119619047Y-59928571D01*
X119714285Y-59880952D01*
X119761904Y-59833333D01*
X119809523Y-59738095D01*
X119809523Y-59642857D01*
X119761904Y-59547619D01*
X119714285Y-59500000D01*
X119619047Y-59452380D01*
X119380952Y-59452380D01*
X119238095Y-59500000D01*
X118904761Y-59452380D02*
X118666666Y-60452380D01*
X118476190Y-59738095D01*
X118285714Y-60452380D01*
X118047619Y-59452380D01*
X117714285Y-59547619D02*
X117666666Y-59500000D01*
X117571428Y-59452380D01*
X117333333Y-59452380D01*
X117238095Y-59500000D01*
X117190476Y-59547619D01*
X117142857Y-59642857D01*
X117142857Y-59738095D01*
X117190476Y-59880952D01*
X117761904Y-60452380D01*
X117142857Y-60452380D01*
X116523809Y-59452380D02*
X116428571Y-59452380D01*
X116333333Y-59500000D01*
X116285714Y-59547619D01*
X116238095Y-59642857D01*
X116190476Y-59833333D01*
X116190476Y-60071428D01*
X116238095Y-60261904D01*
X116285714Y-60357142D01*
X116333333Y-60404761D01*
X116428571Y-60452380D01*
X116523809Y-60452380D01*
X116619047Y-60404761D01*
X116666666Y-60357142D01*
X116714285Y-60261904D01*
X116761904Y-60071428D01*
X116761904Y-59833333D01*
X116714285Y-59642857D01*
X116666666Y-59547619D01*
X116619047Y-59500000D01*
X116523809Y-59452380D01*
%TO.C,SW30*%
X157909523Y-62404761D02*
X157766666Y-62452380D01*
X157528571Y-62452380D01*
X157433333Y-62404761D01*
X157385714Y-62357142D01*
X157338095Y-62261904D01*
X157338095Y-62166666D01*
X157385714Y-62071428D01*
X157433333Y-62023809D01*
X157528571Y-61976190D01*
X157719047Y-61928571D01*
X157814285Y-61880952D01*
X157861904Y-61833333D01*
X157909523Y-61738095D01*
X157909523Y-61642857D01*
X157861904Y-61547619D01*
X157814285Y-61500000D01*
X157719047Y-61452380D01*
X157480952Y-61452380D01*
X157338095Y-61500000D01*
X157004761Y-61452380D02*
X156766666Y-62452380D01*
X156576190Y-61738095D01*
X156385714Y-62452380D01*
X156147619Y-61452380D01*
X155861904Y-61452380D02*
X155242857Y-61452380D01*
X155576190Y-61833333D01*
X155433333Y-61833333D01*
X155338095Y-61880952D01*
X155290476Y-61928571D01*
X155242857Y-62023809D01*
X155242857Y-62261904D01*
X155290476Y-62357142D01*
X155338095Y-62404761D01*
X155433333Y-62452380D01*
X155719047Y-62452380D01*
X155814285Y-62404761D01*
X155861904Y-62357142D01*
X154623809Y-61452380D02*
X154528571Y-61452380D01*
X154433333Y-61500000D01*
X154385714Y-61547619D01*
X154338095Y-61642857D01*
X154290476Y-61833333D01*
X154290476Y-62071428D01*
X154338095Y-62261904D01*
X154385714Y-62357142D01*
X154433333Y-62404761D01*
X154528571Y-62452380D01*
X154623809Y-62452380D01*
X154719047Y-62404761D01*
X154766666Y-62357142D01*
X154814285Y-62261904D01*
X154861904Y-62071428D01*
X154861904Y-61833333D01*
X154814285Y-61642857D01*
X154766666Y-61547619D01*
X154719047Y-61500000D01*
X154623809Y-61452380D01*
%TO.C,SW2*%
X43333333Y-93904761D02*
X43190476Y-93952380D01*
X42952380Y-93952380D01*
X42857142Y-93904761D01*
X42809523Y-93857142D01*
X42761904Y-93761904D01*
X42761904Y-93666666D01*
X42809523Y-93571428D01*
X42857142Y-93523809D01*
X42952380Y-93476190D01*
X43142857Y-93428571D01*
X43238095Y-93380952D01*
X43285714Y-93333333D01*
X43333333Y-93238095D01*
X43333333Y-93142857D01*
X43285714Y-93047619D01*
X43238095Y-93000000D01*
X43142857Y-92952380D01*
X42904761Y-92952380D01*
X42761904Y-93000000D01*
X42428571Y-92952380D02*
X42190476Y-93952380D01*
X42000000Y-93238095D01*
X41809523Y-93952380D01*
X41571428Y-92952380D01*
X41238095Y-93047619D02*
X41190476Y-93000000D01*
X41095238Y-92952380D01*
X40857142Y-92952380D01*
X40761904Y-93000000D01*
X40714285Y-93047619D01*
X40666666Y-93142857D01*
X40666666Y-93238095D01*
X40714285Y-93380952D01*
X41285714Y-93952380D01*
X40666666Y-93952380D01*
%TO.C,SW18*%
X100809523Y-115404761D02*
X100666666Y-115452380D01*
X100428571Y-115452380D01*
X100333333Y-115404761D01*
X100285714Y-115357142D01*
X100238095Y-115261904D01*
X100238095Y-115166666D01*
X100285714Y-115071428D01*
X100333333Y-115023809D01*
X100428571Y-114976190D01*
X100619047Y-114928571D01*
X100714285Y-114880952D01*
X100761904Y-114833333D01*
X100809523Y-114738095D01*
X100809523Y-114642857D01*
X100761904Y-114547619D01*
X100714285Y-114500000D01*
X100619047Y-114452380D01*
X100380952Y-114452380D01*
X100238095Y-114500000D01*
X99904761Y-114452380D02*
X99666666Y-115452380D01*
X99476190Y-114738095D01*
X99285714Y-115452380D01*
X99047619Y-114452380D01*
X98142857Y-115452380D02*
X98714285Y-115452380D01*
X98428571Y-115452380D02*
X98428571Y-114452380D01*
X98523809Y-114595238D01*
X98619047Y-114690476D01*
X98714285Y-114738095D01*
X97571428Y-114880952D02*
X97666666Y-114833333D01*
X97714285Y-114785714D01*
X97761904Y-114690476D01*
X97761904Y-114642857D01*
X97714285Y-114547619D01*
X97666666Y-114500000D01*
X97571428Y-114452380D01*
X97380952Y-114452380D01*
X97285714Y-114500000D01*
X97238095Y-114547619D01*
X97190476Y-114642857D01*
X97190476Y-114690476D01*
X97238095Y-114785714D01*
X97285714Y-114833333D01*
X97380952Y-114880952D01*
X97571428Y-114880952D01*
X97666666Y-114928571D01*
X97714285Y-114976190D01*
X97761904Y-115071428D01*
X97761904Y-115261904D01*
X97714285Y-115357142D01*
X97666666Y-115404761D01*
X97571428Y-115452380D01*
X97380952Y-115452380D01*
X97285714Y-115404761D01*
X97238095Y-115357142D01*
X97190476Y-115261904D01*
X97190476Y-115071428D01*
X97238095Y-114976190D01*
X97285714Y-114928571D01*
X97380952Y-114880952D01*
%TO.C,D12*%
X73952380Y-83410714D02*
X72952380Y-83410714D01*
X72952380Y-83648809D01*
X73000000Y-83791666D01*
X73095238Y-83886904D01*
X73190476Y-83934523D01*
X73380952Y-83982142D01*
X73523809Y-83982142D01*
X73714285Y-83934523D01*
X73809523Y-83886904D01*
X73904761Y-83791666D01*
X73952380Y-83648809D01*
X73952380Y-83410714D01*
X73952380Y-84934523D02*
X73952380Y-84363095D01*
X73952380Y-84648809D02*
X72952380Y-84648809D01*
X73095238Y-84553571D01*
X73190476Y-84458333D01*
X73238095Y-84363095D01*
X73047619Y-85315476D02*
X73000000Y-85363095D01*
X72952380Y-85458333D01*
X72952380Y-85696428D01*
X73000000Y-85791666D01*
X73047619Y-85839285D01*
X73142857Y-85886904D01*
X73238095Y-85886904D01*
X73380952Y-85839285D01*
X73952380Y-85267857D01*
X73952380Y-85886904D01*
%TO.C,D9*%
X54952380Y-126261904D02*
X53952380Y-126261904D01*
X53952380Y-126500000D01*
X54000000Y-126642857D01*
X54095238Y-126738095D01*
X54190476Y-126785714D01*
X54380952Y-126833333D01*
X54523809Y-126833333D01*
X54714285Y-126785714D01*
X54809523Y-126738095D01*
X54904761Y-126642857D01*
X54952380Y-126500000D01*
X54952380Y-126261904D01*
X54952380Y-127309523D02*
X54952380Y-127500000D01*
X54904761Y-127595238D01*
X54857142Y-127642857D01*
X54714285Y-127738095D01*
X54523809Y-127785714D01*
X54142857Y-127785714D01*
X54047619Y-127738095D01*
X54000000Y-127690476D01*
X53952380Y-127595238D01*
X53952380Y-127404761D01*
X54000000Y-127309523D01*
X54047619Y-127261904D01*
X54142857Y-127214285D01*
X54380952Y-127214285D01*
X54476190Y-127261904D01*
X54523809Y-127309523D01*
X54571428Y-127404761D01*
X54571428Y-127595238D01*
X54523809Y-127690476D01*
X54476190Y-127738095D01*
X54380952Y-127785714D01*
%TO.C,D2*%
X35952380Y-79511904D02*
X34952380Y-79511904D01*
X34952380Y-79750000D01*
X35000000Y-79892857D01*
X35095238Y-79988095D01*
X35190476Y-80035714D01*
X35380952Y-80083333D01*
X35523809Y-80083333D01*
X35714285Y-80035714D01*
X35809523Y-79988095D01*
X35904761Y-79892857D01*
X35952380Y-79750000D01*
X35952380Y-79511904D01*
X35047619Y-80464285D02*
X35000000Y-80511904D01*
X34952380Y-80607142D01*
X34952380Y-80845238D01*
X35000000Y-80940476D01*
X35047619Y-80988095D01*
X35142857Y-81035714D01*
X35238095Y-81035714D01*
X35380952Y-80988095D01*
X35952380Y-80416666D01*
X35952380Y-81035714D01*
%TO.C,D23*%
X112252380Y-102285714D02*
X111252380Y-102285714D01*
X111252380Y-102523809D01*
X111300000Y-102666666D01*
X111395238Y-102761904D01*
X111490476Y-102809523D01*
X111680952Y-102857142D01*
X111823809Y-102857142D01*
X112014285Y-102809523D01*
X112109523Y-102761904D01*
X112204761Y-102666666D01*
X112252380Y-102523809D01*
X112252380Y-102285714D01*
X111347619Y-103238095D02*
X111300000Y-103285714D01*
X111252380Y-103380952D01*
X111252380Y-103619047D01*
X111300000Y-103714285D01*
X111347619Y-103761904D01*
X111442857Y-103809523D01*
X111538095Y-103809523D01*
X111680952Y-103761904D01*
X112252380Y-103190476D01*
X112252380Y-103809523D01*
X111252380Y-104142857D02*
X111252380Y-104761904D01*
X111633333Y-104428571D01*
X111633333Y-104571428D01*
X111680952Y-104666666D01*
X111728571Y-104714285D01*
X111823809Y-104761904D01*
X112061904Y-104761904D01*
X112157142Y-104714285D01*
X112204761Y-104666666D01*
X112252380Y-104571428D01*
X112252380Y-104285714D01*
X112204761Y-104190476D01*
X112157142Y-104142857D01*
%TO.C,D13*%
X73952380Y-101910714D02*
X72952380Y-101910714D01*
X72952380Y-102148809D01*
X73000000Y-102291666D01*
X73095238Y-102386904D01*
X73190476Y-102434523D01*
X73380952Y-102482142D01*
X73523809Y-102482142D01*
X73714285Y-102434523D01*
X73809523Y-102386904D01*
X73904761Y-102291666D01*
X73952380Y-102148809D01*
X73952380Y-101910714D01*
X73952380Y-103434523D02*
X73952380Y-102863095D01*
X73952380Y-103148809D02*
X72952380Y-103148809D01*
X73095238Y-103053571D01*
X73190476Y-102958333D01*
X73238095Y-102863095D01*
X72952380Y-103767857D02*
X72952380Y-104386904D01*
X73333333Y-104053571D01*
X73333333Y-104196428D01*
X73380952Y-104291666D01*
X73428571Y-104339285D01*
X73523809Y-104386904D01*
X73761904Y-104386904D01*
X73857142Y-104339285D01*
X73904761Y-104291666D01*
X73952380Y-104196428D01*
X73952380Y-103910714D01*
X73904761Y-103815476D01*
X73857142Y-103767857D01*
%TO.C,D25*%
X131452380Y-47785714D02*
X130452380Y-47785714D01*
X130452380Y-48023809D01*
X130500000Y-48166666D01*
X130595238Y-48261904D01*
X130690476Y-48309523D01*
X130880952Y-48357142D01*
X131023809Y-48357142D01*
X131214285Y-48309523D01*
X131309523Y-48261904D01*
X131404761Y-48166666D01*
X131452380Y-48023809D01*
X131452380Y-47785714D01*
X130547619Y-48738095D02*
X130500000Y-48785714D01*
X130452380Y-48880952D01*
X130452380Y-49119047D01*
X130500000Y-49214285D01*
X130547619Y-49261904D01*
X130642857Y-49309523D01*
X130738095Y-49309523D01*
X130880952Y-49261904D01*
X131452380Y-48690476D01*
X131452380Y-49309523D01*
X130452380Y-50214285D02*
X130452380Y-49738095D01*
X130928571Y-49690476D01*
X130880952Y-49738095D01*
X130833333Y-49833333D01*
X130833333Y-50071428D01*
X130880952Y-50166666D01*
X130928571Y-50214285D01*
X131023809Y-50261904D01*
X131261904Y-50261904D01*
X131357142Y-50214285D01*
X131404761Y-50166666D01*
X131452380Y-50071428D01*
X131452380Y-49833333D01*
X131404761Y-49738095D01*
X131357142Y-49690476D01*
%TO.C,D32*%
X149952380Y-84910714D02*
X148952380Y-84910714D01*
X148952380Y-85148809D01*
X149000000Y-85291666D01*
X149095238Y-85386904D01*
X149190476Y-85434523D01*
X149380952Y-85482142D01*
X149523809Y-85482142D01*
X149714285Y-85434523D01*
X149809523Y-85386904D01*
X149904761Y-85291666D01*
X149952380Y-85148809D01*
X149952380Y-84910714D01*
X148952380Y-85815476D02*
X148952380Y-86434523D01*
X149333333Y-86101190D01*
X149333333Y-86244047D01*
X149380952Y-86339285D01*
X149428571Y-86386904D01*
X149523809Y-86434523D01*
X149761904Y-86434523D01*
X149857142Y-86386904D01*
X149904761Y-86339285D01*
X149952380Y-86244047D01*
X149952380Y-85958333D01*
X149904761Y-85863095D01*
X149857142Y-85815476D01*
X149047619Y-86815476D02*
X149000000Y-86863095D01*
X148952380Y-86958333D01*
X148952380Y-87196428D01*
X149000000Y-87291666D01*
X149047619Y-87339285D01*
X149142857Y-87386904D01*
X149238095Y-87386904D01*
X149380952Y-87339285D01*
X149952380Y-86767857D01*
X149952380Y-87386904D01*
%TO.C,JP1*%
X147308333Y-26377380D02*
X147308333Y-27091666D01*
X147355952Y-27234523D01*
X147451190Y-27329761D01*
X147594047Y-27377380D01*
X147689285Y-27377380D01*
X146832142Y-27377380D02*
X146832142Y-26377380D01*
X146451190Y-26377380D01*
X146355952Y-26425000D01*
X146308333Y-26472619D01*
X146260714Y-26567857D01*
X146260714Y-26710714D01*
X146308333Y-26805952D01*
X146355952Y-26853571D01*
X146451190Y-26901190D01*
X146832142Y-26901190D01*
X145308333Y-27377380D02*
X145879761Y-27377380D01*
X145594047Y-27377380D02*
X145594047Y-26377380D01*
X145689285Y-26520238D01*
X145784523Y-26615476D01*
X145879761Y-26663095D01*
%TO.C,R2*%
X151452380Y-26033333D02*
X150976190Y-25700000D01*
X151452380Y-25461904D02*
X150452380Y-25461904D01*
X150452380Y-25842857D01*
X150500000Y-25938095D01*
X150547619Y-25985714D01*
X150642857Y-26033333D01*
X150785714Y-26033333D01*
X150880952Y-25985714D01*
X150928571Y-25938095D01*
X150976190Y-25842857D01*
X150976190Y-25461904D01*
X150547619Y-26414285D02*
X150500000Y-26461904D01*
X150452380Y-26557142D01*
X150452380Y-26795238D01*
X150500000Y-26890476D01*
X150547619Y-26938095D01*
X150642857Y-26985714D01*
X150738095Y-26985714D01*
X150880952Y-26938095D01*
X151452380Y-26366666D01*
X151452380Y-26985714D01*
%TO.C,D16*%
X92952380Y-61910714D02*
X91952380Y-61910714D01*
X91952380Y-62148809D01*
X92000000Y-62291666D01*
X92095238Y-62386904D01*
X92190476Y-62434523D01*
X92380952Y-62482142D01*
X92523809Y-62482142D01*
X92714285Y-62434523D01*
X92809523Y-62386904D01*
X92904761Y-62291666D01*
X92952380Y-62148809D01*
X92952380Y-61910714D01*
X92952380Y-63434523D02*
X92952380Y-62863095D01*
X92952380Y-63148809D02*
X91952380Y-63148809D01*
X92095238Y-63053571D01*
X92190476Y-62958333D01*
X92238095Y-62863095D01*
X91952380Y-64291666D02*
X91952380Y-64101190D01*
X92000000Y-64005952D01*
X92047619Y-63958333D01*
X92190476Y-63863095D01*
X92380952Y-63815476D01*
X92761904Y-63815476D01*
X92857142Y-63863095D01*
X92904761Y-63910714D01*
X92952380Y-64005952D01*
X92952380Y-64196428D01*
X92904761Y-64291666D01*
X92857142Y-64339285D01*
X92761904Y-64386904D01*
X92523809Y-64386904D01*
X92428571Y-64339285D01*
X92380952Y-64291666D01*
X92333333Y-64196428D01*
X92333333Y-64005952D01*
X92380952Y-63910714D01*
X92428571Y-63863095D01*
X92523809Y-63815476D01*
%TO.C,D17*%
X92952380Y-80910714D02*
X91952380Y-80910714D01*
X91952380Y-81148809D01*
X92000000Y-81291666D01*
X92095238Y-81386904D01*
X92190476Y-81434523D01*
X92380952Y-81482142D01*
X92523809Y-81482142D01*
X92714285Y-81434523D01*
X92809523Y-81386904D01*
X92904761Y-81291666D01*
X92952380Y-81148809D01*
X92952380Y-80910714D01*
X92952380Y-82434523D02*
X92952380Y-81863095D01*
X92952380Y-82148809D02*
X91952380Y-82148809D01*
X92095238Y-82053571D01*
X92190476Y-81958333D01*
X92238095Y-81863095D01*
X91952380Y-82767857D02*
X91952380Y-83434523D01*
X92952380Y-83005952D01*
%TO.C,D24*%
X128952380Y-126785714D02*
X127952380Y-126785714D01*
X127952380Y-127023809D01*
X128000000Y-127166666D01*
X128095238Y-127261904D01*
X128190476Y-127309523D01*
X128380952Y-127357142D01*
X128523809Y-127357142D01*
X128714285Y-127309523D01*
X128809523Y-127261904D01*
X128904761Y-127166666D01*
X128952380Y-127023809D01*
X128952380Y-126785714D01*
X128047619Y-127738095D02*
X128000000Y-127785714D01*
X127952380Y-127880952D01*
X127952380Y-128119047D01*
X128000000Y-128214285D01*
X128047619Y-128261904D01*
X128142857Y-128309523D01*
X128238095Y-128309523D01*
X128380952Y-128261904D01*
X128952380Y-127690476D01*
X128952380Y-128309523D01*
X128285714Y-129166666D02*
X128952380Y-129166666D01*
X127904761Y-128928571D02*
X128619047Y-128690476D01*
X128619047Y-129309523D01*
%TO.C,D27*%
X130952380Y-84910714D02*
X129952380Y-84910714D01*
X129952380Y-85148809D01*
X130000000Y-85291666D01*
X130095238Y-85386904D01*
X130190476Y-85434523D01*
X130380952Y-85482142D01*
X130523809Y-85482142D01*
X130714285Y-85434523D01*
X130809523Y-85386904D01*
X130904761Y-85291666D01*
X130952380Y-85148809D01*
X130952380Y-84910714D01*
X130047619Y-85863095D02*
X130000000Y-85910714D01*
X129952380Y-86005952D01*
X129952380Y-86244047D01*
X130000000Y-86339285D01*
X130047619Y-86386904D01*
X130142857Y-86434523D01*
X130238095Y-86434523D01*
X130380952Y-86386904D01*
X130952380Y-85815476D01*
X130952380Y-86434523D01*
X129952380Y-86767857D02*
X129952380Y-87434523D01*
X130952380Y-87005952D01*
%TO.C,D15*%
X92952380Y-43785714D02*
X91952380Y-43785714D01*
X91952380Y-44023809D01*
X92000000Y-44166666D01*
X92095238Y-44261904D01*
X92190476Y-44309523D01*
X92380952Y-44357142D01*
X92523809Y-44357142D01*
X92714285Y-44309523D01*
X92809523Y-44261904D01*
X92904761Y-44166666D01*
X92952380Y-44023809D01*
X92952380Y-43785714D01*
X92952380Y-45309523D02*
X92952380Y-44738095D01*
X92952380Y-45023809D02*
X91952380Y-45023809D01*
X92095238Y-44928571D01*
X92190476Y-44833333D01*
X92238095Y-44738095D01*
X91952380Y-46214285D02*
X91952380Y-45738095D01*
X92428571Y-45690476D01*
X92380952Y-45738095D01*
X92333333Y-45833333D01*
X92333333Y-46071428D01*
X92380952Y-46166666D01*
X92428571Y-46214285D01*
X92523809Y-46261904D01*
X92761904Y-46261904D01*
X92857142Y-46214285D01*
X92904761Y-46166666D01*
X92952380Y-46071428D01*
X92952380Y-45833333D01*
X92904761Y-45738095D01*
X92857142Y-45690476D01*
%TO.C,JP2*%
X147083333Y-19877380D02*
X147083333Y-20591666D01*
X147130952Y-20734523D01*
X147226190Y-20829761D01*
X147369047Y-20877380D01*
X147464285Y-20877380D01*
X146607142Y-20877380D02*
X146607142Y-19877380D01*
X146226190Y-19877380D01*
X146130952Y-19925000D01*
X146083333Y-19972619D01*
X146035714Y-20067857D01*
X146035714Y-20210714D01*
X146083333Y-20305952D01*
X146130952Y-20353571D01*
X146226190Y-20401190D01*
X146607142Y-20401190D01*
X145654761Y-19972619D02*
X145607142Y-19925000D01*
X145511904Y-19877380D01*
X145273809Y-19877380D01*
X145178571Y-19925000D01*
X145130952Y-19972619D01*
X145083333Y-20067857D01*
X145083333Y-20163095D01*
X145130952Y-20305952D01*
X145702380Y-20877380D01*
X145083333Y-20877380D01*
%TO.C,D19*%
X93452380Y-118910714D02*
X92452380Y-118910714D01*
X92452380Y-119148809D01*
X92500000Y-119291666D01*
X92595238Y-119386904D01*
X92690476Y-119434523D01*
X92880952Y-119482142D01*
X93023809Y-119482142D01*
X93214285Y-119434523D01*
X93309523Y-119386904D01*
X93404761Y-119291666D01*
X93452380Y-119148809D01*
X93452380Y-118910714D01*
X93452380Y-120434523D02*
X93452380Y-119863095D01*
X93452380Y-120148809D02*
X92452380Y-120148809D01*
X92595238Y-120053571D01*
X92690476Y-119958333D01*
X92738095Y-119863095D01*
X93452380Y-120910714D02*
X93452380Y-121101190D01*
X93404761Y-121196428D01*
X93357142Y-121244047D01*
X93214285Y-121339285D01*
X93023809Y-121386904D01*
X92642857Y-121386904D01*
X92547619Y-121339285D01*
X92500000Y-121291666D01*
X92452380Y-121196428D01*
X92452380Y-121005952D01*
X92500000Y-120910714D01*
X92547619Y-120863095D01*
X92642857Y-120815476D01*
X92880952Y-120815476D01*
X92976190Y-120863095D01*
X93023809Y-120910714D01*
X93071428Y-121005952D01*
X93071428Y-121196428D01*
X93023809Y-121291666D01*
X92976190Y-121339285D01*
X92880952Y-121386904D01*
%TO.C,D22*%
X111952380Y-82910714D02*
X110952380Y-82910714D01*
X110952380Y-83148809D01*
X111000000Y-83291666D01*
X111095238Y-83386904D01*
X111190476Y-83434523D01*
X111380952Y-83482142D01*
X111523809Y-83482142D01*
X111714285Y-83434523D01*
X111809523Y-83386904D01*
X111904761Y-83291666D01*
X111952380Y-83148809D01*
X111952380Y-82910714D01*
X111047619Y-83863095D02*
X111000000Y-83910714D01*
X110952380Y-84005952D01*
X110952380Y-84244047D01*
X111000000Y-84339285D01*
X111047619Y-84386904D01*
X111142857Y-84434523D01*
X111238095Y-84434523D01*
X111380952Y-84386904D01*
X111952380Y-83815476D01*
X111952380Y-84434523D01*
X111047619Y-84815476D02*
X111000000Y-84863095D01*
X110952380Y-84958333D01*
X110952380Y-85196428D01*
X111000000Y-85291666D01*
X111047619Y-85339285D01*
X111142857Y-85386904D01*
X111238095Y-85386904D01*
X111380952Y-85339285D01*
X111952380Y-84767857D01*
X111952380Y-85386904D01*
%TO.C,D30*%
X150202380Y-47535714D02*
X149202380Y-47535714D01*
X149202380Y-47773809D01*
X149250000Y-47916666D01*
X149345238Y-48011904D01*
X149440476Y-48059523D01*
X149630952Y-48107142D01*
X149773809Y-48107142D01*
X149964285Y-48059523D01*
X150059523Y-48011904D01*
X150154761Y-47916666D01*
X150202380Y-47773809D01*
X150202380Y-47535714D01*
X149202380Y-48440476D02*
X149202380Y-49059523D01*
X149583333Y-48726190D01*
X149583333Y-48869047D01*
X149630952Y-48964285D01*
X149678571Y-49011904D01*
X149773809Y-49059523D01*
X150011904Y-49059523D01*
X150107142Y-49011904D01*
X150154761Y-48964285D01*
X150202380Y-48869047D01*
X150202380Y-48583333D01*
X150154761Y-48488095D01*
X150107142Y-48440476D01*
X149202380Y-49678571D02*
X149202380Y-49773809D01*
X149250000Y-49869047D01*
X149297619Y-49916666D01*
X149392857Y-49964285D01*
X149583333Y-50011904D01*
X149821428Y-50011904D01*
X150011904Y-49964285D01*
X150107142Y-49916666D01*
X150154761Y-49869047D01*
X150202380Y-49773809D01*
X150202380Y-49678571D01*
X150154761Y-49583333D01*
X150107142Y-49535714D01*
X150011904Y-49488095D01*
X149821428Y-49440476D01*
X149583333Y-49440476D01*
X149392857Y-49488095D01*
X149297619Y-49535714D01*
X149250000Y-49583333D01*
X149202380Y-49678571D01*
%TO.C,R1*%
X151452380Y-21133333D02*
X150976190Y-20800000D01*
X151452380Y-20561904D02*
X150452380Y-20561904D01*
X150452380Y-20942857D01*
X150500000Y-21038095D01*
X150547619Y-21085714D01*
X150642857Y-21133333D01*
X150785714Y-21133333D01*
X150880952Y-21085714D01*
X150928571Y-21038095D01*
X150976190Y-20942857D01*
X150976190Y-20561904D01*
X151452380Y-22085714D02*
X151452380Y-21514285D01*
X151452380Y-21800000D02*
X150452380Y-21800000D01*
X150595238Y-21704761D01*
X150690476Y-21609523D01*
X150738095Y-21514285D01*
%TO.C,D29*%
X149952380Y-126910714D02*
X148952380Y-126910714D01*
X148952380Y-127148809D01*
X149000000Y-127291666D01*
X149095238Y-127386904D01*
X149190476Y-127434523D01*
X149380952Y-127482142D01*
X149523809Y-127482142D01*
X149714285Y-127434523D01*
X149809523Y-127386904D01*
X149904761Y-127291666D01*
X149952380Y-127148809D01*
X149952380Y-126910714D01*
X149047619Y-127863095D02*
X149000000Y-127910714D01*
X148952380Y-128005952D01*
X148952380Y-128244047D01*
X149000000Y-128339285D01*
X149047619Y-128386904D01*
X149142857Y-128434523D01*
X149238095Y-128434523D01*
X149380952Y-128386904D01*
X149952380Y-127815476D01*
X149952380Y-128434523D01*
X149952380Y-128910714D02*
X149952380Y-129101190D01*
X149904761Y-129196428D01*
X149857142Y-129244047D01*
X149714285Y-129339285D01*
X149523809Y-129386904D01*
X149142857Y-129386904D01*
X149047619Y-129339285D01*
X149000000Y-129291666D01*
X148952380Y-129196428D01*
X148952380Y-129005952D01*
X149000000Y-128910714D01*
X149047619Y-128863095D01*
X149142857Y-128815476D01*
X149380952Y-128815476D01*
X149476190Y-128863095D01*
X149523809Y-128910714D01*
X149571428Y-129005952D01*
X149571428Y-129196428D01*
X149523809Y-129291666D01*
X149476190Y-129339285D01*
X149380952Y-129386904D01*
%TO.C,D33*%
X166452380Y-137285714D02*
X165452380Y-137285714D01*
X165452380Y-137523809D01*
X165500000Y-137666666D01*
X165595238Y-137761904D01*
X165690476Y-137809523D01*
X165880952Y-137857142D01*
X166023809Y-137857142D01*
X166214285Y-137809523D01*
X166309523Y-137761904D01*
X166404761Y-137666666D01*
X166452380Y-137523809D01*
X166452380Y-137285714D01*
X165452380Y-138190476D02*
X165452380Y-138809523D01*
X165833333Y-138476190D01*
X165833333Y-138619047D01*
X165880952Y-138714285D01*
X165928571Y-138761904D01*
X166023809Y-138809523D01*
X166261904Y-138809523D01*
X166357142Y-138761904D01*
X166404761Y-138714285D01*
X166452380Y-138619047D01*
X166452380Y-138333333D01*
X166404761Y-138238095D01*
X166357142Y-138190476D01*
X165452380Y-139142857D02*
X165452380Y-139761904D01*
X165833333Y-139428571D01*
X165833333Y-139571428D01*
X165880952Y-139666666D01*
X165928571Y-139714285D01*
X166023809Y-139761904D01*
X166261904Y-139761904D01*
X166357142Y-139714285D01*
X166404761Y-139666666D01*
X166452380Y-139571428D01*
X166452380Y-139285714D01*
X166404761Y-139190476D01*
X166357142Y-139142857D01*
%TO.C,D31*%
X149952380Y-66285714D02*
X148952380Y-66285714D01*
X148952380Y-66523809D01*
X149000000Y-66666666D01*
X149095238Y-66761904D01*
X149190476Y-66809523D01*
X149380952Y-66857142D01*
X149523809Y-66857142D01*
X149714285Y-66809523D01*
X149809523Y-66761904D01*
X149904761Y-66666666D01*
X149952380Y-66523809D01*
X149952380Y-66285714D01*
X148952380Y-67190476D02*
X148952380Y-67809523D01*
X149333333Y-67476190D01*
X149333333Y-67619047D01*
X149380952Y-67714285D01*
X149428571Y-67761904D01*
X149523809Y-67809523D01*
X149761904Y-67809523D01*
X149857142Y-67761904D01*
X149904761Y-67714285D01*
X149952380Y-67619047D01*
X149952380Y-67333333D01*
X149904761Y-67238095D01*
X149857142Y-67190476D01*
X149952380Y-68761904D02*
X149952380Y-68190476D01*
X149952380Y-68476190D02*
X148952380Y-68476190D01*
X149095238Y-68380952D01*
X149190476Y-68285714D01*
X149238095Y-68190476D01*
%TO.C,D11*%
X73952380Y-64285714D02*
X72952380Y-64285714D01*
X72952380Y-64523809D01*
X73000000Y-64666666D01*
X73095238Y-64761904D01*
X73190476Y-64809523D01*
X73380952Y-64857142D01*
X73523809Y-64857142D01*
X73714285Y-64809523D01*
X73809523Y-64761904D01*
X73904761Y-64666666D01*
X73952380Y-64523809D01*
X73952380Y-64285714D01*
X73952380Y-65809523D02*
X73952380Y-65238095D01*
X73952380Y-65523809D02*
X72952380Y-65523809D01*
X73095238Y-65428571D01*
X73190476Y-65333333D01*
X73238095Y-65238095D01*
X73952380Y-66761904D02*
X73952380Y-66190476D01*
X73952380Y-66476190D02*
X72952380Y-66476190D01*
X73095238Y-66380952D01*
X73190476Y-66285714D01*
X73238095Y-66190476D01*
%TO.C,D5*%
X54952380Y-51086904D02*
X53952380Y-51086904D01*
X53952380Y-51325000D01*
X54000000Y-51467857D01*
X54095238Y-51563095D01*
X54190476Y-51610714D01*
X54380952Y-51658333D01*
X54523809Y-51658333D01*
X54714285Y-51610714D01*
X54809523Y-51563095D01*
X54904761Y-51467857D01*
X54952380Y-51325000D01*
X54952380Y-51086904D01*
X53952380Y-52563095D02*
X53952380Y-52086904D01*
X54428571Y-52039285D01*
X54380952Y-52086904D01*
X54333333Y-52182142D01*
X54333333Y-52420238D01*
X54380952Y-52515476D01*
X54428571Y-52563095D01*
X54523809Y-52610714D01*
X54761904Y-52610714D01*
X54857142Y-52563095D01*
X54904761Y-52515476D01*
X54952380Y-52420238D01*
X54952380Y-52182142D01*
X54904761Y-52086904D01*
X54857142Y-52039285D01*
%TO.C,D14*%
X73952380Y-121285714D02*
X72952380Y-121285714D01*
X72952380Y-121523809D01*
X73000000Y-121666666D01*
X73095238Y-121761904D01*
X73190476Y-121809523D01*
X73380952Y-121857142D01*
X73523809Y-121857142D01*
X73714285Y-121809523D01*
X73809523Y-121761904D01*
X73904761Y-121666666D01*
X73952380Y-121523809D01*
X73952380Y-121285714D01*
X73952380Y-122809523D02*
X73952380Y-122238095D01*
X73952380Y-122523809D02*
X72952380Y-122523809D01*
X73095238Y-122428571D01*
X73190476Y-122333333D01*
X73238095Y-122238095D01*
X73285714Y-123666666D02*
X73952380Y-123666666D01*
X72904761Y-123428571D02*
X73619047Y-123190476D01*
X73619047Y-123809523D01*
%TO.C,D10*%
X73952380Y-45285714D02*
X72952380Y-45285714D01*
X72952380Y-45523809D01*
X73000000Y-45666666D01*
X73095238Y-45761904D01*
X73190476Y-45809523D01*
X73380952Y-45857142D01*
X73523809Y-45857142D01*
X73714285Y-45809523D01*
X73809523Y-45761904D01*
X73904761Y-45666666D01*
X73952380Y-45523809D01*
X73952380Y-45285714D01*
X73952380Y-46809523D02*
X73952380Y-46238095D01*
X73952380Y-46523809D02*
X72952380Y-46523809D01*
X73095238Y-46428571D01*
X73190476Y-46333333D01*
X73238095Y-46238095D01*
X72952380Y-47428571D02*
X72952380Y-47523809D01*
X73000000Y-47619047D01*
X73047619Y-47666666D01*
X73142857Y-47714285D01*
X73333333Y-47761904D01*
X73571428Y-47761904D01*
X73761904Y-47714285D01*
X73857142Y-47666666D01*
X73904761Y-47619047D01*
X73952380Y-47523809D01*
X73952380Y-47428571D01*
X73904761Y-47333333D01*
X73857142Y-47285714D01*
X73761904Y-47238095D01*
X73571428Y-47190476D01*
X73333333Y-47190476D01*
X73142857Y-47238095D01*
X73047619Y-47285714D01*
X73000000Y-47333333D01*
X72952380Y-47428571D01*
%TO.C,D18*%
X92952380Y-100285714D02*
X91952380Y-100285714D01*
X91952380Y-100523809D01*
X92000000Y-100666666D01*
X92095238Y-100761904D01*
X92190476Y-100809523D01*
X92380952Y-100857142D01*
X92523809Y-100857142D01*
X92714285Y-100809523D01*
X92809523Y-100761904D01*
X92904761Y-100666666D01*
X92952380Y-100523809D01*
X92952380Y-100285714D01*
X92952380Y-101809523D02*
X92952380Y-101238095D01*
X92952380Y-101523809D02*
X91952380Y-101523809D01*
X92095238Y-101428571D01*
X92190476Y-101333333D01*
X92238095Y-101238095D01*
X92380952Y-102380952D02*
X92333333Y-102285714D01*
X92285714Y-102238095D01*
X92190476Y-102190476D01*
X92142857Y-102190476D01*
X92047619Y-102238095D01*
X92000000Y-102285714D01*
X91952380Y-102380952D01*
X91952380Y-102571428D01*
X92000000Y-102666666D01*
X92047619Y-102714285D01*
X92142857Y-102761904D01*
X92190476Y-102761904D01*
X92285714Y-102714285D01*
X92333333Y-102666666D01*
X92380952Y-102571428D01*
X92380952Y-102380952D01*
X92428571Y-102285714D01*
X92476190Y-102238095D01*
X92571428Y-102190476D01*
X92761904Y-102190476D01*
X92857142Y-102238095D01*
X92904761Y-102285714D01*
X92952380Y-102380952D01*
X92952380Y-102571428D01*
X92904761Y-102666666D01*
X92857142Y-102714285D01*
X92761904Y-102761904D01*
X92571428Y-102761904D01*
X92476190Y-102714285D01*
X92428571Y-102666666D01*
X92380952Y-102571428D01*
%TO.C,D3*%
X35952380Y-107886904D02*
X34952380Y-107886904D01*
X34952380Y-108125000D01*
X35000000Y-108267857D01*
X35095238Y-108363095D01*
X35190476Y-108410714D01*
X35380952Y-108458333D01*
X35523809Y-108458333D01*
X35714285Y-108410714D01*
X35809523Y-108363095D01*
X35904761Y-108267857D01*
X35952380Y-108125000D01*
X35952380Y-107886904D01*
X34952380Y-108791666D02*
X34952380Y-109410714D01*
X35333333Y-109077380D01*
X35333333Y-109220238D01*
X35380952Y-109315476D01*
X35428571Y-109363095D01*
X35523809Y-109410714D01*
X35761904Y-109410714D01*
X35857142Y-109363095D01*
X35904761Y-109315476D01*
X35952380Y-109220238D01*
X35952380Y-108934523D01*
X35904761Y-108839285D01*
X35857142Y-108791666D01*
%TO.C,D1*%
X35952380Y-51036904D02*
X34952380Y-51036904D01*
X34952380Y-51275000D01*
X35000000Y-51417857D01*
X35095238Y-51513095D01*
X35190476Y-51560714D01*
X35380952Y-51608333D01*
X35523809Y-51608333D01*
X35714285Y-51560714D01*
X35809523Y-51513095D01*
X35904761Y-51417857D01*
X35952380Y-51275000D01*
X35952380Y-51036904D01*
X35952380Y-52560714D02*
X35952380Y-51989285D01*
X35952380Y-52275000D02*
X34952380Y-52275000D01*
X35095238Y-52179761D01*
X35190476Y-52084523D01*
X35238095Y-51989285D01*
%TO.C,D28*%
X130952380Y-103910714D02*
X129952380Y-103910714D01*
X129952380Y-104148809D01*
X130000000Y-104291666D01*
X130095238Y-104386904D01*
X130190476Y-104434523D01*
X130380952Y-104482142D01*
X130523809Y-104482142D01*
X130714285Y-104434523D01*
X130809523Y-104386904D01*
X130904761Y-104291666D01*
X130952380Y-104148809D01*
X130952380Y-103910714D01*
X130047619Y-104863095D02*
X130000000Y-104910714D01*
X129952380Y-105005952D01*
X129952380Y-105244047D01*
X130000000Y-105339285D01*
X130047619Y-105386904D01*
X130142857Y-105434523D01*
X130238095Y-105434523D01*
X130380952Y-105386904D01*
X130952380Y-104815476D01*
X130952380Y-105434523D01*
X130380952Y-106005952D02*
X130333333Y-105910714D01*
X130285714Y-105863095D01*
X130190476Y-105815476D01*
X130142857Y-105815476D01*
X130047619Y-105863095D01*
X130000000Y-105910714D01*
X129952380Y-106005952D01*
X129952380Y-106196428D01*
X130000000Y-106291666D01*
X130047619Y-106339285D01*
X130142857Y-106386904D01*
X130190476Y-106386904D01*
X130285714Y-106339285D01*
X130333333Y-106291666D01*
X130380952Y-106196428D01*
X130380952Y-106005952D01*
X130428571Y-105910714D01*
X130476190Y-105863095D01*
X130571428Y-105815476D01*
X130761904Y-105815476D01*
X130857142Y-105863095D01*
X130904761Y-105910714D01*
X130952380Y-106005952D01*
X130952380Y-106196428D01*
X130904761Y-106291666D01*
X130857142Y-106339285D01*
X130761904Y-106386904D01*
X130571428Y-106386904D01*
X130476190Y-106339285D01*
X130428571Y-106291666D01*
X130380952Y-106196428D01*
%TO.C,D26*%
X130952380Y-65910714D02*
X129952380Y-65910714D01*
X129952380Y-66148809D01*
X130000000Y-66291666D01*
X130095238Y-66386904D01*
X130190476Y-66434523D01*
X130380952Y-66482142D01*
X130523809Y-66482142D01*
X130714285Y-66434523D01*
X130809523Y-66386904D01*
X130904761Y-66291666D01*
X130952380Y-66148809D01*
X130952380Y-65910714D01*
X130047619Y-66863095D02*
X130000000Y-66910714D01*
X129952380Y-67005952D01*
X129952380Y-67244047D01*
X130000000Y-67339285D01*
X130047619Y-67386904D01*
X130142857Y-67434523D01*
X130238095Y-67434523D01*
X130380952Y-67386904D01*
X130952380Y-66815476D01*
X130952380Y-67434523D01*
X129952380Y-68291666D02*
X129952380Y-68101190D01*
X130000000Y-68005952D01*
X130047619Y-67958333D01*
X130190476Y-67863095D01*
X130380952Y-67815476D01*
X130761904Y-67815476D01*
X130857142Y-67863095D01*
X130904761Y-67910714D01*
X130952380Y-68005952D01*
X130952380Y-68196428D01*
X130904761Y-68291666D01*
X130857142Y-68339285D01*
X130761904Y-68386904D01*
X130523809Y-68386904D01*
X130428571Y-68339285D01*
X130380952Y-68291666D01*
X130333333Y-68196428D01*
X130333333Y-68005952D01*
X130380952Y-67910714D01*
X130428571Y-67863095D01*
X130523809Y-67815476D01*
%TO.C,D20*%
X111952380Y-45535714D02*
X110952380Y-45535714D01*
X110952380Y-45773809D01*
X111000000Y-45916666D01*
X111095238Y-46011904D01*
X111190476Y-46059523D01*
X111380952Y-46107142D01*
X111523809Y-46107142D01*
X111714285Y-46059523D01*
X111809523Y-46011904D01*
X111904761Y-45916666D01*
X111952380Y-45773809D01*
X111952380Y-45535714D01*
X111047619Y-46488095D02*
X111000000Y-46535714D01*
X110952380Y-46630952D01*
X110952380Y-46869047D01*
X111000000Y-46964285D01*
X111047619Y-47011904D01*
X111142857Y-47059523D01*
X111238095Y-47059523D01*
X111380952Y-47011904D01*
X111952380Y-46440476D01*
X111952380Y-47059523D01*
X110952380Y-47678571D02*
X110952380Y-47773809D01*
X111000000Y-47869047D01*
X111047619Y-47916666D01*
X111142857Y-47964285D01*
X111333333Y-48011904D01*
X111571428Y-48011904D01*
X111761904Y-47964285D01*
X111857142Y-47916666D01*
X111904761Y-47869047D01*
X111952380Y-47773809D01*
X111952380Y-47678571D01*
X111904761Y-47583333D01*
X111857142Y-47535714D01*
X111761904Y-47488095D01*
X111571428Y-47440476D01*
X111333333Y-47440476D01*
X111142857Y-47488095D01*
X111047619Y-47535714D01*
X111000000Y-47583333D01*
X110952380Y-47678571D01*
%TO.C,D4*%
X35952380Y-126386904D02*
X34952380Y-126386904D01*
X34952380Y-126625000D01*
X35000000Y-126767857D01*
X35095238Y-126863095D01*
X35190476Y-126910714D01*
X35380952Y-126958333D01*
X35523809Y-126958333D01*
X35714285Y-126910714D01*
X35809523Y-126863095D01*
X35904761Y-126767857D01*
X35952380Y-126625000D01*
X35952380Y-126386904D01*
X35285714Y-127815476D02*
X35952380Y-127815476D01*
X34904761Y-127577380D02*
X35619047Y-127339285D01*
X35619047Y-127958333D01*
%TO.C,D21*%
X111952380Y-63910714D02*
X110952380Y-63910714D01*
X110952380Y-64148809D01*
X111000000Y-64291666D01*
X111095238Y-64386904D01*
X111190476Y-64434523D01*
X111380952Y-64482142D01*
X111523809Y-64482142D01*
X111714285Y-64434523D01*
X111809523Y-64386904D01*
X111904761Y-64291666D01*
X111952380Y-64148809D01*
X111952380Y-63910714D01*
X111047619Y-64863095D02*
X111000000Y-64910714D01*
X110952380Y-65005952D01*
X110952380Y-65244047D01*
X111000000Y-65339285D01*
X111047619Y-65386904D01*
X111142857Y-65434523D01*
X111238095Y-65434523D01*
X111380952Y-65386904D01*
X111952380Y-64815476D01*
X111952380Y-65434523D01*
X111952380Y-66386904D02*
X111952380Y-65815476D01*
X111952380Y-66101190D02*
X110952380Y-66101190D01*
X111095238Y-66005952D01*
X111190476Y-65910714D01*
X111238095Y-65815476D01*
%TO.C,D8*%
X54952380Y-107886904D02*
X53952380Y-107886904D01*
X53952380Y-108125000D01*
X54000000Y-108267857D01*
X54095238Y-108363095D01*
X54190476Y-108410714D01*
X54380952Y-108458333D01*
X54523809Y-108458333D01*
X54714285Y-108410714D01*
X54809523Y-108363095D01*
X54904761Y-108267857D01*
X54952380Y-108125000D01*
X54952380Y-107886904D01*
X54380952Y-109029761D02*
X54333333Y-108934523D01*
X54285714Y-108886904D01*
X54190476Y-108839285D01*
X54142857Y-108839285D01*
X54047619Y-108886904D01*
X54000000Y-108934523D01*
X53952380Y-109029761D01*
X53952380Y-109220238D01*
X54000000Y-109315476D01*
X54047619Y-109363095D01*
X54142857Y-109410714D01*
X54190476Y-109410714D01*
X54285714Y-109363095D01*
X54333333Y-109315476D01*
X54380952Y-109220238D01*
X54380952Y-109029761D01*
X54428571Y-108934523D01*
X54476190Y-108886904D01*
X54571428Y-108839285D01*
X54761904Y-108839285D01*
X54857142Y-108886904D01*
X54904761Y-108934523D01*
X54952380Y-109029761D01*
X54952380Y-109220238D01*
X54904761Y-109315476D01*
X54857142Y-109363095D01*
X54761904Y-109410714D01*
X54571428Y-109410714D01*
X54476190Y-109363095D01*
X54428571Y-109315476D01*
X54380952Y-109220238D01*
%TO.C,D6*%
X54952380Y-70411904D02*
X53952380Y-70411904D01*
X53952380Y-70650000D01*
X54000000Y-70792857D01*
X54095238Y-70888095D01*
X54190476Y-70935714D01*
X54380952Y-70983333D01*
X54523809Y-70983333D01*
X54714285Y-70935714D01*
X54809523Y-70888095D01*
X54904761Y-70792857D01*
X54952380Y-70650000D01*
X54952380Y-70411904D01*
X53952380Y-71840476D02*
X53952380Y-71650000D01*
X54000000Y-71554761D01*
X54047619Y-71507142D01*
X54190476Y-71411904D01*
X54380952Y-71364285D01*
X54761904Y-71364285D01*
X54857142Y-71411904D01*
X54904761Y-71459523D01*
X54952380Y-71554761D01*
X54952380Y-71745238D01*
X54904761Y-71840476D01*
X54857142Y-71888095D01*
X54761904Y-71935714D01*
X54523809Y-71935714D01*
X54428571Y-71888095D01*
X54380952Y-71840476D01*
X54333333Y-71745238D01*
X54333333Y-71554761D01*
X54380952Y-71459523D01*
X54428571Y-71411904D01*
X54523809Y-71364285D01*
%TO.C,D7*%
X54952380Y-88761904D02*
X53952380Y-88761904D01*
X53952380Y-89000000D01*
X54000000Y-89142857D01*
X54095238Y-89238095D01*
X54190476Y-89285714D01*
X54380952Y-89333333D01*
X54523809Y-89333333D01*
X54714285Y-89285714D01*
X54809523Y-89238095D01*
X54904761Y-89142857D01*
X54952380Y-89000000D01*
X54952380Y-88761904D01*
X53952380Y-89666666D02*
X53952380Y-90333333D01*
X54952380Y-89904761D01*
%TO.C,J2*%
X158700000Y-29987500D02*
X164800000Y-29987500D01*
X158700000Y-17887500D02*
X164800000Y-17887500D01*
X158950000Y-15887500D02*
X164550000Y-15887500D01*
X164550000Y-17887500D02*
X164550000Y-15887500D01*
X158950000Y-17887500D02*
X158950000Y-15887500D01*
X158700000Y-17887500D02*
X158700000Y-29987500D01*
X164800000Y-17887500D02*
X164800000Y-29987500D01*
D11*
%TO.C,D12*%
X75500000Y-84875000D02*
X75500000Y-85375000D01*
X75500000Y-84275000D02*
X76050000Y-84275000D01*
X75100000Y-84875000D02*
X75900000Y-84875000D01*
X75500000Y-84275000D02*
X74950000Y-84275000D01*
X75900000Y-84875000D02*
X75500000Y-84275000D01*
X75500000Y-83875000D02*
X75500000Y-84275000D01*
X75500000Y-84275000D02*
X75100000Y-84875000D01*
%TO.C,D9*%
X56500000Y-126650000D02*
X57050000Y-126650000D01*
X56500000Y-126650000D02*
X55950000Y-126650000D01*
X56500000Y-126250000D02*
X56500000Y-126650000D01*
X56900000Y-127250000D02*
X56500000Y-126650000D01*
X56100000Y-127250000D02*
X56900000Y-127250000D01*
X56500000Y-126650000D02*
X56100000Y-127250000D01*
X56500000Y-127250000D02*
X56500000Y-127750000D01*
%TO.C,D2*%
X37900000Y-80500000D02*
X37500000Y-79900000D01*
X37100000Y-80500000D02*
X37900000Y-80500000D01*
X37500000Y-79900000D02*
X37100000Y-80500000D01*
X37500000Y-79900000D02*
X38050000Y-79900000D01*
X37500000Y-79900000D02*
X36950000Y-79900000D01*
X37500000Y-80500000D02*
X37500000Y-81000000D01*
X37500000Y-79500000D02*
X37500000Y-79900000D01*
%TO.C,D23*%
X113400000Y-103750000D02*
X114200000Y-103750000D01*
X113800000Y-103750000D02*
X113800000Y-104250000D01*
X113800000Y-102750000D02*
X113800000Y-103150000D01*
X114200000Y-103750000D02*
X113800000Y-103150000D01*
X113800000Y-103150000D02*
X113400000Y-103750000D01*
X113800000Y-103150000D02*
X113250000Y-103150000D01*
X113800000Y-103150000D02*
X114350000Y-103150000D01*
%TO.C,D13*%
X75900000Y-103375000D02*
X75500000Y-102775000D01*
X75500000Y-103375000D02*
X75500000Y-103875000D01*
X75500000Y-102775000D02*
X74950000Y-102775000D01*
X75500000Y-102375000D02*
X75500000Y-102775000D01*
X75500000Y-102775000D02*
X75100000Y-103375000D01*
X75500000Y-102775000D02*
X76050000Y-102775000D01*
X75100000Y-103375000D02*
X75900000Y-103375000D01*
%TO.C,D25*%
X133000000Y-49250000D02*
X133000000Y-49750000D01*
X133000000Y-48650000D02*
X132600000Y-49250000D01*
X132600000Y-49250000D02*
X133400000Y-49250000D01*
X133000000Y-48250000D02*
X133000000Y-48650000D01*
X133000000Y-48650000D02*
X133550000Y-48650000D01*
X133000000Y-48650000D02*
X132450000Y-48650000D01*
X133400000Y-49250000D02*
X133000000Y-48650000D01*
%TO.C,D32*%
X151500000Y-85775000D02*
X152050000Y-85775000D01*
X151900000Y-86375000D02*
X151500000Y-85775000D01*
X151100000Y-86375000D02*
X151900000Y-86375000D01*
X151500000Y-85775000D02*
X150950000Y-85775000D01*
X151500000Y-86375000D02*
X151500000Y-86875000D01*
X151500000Y-85775000D02*
X151100000Y-86375000D01*
X151500000Y-85375000D02*
X151500000Y-85775000D01*
D12*
%TO.C,JP1*%
X145700000Y-23300000D02*
X147100000Y-23300000D01*
X147800000Y-22600000D02*
X147800000Y-22000000D01*
X147100000Y-21300000D02*
X145700000Y-21300000D01*
X145000000Y-22000000D02*
X145000000Y-22600000D01*
X145000000Y-22600000D02*
G75*
G03*
X145700000Y-23300000I699999J-1D01*
G01*
X147100000Y-23300000D02*
G75*
G03*
X147800000Y-22600000I0J700000D01*
G01*
X147800000Y-22000000D02*
G75*
G03*
X147100000Y-21300000I-700000J0D01*
G01*
X145700000Y-21300000D02*
G75*
G03*
X145000000Y-22000000I-1J-699999D01*
G01*
%TO.C,R2*%
X148802500Y-26229724D02*
X148802500Y-25720276D01*
X149847500Y-26229724D02*
X149847500Y-25720276D01*
D11*
%TO.C,D16*%
X94100000Y-63375000D02*
X94900000Y-63375000D01*
X94500000Y-62375000D02*
X94500000Y-62775000D01*
X94500000Y-62775000D02*
X93950000Y-62775000D01*
X94500000Y-62775000D02*
X94100000Y-63375000D01*
X94900000Y-63375000D02*
X94500000Y-62775000D01*
X94500000Y-62775000D02*
X95050000Y-62775000D01*
X94500000Y-63375000D02*
X94500000Y-63875000D01*
D10*
%TO.C,U2*%
X108970000Y-31110000D02*
X111510000Y-31110000D01*
X111510000Y-18410000D02*
X111510000Y-23490000D01*
X111510000Y-31110000D02*
X111510000Y-36190000D01*
X111510000Y-18410000D02*
X141990000Y-18410000D01*
X111510000Y-23490000D02*
X108970000Y-23490000D01*
X111510000Y-36190000D02*
X141990000Y-36190000D01*
X141990000Y-36190000D02*
X141990000Y-18410000D01*
X108970000Y-23490000D02*
X108970000Y-31110000D01*
D11*
%TO.C,D17*%
X94500000Y-81775000D02*
X94100000Y-82375000D01*
X94500000Y-81375000D02*
X94500000Y-81775000D01*
X94500000Y-82375000D02*
X94500000Y-82875000D01*
X94500000Y-81775000D02*
X95050000Y-81775000D01*
X94100000Y-82375000D02*
X94900000Y-82375000D01*
X94900000Y-82375000D02*
X94500000Y-81775000D01*
X94500000Y-81775000D02*
X93950000Y-81775000D01*
%TO.C,D24*%
X130500000Y-127650000D02*
X130100000Y-128250000D01*
X130100000Y-128250000D02*
X130900000Y-128250000D01*
X130500000Y-127650000D02*
X131050000Y-127650000D01*
X130500000Y-127650000D02*
X129950000Y-127650000D01*
X130500000Y-128250000D02*
X130500000Y-128750000D01*
X130500000Y-127250000D02*
X130500000Y-127650000D01*
X130900000Y-128250000D02*
X130500000Y-127650000D01*
%TO.C,D27*%
X132500000Y-85375000D02*
X132500000Y-85775000D01*
X132500000Y-85775000D02*
X131950000Y-85775000D01*
X132500000Y-85775000D02*
X133050000Y-85775000D01*
X132100000Y-86375000D02*
X132900000Y-86375000D01*
X132900000Y-86375000D02*
X132500000Y-85775000D01*
X132500000Y-85775000D02*
X132100000Y-86375000D01*
X132500000Y-86375000D02*
X132500000Y-86875000D01*
%TO.C,D15*%
X94500000Y-44650000D02*
X93950000Y-44650000D01*
X94500000Y-45250000D02*
X94500000Y-45750000D01*
X94900000Y-45250000D02*
X94500000Y-44650000D01*
X94500000Y-44250000D02*
X94500000Y-44650000D01*
X94500000Y-44650000D02*
X94100000Y-45250000D01*
X94500000Y-44650000D02*
X95050000Y-44650000D01*
X94100000Y-45250000D02*
X94900000Y-45250000D01*
D12*
%TO.C,JP2*%
X147800000Y-25350000D02*
X147800000Y-24750000D01*
X145700000Y-26050000D02*
X147100000Y-26050000D01*
X147100000Y-24050000D02*
X145700000Y-24050000D01*
X145000000Y-24750000D02*
X145000000Y-25350000D01*
X147800000Y-24750000D02*
G75*
G03*
X147100000Y-24050000I-700000J0D01*
G01*
X147100000Y-26050000D02*
G75*
G03*
X147800000Y-25350000I0J700000D01*
G01*
X145000000Y-25350000D02*
G75*
G03*
X145700000Y-26050000I699999J-1D01*
G01*
X145700000Y-24050000D02*
G75*
G03*
X145000000Y-24750000I-1J-699999D01*
G01*
D11*
%TO.C,D19*%
X95400000Y-120375000D02*
X95000000Y-119775000D01*
X95000000Y-119775000D02*
X94450000Y-119775000D01*
X95000000Y-120375000D02*
X95000000Y-120875000D01*
X94600000Y-120375000D02*
X95400000Y-120375000D01*
X95000000Y-119775000D02*
X95550000Y-119775000D01*
X95000000Y-119375000D02*
X95000000Y-119775000D01*
X95000000Y-119775000D02*
X94600000Y-120375000D01*
%TO.C,D22*%
X113500000Y-84375000D02*
X113500000Y-84875000D01*
X113500000Y-83775000D02*
X112950000Y-83775000D01*
X113900000Y-84375000D02*
X113500000Y-83775000D01*
X113500000Y-83375000D02*
X113500000Y-83775000D01*
X113100000Y-84375000D02*
X113900000Y-84375000D01*
X113500000Y-83775000D02*
X113100000Y-84375000D01*
X113500000Y-83775000D02*
X114050000Y-83775000D01*
%TO.C,D30*%
X151750000Y-48400000D02*
X151200000Y-48400000D01*
X151750000Y-49000000D02*
X151750000Y-49500000D01*
X151350000Y-49000000D02*
X152150000Y-49000000D01*
X151750000Y-48400000D02*
X151350000Y-49000000D01*
X152150000Y-49000000D02*
X151750000Y-48400000D01*
X151750000Y-48000000D02*
X151750000Y-48400000D01*
X151750000Y-48400000D02*
X152300000Y-48400000D01*
D12*
%TO.C,R1*%
X149822500Y-21070276D02*
X149822500Y-21579724D01*
X148777500Y-21070276D02*
X148777500Y-21579724D01*
D11*
%TO.C,D29*%
X151900000Y-128375000D02*
X151500000Y-127775000D01*
X151100000Y-128375000D02*
X151900000Y-128375000D01*
X151500000Y-128375000D02*
X151500000Y-128875000D01*
X151500000Y-127775000D02*
X152050000Y-127775000D01*
X151500000Y-127775000D02*
X150950000Y-127775000D01*
X151500000Y-127775000D02*
X151100000Y-128375000D01*
X151500000Y-127375000D02*
X151500000Y-127775000D01*
%TO.C,D33*%
X168000000Y-138150000D02*
X168550000Y-138150000D01*
X168000000Y-138750000D02*
X168000000Y-139250000D01*
X168000000Y-137750000D02*
X168000000Y-138150000D01*
X168000000Y-138150000D02*
X167600000Y-138750000D01*
X167600000Y-138750000D02*
X168400000Y-138750000D01*
X168400000Y-138750000D02*
X168000000Y-138150000D01*
X168000000Y-138150000D02*
X167450000Y-138150000D01*
%TO.C,D31*%
X151500000Y-67150000D02*
X150950000Y-67150000D01*
X151500000Y-67150000D02*
X151100000Y-67750000D01*
X151500000Y-67150000D02*
X152050000Y-67150000D01*
X151500000Y-67750000D02*
X151500000Y-68250000D01*
X151500000Y-66750000D02*
X151500000Y-67150000D01*
X151100000Y-67750000D02*
X151900000Y-67750000D01*
X151900000Y-67750000D02*
X151500000Y-67150000D01*
%TO.C,D11*%
X75500000Y-64750000D02*
X75500000Y-65150000D01*
X75100000Y-65750000D02*
X75900000Y-65750000D01*
X75500000Y-65150000D02*
X75100000Y-65750000D01*
X75900000Y-65750000D02*
X75500000Y-65150000D01*
X75500000Y-65750000D02*
X75500000Y-66250000D01*
X75500000Y-65150000D02*
X74950000Y-65150000D01*
X75500000Y-65150000D02*
X76050000Y-65150000D01*
%TO.C,D5*%
X56500000Y-51475000D02*
X56100000Y-52075000D01*
X56500000Y-51075000D02*
X56500000Y-51475000D01*
X56100000Y-52075000D02*
X56900000Y-52075000D01*
X56900000Y-52075000D02*
X56500000Y-51475000D01*
X56500000Y-51475000D02*
X57050000Y-51475000D01*
X56500000Y-52075000D02*
X56500000Y-52575000D01*
X56500000Y-51475000D02*
X55950000Y-51475000D01*
%TO.C,D14*%
X75500000Y-122150000D02*
X76050000Y-122150000D01*
X75900000Y-122750000D02*
X75500000Y-122150000D01*
X75500000Y-122150000D02*
X74950000Y-122150000D01*
X75100000Y-122750000D02*
X75900000Y-122750000D01*
X75500000Y-121750000D02*
X75500000Y-122150000D01*
X75500000Y-122150000D02*
X75100000Y-122750000D01*
X75500000Y-122750000D02*
X75500000Y-123250000D01*
%TO.C,D10*%
X75500000Y-46150000D02*
X74950000Y-46150000D01*
X75500000Y-45750000D02*
X75500000Y-46150000D01*
X75500000Y-46750000D02*
X75500000Y-47250000D01*
X75100000Y-46750000D02*
X75900000Y-46750000D01*
X75500000Y-46150000D02*
X75100000Y-46750000D01*
X75900000Y-46750000D02*
X75500000Y-46150000D01*
X75500000Y-46150000D02*
X76050000Y-46150000D01*
%TO.C,D18*%
X94500000Y-101750000D02*
X94500000Y-102250000D01*
X94500000Y-101150000D02*
X95050000Y-101150000D01*
X94100000Y-101750000D02*
X94900000Y-101750000D01*
X94500000Y-101150000D02*
X93950000Y-101150000D01*
X94500000Y-101150000D02*
X94100000Y-101750000D01*
X94900000Y-101750000D02*
X94500000Y-101150000D01*
X94500000Y-100750000D02*
X94500000Y-101150000D01*
%TO.C,D3*%
X37500000Y-108875000D02*
X37500000Y-109375000D01*
X37500000Y-108275000D02*
X36950000Y-108275000D01*
X37900000Y-108875000D02*
X37500000Y-108275000D01*
X37500000Y-108275000D02*
X37100000Y-108875000D01*
X37100000Y-108875000D02*
X37900000Y-108875000D01*
X37500000Y-107875000D02*
X37500000Y-108275000D01*
X37500000Y-108275000D02*
X38050000Y-108275000D01*
%TO.C,D1*%
X37500000Y-51425000D02*
X36950000Y-51425000D01*
X37500000Y-51425000D02*
X38050000Y-51425000D01*
X37500000Y-51025000D02*
X37500000Y-51425000D01*
X37500000Y-52025000D02*
X37500000Y-52525000D01*
X37900000Y-52025000D02*
X37500000Y-51425000D01*
X37500000Y-51425000D02*
X37100000Y-52025000D01*
X37100000Y-52025000D02*
X37900000Y-52025000D01*
%TO.C,D28*%
X132900000Y-105375000D02*
X132500000Y-104775000D01*
X132500000Y-104375000D02*
X132500000Y-104775000D01*
X132500000Y-104775000D02*
X131950000Y-104775000D01*
X132500000Y-105375000D02*
X132500000Y-105875000D01*
X132500000Y-104775000D02*
X132100000Y-105375000D01*
X132500000Y-104775000D02*
X133050000Y-104775000D01*
X132100000Y-105375000D02*
X132900000Y-105375000D01*
%TO.C,D26*%
X132900000Y-67375000D02*
X132500000Y-66775000D01*
X132100000Y-67375000D02*
X132900000Y-67375000D01*
X132500000Y-66775000D02*
X131950000Y-66775000D01*
X132500000Y-66775000D02*
X132100000Y-67375000D01*
X132500000Y-66775000D02*
X133050000Y-66775000D01*
X132500000Y-67375000D02*
X132500000Y-67875000D01*
X132500000Y-66375000D02*
X132500000Y-66775000D01*
%TO.C,D20*%
X113500000Y-46400000D02*
X112950000Y-46400000D01*
X113900000Y-47000000D02*
X113500000Y-46400000D01*
X113100000Y-47000000D02*
X113900000Y-47000000D01*
X113500000Y-46400000D02*
X114050000Y-46400000D01*
X113500000Y-47000000D02*
X113500000Y-47500000D01*
X113500000Y-46000000D02*
X113500000Y-46400000D01*
X113500000Y-46400000D02*
X113100000Y-47000000D01*
%TO.C,D4*%
X37500000Y-126775000D02*
X36950000Y-126775000D01*
X37500000Y-126775000D02*
X37100000Y-127375000D01*
X37100000Y-127375000D02*
X37900000Y-127375000D01*
X37900000Y-127375000D02*
X37500000Y-126775000D01*
X37500000Y-126775000D02*
X38050000Y-126775000D01*
X37500000Y-127375000D02*
X37500000Y-127875000D01*
X37500000Y-126375000D02*
X37500000Y-126775000D01*
%TO.C,D21*%
X113500000Y-64775000D02*
X113100000Y-65375000D01*
X113500000Y-64375000D02*
X113500000Y-64775000D01*
X113500000Y-64775000D02*
X114050000Y-64775000D01*
X113500000Y-65375000D02*
X113500000Y-65875000D01*
X113500000Y-64775000D02*
X112950000Y-64775000D01*
X113900000Y-65375000D02*
X113500000Y-64775000D01*
X113100000Y-65375000D02*
X113900000Y-65375000D01*
%TO.C,D8*%
X56500000Y-108875000D02*
X56500000Y-109375000D01*
X56100000Y-108875000D02*
X56900000Y-108875000D01*
X56500000Y-107875000D02*
X56500000Y-108275000D01*
X56500000Y-108275000D02*
X55950000Y-108275000D01*
X56500000Y-108275000D02*
X57050000Y-108275000D01*
X56900000Y-108875000D02*
X56500000Y-108275000D01*
X56500000Y-108275000D02*
X56100000Y-108875000D01*
%TO.C,D6*%
X56500000Y-70800000D02*
X57050000Y-70800000D01*
X56500000Y-70400000D02*
X56500000Y-70800000D01*
X56100000Y-71400000D02*
X56900000Y-71400000D01*
X56500000Y-70800000D02*
X55950000Y-70800000D01*
X56500000Y-71400000D02*
X56500000Y-71900000D01*
X56900000Y-71400000D02*
X56500000Y-70800000D01*
X56500000Y-70800000D02*
X56100000Y-71400000D01*
%TO.C,D7*%
X56500000Y-89150000D02*
X55950000Y-89150000D01*
X56900000Y-89750000D02*
X56500000Y-89150000D01*
X56500000Y-89150000D02*
X56100000Y-89750000D01*
X56500000Y-88750000D02*
X56500000Y-89150000D01*
X56100000Y-89750000D02*
X56900000Y-89750000D01*
X56500000Y-89750000D02*
X56500000Y-90250000D01*
X56500000Y-89150000D02*
X57050000Y-89150000D01*
%TD*%
M02*
