%TF.GenerationSoftware,KiCad,Pcbnew,6.0.11-2627ca5db0~126~ubuntu20.04.1*%
%TF.CreationDate,2023-03-30T17:12:58+02:00*%
%TF.ProjectId,ergodash-low,6572676f-6461-4736-982d-6c6f772e6b69,rev?*%
%TF.SameCoordinates,Original*%
%TF.FileFunction,Legend,Top*%
%TF.FilePolarity,Positive*%
%FSLAX46Y46*%
G04 Gerber Fmt 4.6, Leading zero omitted, Abs format (unit mm)*
G04 Created by KiCad (PCBNEW 6.0.11-2627ca5db0~126~ubuntu20.04.1) date 2023-03-30 17:12:58*
%MOMM*%
%LPD*%
G01*
G04 APERTURE LIST*
%ADD10C,0.150000*%
%ADD11C,0.120000*%
%ADD12C,0.100000*%
G04 APERTURE END LIST*
D10*
%TO.C,J2*%
X155902380Y-26256547D02*
X154902380Y-26256547D01*
X154902380Y-25875595D01*
X154950000Y-25780357D01*
X154997619Y-25732738D01*
X155092857Y-25685119D01*
X155235714Y-25685119D01*
X155330952Y-25732738D01*
X155378571Y-25780357D01*
X155426190Y-25875595D01*
X155426190Y-26256547D01*
X154902380Y-24970833D02*
X155616666Y-24970833D01*
X155759523Y-25018452D01*
X155854761Y-25113690D01*
X155902380Y-25256547D01*
X155902380Y-25351785D01*
X155521428Y-24494642D02*
X155521428Y-23732738D01*
X154902380Y-23351785D02*
X154902380Y-22732738D01*
X155283333Y-23066071D01*
X155283333Y-22923214D01*
X155330952Y-22827976D01*
X155378571Y-22780357D01*
X155473809Y-22732738D01*
X155711904Y-22732738D01*
X155807142Y-22780357D01*
X155854761Y-22827976D01*
X155902380Y-22923214D01*
X155902380Y-23208928D01*
X155854761Y-23304166D01*
X155807142Y-23351785D01*
X154997619Y-22351785D02*
X154950000Y-22304166D01*
X154902380Y-22208928D01*
X154902380Y-21970833D01*
X154950000Y-21875595D01*
X154997619Y-21827976D01*
X155092857Y-21780357D01*
X155188095Y-21780357D01*
X155330952Y-21827976D01*
X155902380Y-22399404D01*
X155902380Y-21780357D01*
X154902380Y-21161309D02*
X154902380Y-21066071D01*
X154950000Y-20970833D01*
X154997619Y-20923214D01*
X155092857Y-20875595D01*
X155283333Y-20827976D01*
X155521428Y-20827976D01*
X155711904Y-20875595D01*
X155807142Y-20923214D01*
X155854761Y-20970833D01*
X155902380Y-21066071D01*
X155902380Y-21161309D01*
X155854761Y-21256547D01*
X155807142Y-21304166D01*
X155711904Y-21351785D01*
X155521428Y-21399404D01*
X155283333Y-21399404D01*
X155092857Y-21351785D01*
X154997619Y-21304166D01*
X154950000Y-21256547D01*
X154902380Y-21161309D01*
X155616666Y-20447023D02*
X155616666Y-19970833D01*
X155902380Y-20542261D02*
X154902380Y-20208928D01*
X155902380Y-19875595D01*
%TO.C,SW7*%
X59666666Y-103404761D02*
X59809523Y-103452380D01*
X60047619Y-103452380D01*
X60142857Y-103404761D01*
X60190476Y-103357142D01*
X60238095Y-103261904D01*
X60238095Y-103166666D01*
X60190476Y-103071428D01*
X60142857Y-103023809D01*
X60047619Y-102976190D01*
X59857142Y-102928571D01*
X59761904Y-102880952D01*
X59714285Y-102833333D01*
X59666666Y-102738095D01*
X59666666Y-102642857D01*
X59714285Y-102547619D01*
X59761904Y-102500000D01*
X59857142Y-102452380D01*
X60095238Y-102452380D01*
X60238095Y-102500000D01*
X60571428Y-102452380D02*
X60809523Y-103452380D01*
X61000000Y-102738095D01*
X61190476Y-103452380D01*
X61428571Y-102452380D01*
X61714285Y-102452380D02*
X62380952Y-102452380D01*
X61952380Y-103452380D01*
%TO.C,SW1*%
X40666666Y-65404761D02*
X40809523Y-65452380D01*
X41047619Y-65452380D01*
X41142857Y-65404761D01*
X41190476Y-65357142D01*
X41238095Y-65261904D01*
X41238095Y-65166666D01*
X41190476Y-65071428D01*
X41142857Y-65023809D01*
X41047619Y-64976190D01*
X40857142Y-64928571D01*
X40761904Y-64880952D01*
X40714285Y-64833333D01*
X40666666Y-64738095D01*
X40666666Y-64642857D01*
X40714285Y-64547619D01*
X40761904Y-64500000D01*
X40857142Y-64452380D01*
X41095238Y-64452380D01*
X41238095Y-64500000D01*
X41571428Y-64452380D02*
X41809523Y-65452380D01*
X42000000Y-64738095D01*
X42190476Y-65452380D01*
X42428571Y-64452380D01*
X43333333Y-65452380D02*
X42761904Y-65452380D01*
X43047619Y-65452380D02*
X43047619Y-64452380D01*
X42952380Y-64595238D01*
X42857142Y-64690476D01*
X42761904Y-64738095D01*
%TO.C,SW3*%
X40666666Y-122404761D02*
X40809523Y-122452380D01*
X41047619Y-122452380D01*
X41142857Y-122404761D01*
X41190476Y-122357142D01*
X41238095Y-122261904D01*
X41238095Y-122166666D01*
X41190476Y-122071428D01*
X41142857Y-122023809D01*
X41047619Y-121976190D01*
X40857142Y-121928571D01*
X40761904Y-121880952D01*
X40714285Y-121833333D01*
X40666666Y-121738095D01*
X40666666Y-121642857D01*
X40714285Y-121547619D01*
X40761904Y-121500000D01*
X40857142Y-121452380D01*
X41095238Y-121452380D01*
X41238095Y-121500000D01*
X41571428Y-121452380D02*
X41809523Y-122452380D01*
X42000000Y-121738095D01*
X42190476Y-122452380D01*
X42428571Y-121452380D01*
X42714285Y-121452380D02*
X43333333Y-121452380D01*
X43000000Y-121833333D01*
X43142857Y-121833333D01*
X43238095Y-121880952D01*
X43285714Y-121928571D01*
X43333333Y-122023809D01*
X43333333Y-122261904D01*
X43285714Y-122357142D01*
X43238095Y-122404761D01*
X43142857Y-122452380D01*
X42857142Y-122452380D01*
X42761904Y-122404761D01*
X42714285Y-122357142D01*
%TO.C,SW21*%
X116190476Y-79404761D02*
X116333333Y-79452380D01*
X116571428Y-79452380D01*
X116666666Y-79404761D01*
X116714285Y-79357142D01*
X116761904Y-79261904D01*
X116761904Y-79166666D01*
X116714285Y-79071428D01*
X116666666Y-79023809D01*
X116571428Y-78976190D01*
X116380952Y-78928571D01*
X116285714Y-78880952D01*
X116238095Y-78833333D01*
X116190476Y-78738095D01*
X116190476Y-78642857D01*
X116238095Y-78547619D01*
X116285714Y-78500000D01*
X116380952Y-78452380D01*
X116619047Y-78452380D01*
X116761904Y-78500000D01*
X117095238Y-78452380D02*
X117333333Y-79452380D01*
X117523809Y-78738095D01*
X117714285Y-79452380D01*
X117952380Y-78452380D01*
X118285714Y-78547619D02*
X118333333Y-78500000D01*
X118428571Y-78452380D01*
X118666666Y-78452380D01*
X118761904Y-78500000D01*
X118809523Y-78547619D01*
X118857142Y-78642857D01*
X118857142Y-78738095D01*
X118809523Y-78880952D01*
X118238095Y-79452380D01*
X118857142Y-79452380D01*
X119809523Y-79452380D02*
X119238095Y-79452380D01*
X119523809Y-79452380D02*
X119523809Y-78452380D01*
X119428571Y-78595238D01*
X119333333Y-78690476D01*
X119238095Y-78738095D01*
%TO.C,SW15*%
X97190476Y-58404761D02*
X97333333Y-58452380D01*
X97571428Y-58452380D01*
X97666666Y-58404761D01*
X97714285Y-58357142D01*
X97761904Y-58261904D01*
X97761904Y-58166666D01*
X97714285Y-58071428D01*
X97666666Y-58023809D01*
X97571428Y-57976190D01*
X97380952Y-57928571D01*
X97285714Y-57880952D01*
X97238095Y-57833333D01*
X97190476Y-57738095D01*
X97190476Y-57642857D01*
X97238095Y-57547619D01*
X97285714Y-57500000D01*
X97380952Y-57452380D01*
X97619047Y-57452380D01*
X97761904Y-57500000D01*
X98095238Y-57452380D02*
X98333333Y-58452380D01*
X98523809Y-57738095D01*
X98714285Y-58452380D01*
X98952380Y-57452380D01*
X99857142Y-58452380D02*
X99285714Y-58452380D01*
X99571428Y-58452380D02*
X99571428Y-57452380D01*
X99476190Y-57595238D01*
X99380952Y-57690476D01*
X99285714Y-57738095D01*
X100761904Y-57452380D02*
X100285714Y-57452380D01*
X100238095Y-57928571D01*
X100285714Y-57880952D01*
X100380952Y-57833333D01*
X100619047Y-57833333D01*
X100714285Y-57880952D01*
X100761904Y-57928571D01*
X100809523Y-58023809D01*
X100809523Y-58261904D01*
X100761904Y-58357142D01*
X100714285Y-58404761D01*
X100619047Y-58452380D01*
X100380952Y-58452380D01*
X100285714Y-58404761D01*
X100238095Y-58357142D01*
%TO.C,SW11*%
X78190476Y-79404761D02*
X78333333Y-79452380D01*
X78571428Y-79452380D01*
X78666666Y-79404761D01*
X78714285Y-79357142D01*
X78761904Y-79261904D01*
X78761904Y-79166666D01*
X78714285Y-79071428D01*
X78666666Y-79023809D01*
X78571428Y-78976190D01*
X78380952Y-78928571D01*
X78285714Y-78880952D01*
X78238095Y-78833333D01*
X78190476Y-78738095D01*
X78190476Y-78642857D01*
X78238095Y-78547619D01*
X78285714Y-78500000D01*
X78380952Y-78452380D01*
X78619047Y-78452380D01*
X78761904Y-78500000D01*
X79095238Y-78452380D02*
X79333333Y-79452380D01*
X79523809Y-78738095D01*
X79714285Y-79452380D01*
X79952380Y-78452380D01*
X80857142Y-79452380D02*
X80285714Y-79452380D01*
X80571428Y-79452380D02*
X80571428Y-78452380D01*
X80476190Y-78595238D01*
X80380952Y-78690476D01*
X80285714Y-78738095D01*
X81809523Y-79452380D02*
X81238095Y-79452380D01*
X81523809Y-79452380D02*
X81523809Y-78452380D01*
X81428571Y-78595238D01*
X81333333Y-78690476D01*
X81238095Y-78738095D01*
%TO.C,SW32*%
X154190476Y-100404761D02*
X154333333Y-100452380D01*
X154571428Y-100452380D01*
X154666666Y-100404761D01*
X154714285Y-100357142D01*
X154761904Y-100261904D01*
X154761904Y-100166666D01*
X154714285Y-100071428D01*
X154666666Y-100023809D01*
X154571428Y-99976190D01*
X154380952Y-99928571D01*
X154285714Y-99880952D01*
X154238095Y-99833333D01*
X154190476Y-99738095D01*
X154190476Y-99642857D01*
X154238095Y-99547619D01*
X154285714Y-99500000D01*
X154380952Y-99452380D01*
X154619047Y-99452380D01*
X154761904Y-99500000D01*
X155095238Y-99452380D02*
X155333333Y-100452380D01*
X155523809Y-99738095D01*
X155714285Y-100452380D01*
X155952380Y-99452380D01*
X156238095Y-99452380D02*
X156857142Y-99452380D01*
X156523809Y-99833333D01*
X156666666Y-99833333D01*
X156761904Y-99880952D01*
X156809523Y-99928571D01*
X156857142Y-100023809D01*
X156857142Y-100261904D01*
X156809523Y-100357142D01*
X156761904Y-100404761D01*
X156666666Y-100452380D01*
X156380952Y-100452380D01*
X156285714Y-100404761D01*
X156238095Y-100357142D01*
X157238095Y-99547619D02*
X157285714Y-99500000D01*
X157380952Y-99452380D01*
X157619047Y-99452380D01*
X157714285Y-99500000D01*
X157761904Y-99547619D01*
X157809523Y-99642857D01*
X157809523Y-99738095D01*
X157761904Y-99880952D01*
X157190476Y-100452380D01*
X157809523Y-100452380D01*
%TO.C,SW29*%
X146730525Y-144106026D02*
X146830433Y-144218694D01*
X147036630Y-144337741D01*
X147142918Y-144344121D01*
X147207967Y-144326691D01*
X147296825Y-144268022D01*
X147344444Y-144185543D01*
X147350824Y-144079255D01*
X147333394Y-144014206D01*
X147274725Y-143925348D01*
X147133577Y-143788871D01*
X147074908Y-143700012D01*
X147057479Y-143634964D01*
X147063858Y-143528675D01*
X147111477Y-143446197D01*
X147200336Y-143387528D01*
X147265385Y-143370098D01*
X147371673Y-143376478D01*
X147577869Y-143495525D01*
X147677778Y-143608193D01*
X147990262Y-143733621D02*
X147696459Y-144718694D01*
X148218559Y-144195342D01*
X148026373Y-144909170D01*
X148732570Y-144162192D01*
X148973626Y-144411337D02*
X149038675Y-144393907D01*
X149144963Y-144400287D01*
X149351159Y-144519335D01*
X149409828Y-144608193D01*
X149427258Y-144673242D01*
X149420878Y-144779530D01*
X149373259Y-144862009D01*
X149260591Y-144961917D01*
X148480006Y-145171075D01*
X149016117Y-145480598D01*
X149428510Y-145718694D02*
X149593467Y-145813932D01*
X149699755Y-145820311D01*
X149764804Y-145802882D01*
X149918711Y-145726783D01*
X150055188Y-145585635D01*
X150245665Y-145255721D01*
X150252044Y-145149432D01*
X150234614Y-145084384D01*
X150175945Y-144995525D01*
X150010988Y-144900287D01*
X149904700Y-144893907D01*
X149839651Y-144911337D01*
X149750793Y-144970006D01*
X149631745Y-145176203D01*
X149625365Y-145282491D01*
X149642795Y-145347540D01*
X149701464Y-145436398D01*
X149866422Y-145531636D01*
X149972710Y-145538016D01*
X150037759Y-145520586D01*
X150126617Y-145461917D01*
%TO.C,SW25*%
X135190476Y-62404761D02*
X135333333Y-62452380D01*
X135571428Y-62452380D01*
X135666666Y-62404761D01*
X135714285Y-62357142D01*
X135761904Y-62261904D01*
X135761904Y-62166666D01*
X135714285Y-62071428D01*
X135666666Y-62023809D01*
X135571428Y-61976190D01*
X135380952Y-61928571D01*
X135285714Y-61880952D01*
X135238095Y-61833333D01*
X135190476Y-61738095D01*
X135190476Y-61642857D01*
X135238095Y-61547619D01*
X135285714Y-61500000D01*
X135380952Y-61452380D01*
X135619047Y-61452380D01*
X135761904Y-61500000D01*
X136095238Y-61452380D02*
X136333333Y-62452380D01*
X136523809Y-61738095D01*
X136714285Y-62452380D01*
X136952380Y-61452380D01*
X137285714Y-61547619D02*
X137333333Y-61500000D01*
X137428571Y-61452380D01*
X137666666Y-61452380D01*
X137761904Y-61500000D01*
X137809523Y-61547619D01*
X137857142Y-61642857D01*
X137857142Y-61738095D01*
X137809523Y-61880952D01*
X137238095Y-62452380D01*
X137857142Y-62452380D01*
X138761904Y-61452380D02*
X138285714Y-61452380D01*
X138238095Y-61928571D01*
X138285714Y-61880952D01*
X138380952Y-61833333D01*
X138619047Y-61833333D01*
X138714285Y-61880952D01*
X138761904Y-61928571D01*
X138809523Y-62023809D01*
X138809523Y-62261904D01*
X138761904Y-62357142D01*
X138714285Y-62404761D01*
X138619047Y-62452380D01*
X138380952Y-62452380D01*
X138285714Y-62404761D01*
X138238095Y-62357142D01*
%TO.C,SW14*%
X78190476Y-136404761D02*
X78333333Y-136452380D01*
X78571428Y-136452380D01*
X78666666Y-136404761D01*
X78714285Y-136357142D01*
X78761904Y-136261904D01*
X78761904Y-136166666D01*
X78714285Y-136071428D01*
X78666666Y-136023809D01*
X78571428Y-135976190D01*
X78380952Y-135928571D01*
X78285714Y-135880952D01*
X78238095Y-135833333D01*
X78190476Y-135738095D01*
X78190476Y-135642857D01*
X78238095Y-135547619D01*
X78285714Y-135500000D01*
X78380952Y-135452380D01*
X78619047Y-135452380D01*
X78761904Y-135500000D01*
X79095238Y-135452380D02*
X79333333Y-136452380D01*
X79523809Y-135738095D01*
X79714285Y-136452380D01*
X79952380Y-135452380D01*
X80857142Y-136452380D02*
X80285714Y-136452380D01*
X80571428Y-136452380D02*
X80571428Y-135452380D01*
X80476190Y-135595238D01*
X80380952Y-135690476D01*
X80285714Y-135738095D01*
X81714285Y-135785714D02*
X81714285Y-136452380D01*
X81476190Y-135404761D02*
X81238095Y-136119047D01*
X81857142Y-136119047D01*
%TO.C,SW24*%
X125730525Y-142106026D02*
X125830433Y-142218694D01*
X126036630Y-142337741D01*
X126142918Y-142344121D01*
X126207967Y-142326691D01*
X126296825Y-142268022D01*
X126344444Y-142185543D01*
X126350824Y-142079255D01*
X126333394Y-142014206D01*
X126274725Y-141925348D01*
X126133577Y-141788871D01*
X126074908Y-141700012D01*
X126057479Y-141634964D01*
X126063858Y-141528675D01*
X126111477Y-141446197D01*
X126200336Y-141387528D01*
X126265385Y-141370098D01*
X126371673Y-141376478D01*
X126577869Y-141495525D01*
X126677778Y-141608193D01*
X126990262Y-141733621D02*
X126696459Y-142718694D01*
X127218559Y-142195342D01*
X127026373Y-142909170D01*
X127732570Y-142162192D01*
X127973626Y-142411337D02*
X128038675Y-142393907D01*
X128144963Y-142400287D01*
X128351159Y-142519335D01*
X128409828Y-142608193D01*
X128427258Y-142673242D01*
X128420878Y-142779530D01*
X128373259Y-142862009D01*
X128260591Y-142961917D01*
X127480006Y-143171075D01*
X128016117Y-143480598D01*
X129091757Y-143331819D02*
X128758424Y-143909170D01*
X129076037Y-142882857D02*
X128512698Y-143382399D01*
X129048809Y-143691923D01*
%TO.C,H6*%
X74438095Y-32752380D02*
X74438095Y-31752380D01*
X74438095Y-32228571D02*
X75009523Y-32228571D01*
X75009523Y-32752380D02*
X75009523Y-31752380D01*
X75914285Y-31752380D02*
X75723809Y-31752380D01*
X75628571Y-31800000D01*
X75580952Y-31847619D01*
X75485714Y-31990476D01*
X75438095Y-32180952D01*
X75438095Y-32561904D01*
X75485714Y-32657142D01*
X75533333Y-32704761D01*
X75628571Y-32752380D01*
X75819047Y-32752380D01*
X75914285Y-32704761D01*
X75961904Y-32657142D01*
X76009523Y-32561904D01*
X76009523Y-32323809D01*
X75961904Y-32228571D01*
X75914285Y-32180952D01*
X75819047Y-32133333D01*
X75628571Y-32133333D01*
X75533333Y-32180952D01*
X75485714Y-32228571D01*
X75438095Y-32323809D01*
%TO.C,SW8*%
X59666666Y-122404761D02*
X59809523Y-122452380D01*
X60047619Y-122452380D01*
X60142857Y-122404761D01*
X60190476Y-122357142D01*
X60238095Y-122261904D01*
X60238095Y-122166666D01*
X60190476Y-122071428D01*
X60142857Y-122023809D01*
X60047619Y-121976190D01*
X59857142Y-121928571D01*
X59761904Y-121880952D01*
X59714285Y-121833333D01*
X59666666Y-121738095D01*
X59666666Y-121642857D01*
X59714285Y-121547619D01*
X59761904Y-121500000D01*
X59857142Y-121452380D01*
X60095238Y-121452380D01*
X60238095Y-121500000D01*
X60571428Y-121452380D02*
X60809523Y-122452380D01*
X61000000Y-121738095D01*
X61190476Y-122452380D01*
X61428571Y-121452380D01*
X61952380Y-121880952D02*
X61857142Y-121833333D01*
X61809523Y-121785714D01*
X61761904Y-121690476D01*
X61761904Y-121642857D01*
X61809523Y-121547619D01*
X61857142Y-121500000D01*
X61952380Y-121452380D01*
X62142857Y-121452380D01*
X62238095Y-121500000D01*
X62285714Y-121547619D01*
X62333333Y-121642857D01*
X62333333Y-121690476D01*
X62285714Y-121785714D01*
X62238095Y-121833333D01*
X62142857Y-121880952D01*
X61952380Y-121880952D01*
X61857142Y-121928571D01*
X61809523Y-121976190D01*
X61761904Y-122071428D01*
X61761904Y-122261904D01*
X61809523Y-122357142D01*
X61857142Y-122404761D01*
X61952380Y-122452380D01*
X62142857Y-122452380D01*
X62238095Y-122404761D01*
X62285714Y-122357142D01*
X62333333Y-122261904D01*
X62333333Y-122071428D01*
X62285714Y-121976190D01*
X62238095Y-121928571D01*
X62142857Y-121880952D01*
%TO.C,SW33*%
X163230525Y-153606026D02*
X163330433Y-153718694D01*
X163536630Y-153837741D01*
X163642918Y-153844121D01*
X163707967Y-153826691D01*
X163796825Y-153768022D01*
X163844444Y-153685543D01*
X163850824Y-153579255D01*
X163833394Y-153514206D01*
X163774725Y-153425348D01*
X163633577Y-153288871D01*
X163574908Y-153200012D01*
X163557479Y-153134964D01*
X163563858Y-153028675D01*
X163611477Y-152946197D01*
X163700336Y-152887528D01*
X163765385Y-152870098D01*
X163871673Y-152876478D01*
X164077869Y-152995525D01*
X164177778Y-153108193D01*
X164490262Y-153233621D02*
X164196459Y-154218694D01*
X164718559Y-153695342D01*
X164526373Y-154409170D01*
X165232570Y-153662192D01*
X165480006Y-153805049D02*
X166016117Y-154114573D01*
X165536965Y-154277821D01*
X165660683Y-154349249D01*
X165719352Y-154438108D01*
X165736782Y-154503156D01*
X165730402Y-154609445D01*
X165611355Y-154815641D01*
X165522496Y-154874310D01*
X165457447Y-154891740D01*
X165351159Y-154885360D01*
X165103723Y-154742503D01*
X165045054Y-154653645D01*
X165027625Y-154588596D01*
X166304792Y-154281240D02*
X166840903Y-154590763D01*
X166361751Y-154754011D01*
X166485469Y-154825440D01*
X166544138Y-154914298D01*
X166561568Y-154979347D01*
X166555188Y-155085635D01*
X166436141Y-155291832D01*
X166347282Y-155350501D01*
X166282234Y-155367930D01*
X166175945Y-155361551D01*
X165928510Y-155218694D01*
X165869840Y-155129835D01*
X165852411Y-155064786D01*
%TO.C,SW16*%
X97190476Y-77404761D02*
X97333333Y-77452380D01*
X97571428Y-77452380D01*
X97666666Y-77404761D01*
X97714285Y-77357142D01*
X97761904Y-77261904D01*
X97761904Y-77166666D01*
X97714285Y-77071428D01*
X97666666Y-77023809D01*
X97571428Y-76976190D01*
X97380952Y-76928571D01*
X97285714Y-76880952D01*
X97238095Y-76833333D01*
X97190476Y-76738095D01*
X97190476Y-76642857D01*
X97238095Y-76547619D01*
X97285714Y-76500000D01*
X97380952Y-76452380D01*
X97619047Y-76452380D01*
X97761904Y-76500000D01*
X98095238Y-76452380D02*
X98333333Y-77452380D01*
X98523809Y-76738095D01*
X98714285Y-77452380D01*
X98952380Y-76452380D01*
X99857142Y-77452380D02*
X99285714Y-77452380D01*
X99571428Y-77452380D02*
X99571428Y-76452380D01*
X99476190Y-76595238D01*
X99380952Y-76690476D01*
X99285714Y-76738095D01*
X100714285Y-76452380D02*
X100523809Y-76452380D01*
X100428571Y-76500000D01*
X100380952Y-76547619D01*
X100285714Y-76690476D01*
X100238095Y-76880952D01*
X100238095Y-77261904D01*
X100285714Y-77357142D01*
X100333333Y-77404761D01*
X100428571Y-77452380D01*
X100619047Y-77452380D01*
X100714285Y-77404761D01*
X100761904Y-77357142D01*
X100809523Y-77261904D01*
X100809523Y-77023809D01*
X100761904Y-76928571D01*
X100714285Y-76880952D01*
X100619047Y-76833333D01*
X100428571Y-76833333D01*
X100333333Y-76880952D01*
X100285714Y-76928571D01*
X100238095Y-77023809D01*
%TO.C,SW31*%
X154190476Y-81404761D02*
X154333333Y-81452380D01*
X154571428Y-81452380D01*
X154666666Y-81404761D01*
X154714285Y-81357142D01*
X154761904Y-81261904D01*
X154761904Y-81166666D01*
X154714285Y-81071428D01*
X154666666Y-81023809D01*
X154571428Y-80976190D01*
X154380952Y-80928571D01*
X154285714Y-80880952D01*
X154238095Y-80833333D01*
X154190476Y-80738095D01*
X154190476Y-80642857D01*
X154238095Y-80547619D01*
X154285714Y-80500000D01*
X154380952Y-80452380D01*
X154619047Y-80452380D01*
X154761904Y-80500000D01*
X155095238Y-80452380D02*
X155333333Y-81452380D01*
X155523809Y-80738095D01*
X155714285Y-81452380D01*
X155952380Y-80452380D01*
X156238095Y-80452380D02*
X156857142Y-80452380D01*
X156523809Y-80833333D01*
X156666666Y-80833333D01*
X156761904Y-80880952D01*
X156809523Y-80928571D01*
X156857142Y-81023809D01*
X156857142Y-81261904D01*
X156809523Y-81357142D01*
X156761904Y-81404761D01*
X156666666Y-81452380D01*
X156380952Y-81452380D01*
X156285714Y-81404761D01*
X156238095Y-81357142D01*
X157809523Y-81452380D02*
X157238095Y-81452380D01*
X157523809Y-81452380D02*
X157523809Y-80452380D01*
X157428571Y-80595238D01*
X157333333Y-80690476D01*
X157238095Y-80738095D01*
%TO.C,SW9*%
X59666666Y-141404761D02*
X59809523Y-141452380D01*
X60047619Y-141452380D01*
X60142857Y-141404761D01*
X60190476Y-141357142D01*
X60238095Y-141261904D01*
X60238095Y-141166666D01*
X60190476Y-141071428D01*
X60142857Y-141023809D01*
X60047619Y-140976190D01*
X59857142Y-140928571D01*
X59761904Y-140880952D01*
X59714285Y-140833333D01*
X59666666Y-140738095D01*
X59666666Y-140642857D01*
X59714285Y-140547619D01*
X59761904Y-140500000D01*
X59857142Y-140452380D01*
X60095238Y-140452380D01*
X60238095Y-140500000D01*
X60571428Y-140452380D02*
X60809523Y-141452380D01*
X61000000Y-140738095D01*
X61190476Y-141452380D01*
X61428571Y-140452380D01*
X61857142Y-141452380D02*
X62047619Y-141452380D01*
X62142857Y-141404761D01*
X62190476Y-141357142D01*
X62285714Y-141214285D01*
X62333333Y-141023809D01*
X62333333Y-140642857D01*
X62285714Y-140547619D01*
X62238095Y-140500000D01*
X62142857Y-140452380D01*
X61952380Y-140452380D01*
X61857142Y-140500000D01*
X61809523Y-140547619D01*
X61761904Y-140642857D01*
X61761904Y-140880952D01*
X61809523Y-140976190D01*
X61857142Y-141023809D01*
X61952380Y-141071428D01*
X62142857Y-141071428D01*
X62238095Y-141023809D01*
X62285714Y-140976190D01*
X62333333Y-140880952D01*
%TO.C,H3*%
X24938095Y-133852380D02*
X24938095Y-132852380D01*
X24938095Y-133328571D02*
X25509523Y-133328571D01*
X25509523Y-133852380D02*
X25509523Y-132852380D01*
X25890476Y-132852380D02*
X26509523Y-132852380D01*
X26176190Y-133233333D01*
X26319047Y-133233333D01*
X26414285Y-133280952D01*
X26461904Y-133328571D01*
X26509523Y-133423809D01*
X26509523Y-133661904D01*
X26461904Y-133757142D01*
X26414285Y-133804761D01*
X26319047Y-133852380D01*
X26033333Y-133852380D01*
X25938095Y-133804761D01*
X25890476Y-133757142D01*
%TO.C,H1*%
X25438095Y-53152380D02*
X25438095Y-52152380D01*
X25438095Y-52628571D02*
X26009523Y-52628571D01*
X26009523Y-53152380D02*
X26009523Y-52152380D01*
X27009523Y-53152380D02*
X26438095Y-53152380D01*
X26723809Y-53152380D02*
X26723809Y-52152380D01*
X26628571Y-52295238D01*
X26533333Y-52390476D01*
X26438095Y-52438095D01*
%TO.C,SW6*%
X59666666Y-84404761D02*
X59809523Y-84452380D01*
X60047619Y-84452380D01*
X60142857Y-84404761D01*
X60190476Y-84357142D01*
X60238095Y-84261904D01*
X60238095Y-84166666D01*
X60190476Y-84071428D01*
X60142857Y-84023809D01*
X60047619Y-83976190D01*
X59857142Y-83928571D01*
X59761904Y-83880952D01*
X59714285Y-83833333D01*
X59666666Y-83738095D01*
X59666666Y-83642857D01*
X59714285Y-83547619D01*
X59761904Y-83500000D01*
X59857142Y-83452380D01*
X60095238Y-83452380D01*
X60238095Y-83500000D01*
X60571428Y-83452380D02*
X60809523Y-84452380D01*
X61000000Y-83738095D01*
X61190476Y-84452380D01*
X61428571Y-83452380D01*
X62238095Y-83452380D02*
X62047619Y-83452380D01*
X61952380Y-83500000D01*
X61904761Y-83547619D01*
X61809523Y-83690476D01*
X61761904Y-83880952D01*
X61761904Y-84261904D01*
X61809523Y-84357142D01*
X61857142Y-84404761D01*
X61952380Y-84452380D01*
X62142857Y-84452380D01*
X62238095Y-84404761D01*
X62285714Y-84357142D01*
X62333333Y-84261904D01*
X62333333Y-84023809D01*
X62285714Y-83928571D01*
X62238095Y-83880952D01*
X62142857Y-83833333D01*
X61952380Y-83833333D01*
X61857142Y-83880952D01*
X61809523Y-83928571D01*
X61761904Y-84023809D01*
%TO.C,SW27*%
X135190476Y-100404761D02*
X135333333Y-100452380D01*
X135571428Y-100452380D01*
X135666666Y-100404761D01*
X135714285Y-100357142D01*
X135761904Y-100261904D01*
X135761904Y-100166666D01*
X135714285Y-100071428D01*
X135666666Y-100023809D01*
X135571428Y-99976190D01*
X135380952Y-99928571D01*
X135285714Y-99880952D01*
X135238095Y-99833333D01*
X135190476Y-99738095D01*
X135190476Y-99642857D01*
X135238095Y-99547619D01*
X135285714Y-99500000D01*
X135380952Y-99452380D01*
X135619047Y-99452380D01*
X135761904Y-99500000D01*
X136095238Y-99452380D02*
X136333333Y-100452380D01*
X136523809Y-99738095D01*
X136714285Y-100452380D01*
X136952380Y-99452380D01*
X137285714Y-99547619D02*
X137333333Y-99500000D01*
X137428571Y-99452380D01*
X137666666Y-99452380D01*
X137761904Y-99500000D01*
X137809523Y-99547619D01*
X137857142Y-99642857D01*
X137857142Y-99738095D01*
X137809523Y-99880952D01*
X137238095Y-100452380D01*
X137857142Y-100452380D01*
X138190476Y-99452380D02*
X138857142Y-99452380D01*
X138428571Y-100452380D01*
%TO.C,SW5*%
X59666666Y-65404761D02*
X59809523Y-65452380D01*
X60047619Y-65452380D01*
X60142857Y-65404761D01*
X60190476Y-65357142D01*
X60238095Y-65261904D01*
X60238095Y-65166666D01*
X60190476Y-65071428D01*
X60142857Y-65023809D01*
X60047619Y-64976190D01*
X59857142Y-64928571D01*
X59761904Y-64880952D01*
X59714285Y-64833333D01*
X59666666Y-64738095D01*
X59666666Y-64642857D01*
X59714285Y-64547619D01*
X59761904Y-64500000D01*
X59857142Y-64452380D01*
X60095238Y-64452380D01*
X60238095Y-64500000D01*
X60571428Y-64452380D02*
X60809523Y-65452380D01*
X61000000Y-64738095D01*
X61190476Y-65452380D01*
X61428571Y-64452380D01*
X62285714Y-64452380D02*
X61809523Y-64452380D01*
X61761904Y-64928571D01*
X61809523Y-64880952D01*
X61904761Y-64833333D01*
X62142857Y-64833333D01*
X62238095Y-64880952D01*
X62285714Y-64928571D01*
X62333333Y-65023809D01*
X62333333Y-65261904D01*
X62285714Y-65357142D01*
X62238095Y-65404761D01*
X62142857Y-65452380D01*
X61904761Y-65452380D01*
X61809523Y-65404761D01*
X61761904Y-65357142D01*
%TO.C,SW28*%
X135190476Y-119404761D02*
X135333333Y-119452380D01*
X135571428Y-119452380D01*
X135666666Y-119404761D01*
X135714285Y-119357142D01*
X135761904Y-119261904D01*
X135761904Y-119166666D01*
X135714285Y-119071428D01*
X135666666Y-119023809D01*
X135571428Y-118976190D01*
X135380952Y-118928571D01*
X135285714Y-118880952D01*
X135238095Y-118833333D01*
X135190476Y-118738095D01*
X135190476Y-118642857D01*
X135238095Y-118547619D01*
X135285714Y-118500000D01*
X135380952Y-118452380D01*
X135619047Y-118452380D01*
X135761904Y-118500000D01*
X136095238Y-118452380D02*
X136333333Y-119452380D01*
X136523809Y-118738095D01*
X136714285Y-119452380D01*
X136952380Y-118452380D01*
X137285714Y-118547619D02*
X137333333Y-118500000D01*
X137428571Y-118452380D01*
X137666666Y-118452380D01*
X137761904Y-118500000D01*
X137809523Y-118547619D01*
X137857142Y-118642857D01*
X137857142Y-118738095D01*
X137809523Y-118880952D01*
X137238095Y-119452380D01*
X137857142Y-119452380D01*
X138428571Y-118880952D02*
X138333333Y-118833333D01*
X138285714Y-118785714D01*
X138238095Y-118690476D01*
X138238095Y-118642857D01*
X138285714Y-118547619D01*
X138333333Y-118500000D01*
X138428571Y-118452380D01*
X138619047Y-118452380D01*
X138714285Y-118500000D01*
X138761904Y-118547619D01*
X138809523Y-118642857D01*
X138809523Y-118690476D01*
X138761904Y-118785714D01*
X138714285Y-118833333D01*
X138619047Y-118880952D01*
X138428571Y-118880952D01*
X138333333Y-118928571D01*
X138285714Y-118976190D01*
X138238095Y-119071428D01*
X138238095Y-119261904D01*
X138285714Y-119357142D01*
X138333333Y-119404761D01*
X138428571Y-119452380D01*
X138619047Y-119452380D01*
X138714285Y-119404761D01*
X138761904Y-119357142D01*
X138809523Y-119261904D01*
X138809523Y-119071428D01*
X138761904Y-118976190D01*
X138714285Y-118928571D01*
X138619047Y-118880952D01*
%TO.C,J1*%
X149066666Y-32652380D02*
X149066666Y-33366666D01*
X149019047Y-33509523D01*
X148923809Y-33604761D01*
X148780952Y-33652380D01*
X148685714Y-33652380D01*
X150066666Y-33652380D02*
X149495238Y-33652380D01*
X149780952Y-33652380D02*
X149780952Y-32652380D01*
X149685714Y-32795238D01*
X149590476Y-32890476D01*
X149495238Y-32938095D01*
%TO.C,H2*%
X171138095Y-50052380D02*
X171138095Y-49052380D01*
X171138095Y-49528571D02*
X171709523Y-49528571D01*
X171709523Y-50052380D02*
X171709523Y-49052380D01*
X172138095Y-49147619D02*
X172185714Y-49100000D01*
X172280952Y-49052380D01*
X172519047Y-49052380D01*
X172614285Y-49100000D01*
X172661904Y-49147619D01*
X172709523Y-49242857D01*
X172709523Y-49338095D01*
X172661904Y-49480952D01*
X172090476Y-50052380D01*
X172709523Y-50052380D01*
%TO.C,SW4*%
X40616666Y-141404761D02*
X40759523Y-141452380D01*
X40997619Y-141452380D01*
X41092857Y-141404761D01*
X41140476Y-141357142D01*
X41188095Y-141261904D01*
X41188095Y-141166666D01*
X41140476Y-141071428D01*
X41092857Y-141023809D01*
X40997619Y-140976190D01*
X40807142Y-140928571D01*
X40711904Y-140880952D01*
X40664285Y-140833333D01*
X40616666Y-140738095D01*
X40616666Y-140642857D01*
X40664285Y-140547619D01*
X40711904Y-140500000D01*
X40807142Y-140452380D01*
X41045238Y-140452380D01*
X41188095Y-140500000D01*
X41521428Y-140452380D02*
X41759523Y-141452380D01*
X41950000Y-140738095D01*
X42140476Y-141452380D01*
X42378571Y-140452380D01*
X43188095Y-140785714D02*
X43188095Y-141452380D01*
X42950000Y-140404761D02*
X42711904Y-141119047D01*
X43330952Y-141119047D01*
%TO.C,SW19*%
X97290476Y-134404761D02*
X97433333Y-134452380D01*
X97671428Y-134452380D01*
X97766666Y-134404761D01*
X97814285Y-134357142D01*
X97861904Y-134261904D01*
X97861904Y-134166666D01*
X97814285Y-134071428D01*
X97766666Y-134023809D01*
X97671428Y-133976190D01*
X97480952Y-133928571D01*
X97385714Y-133880952D01*
X97338095Y-133833333D01*
X97290476Y-133738095D01*
X97290476Y-133642857D01*
X97338095Y-133547619D01*
X97385714Y-133500000D01*
X97480952Y-133452380D01*
X97719047Y-133452380D01*
X97861904Y-133500000D01*
X98195238Y-133452380D02*
X98433333Y-134452380D01*
X98623809Y-133738095D01*
X98814285Y-134452380D01*
X99052380Y-133452380D01*
X99957142Y-134452380D02*
X99385714Y-134452380D01*
X99671428Y-134452380D02*
X99671428Y-133452380D01*
X99576190Y-133595238D01*
X99480952Y-133690476D01*
X99385714Y-133738095D01*
X100433333Y-134452380D02*
X100623809Y-134452380D01*
X100719047Y-134404761D01*
X100766666Y-134357142D01*
X100861904Y-134214285D01*
X100909523Y-134023809D01*
X100909523Y-133642857D01*
X100861904Y-133547619D01*
X100814285Y-133500000D01*
X100719047Y-133452380D01*
X100528571Y-133452380D01*
X100433333Y-133500000D01*
X100385714Y-133547619D01*
X100338095Y-133642857D01*
X100338095Y-133880952D01*
X100385714Y-133976190D01*
X100433333Y-134023809D01*
X100528571Y-134071428D01*
X100719047Y-134071428D01*
X100814285Y-134023809D01*
X100861904Y-133976190D01*
X100909523Y-133880952D01*
%TO.C,SW26*%
X135190476Y-81404761D02*
X135333333Y-81452380D01*
X135571428Y-81452380D01*
X135666666Y-81404761D01*
X135714285Y-81357142D01*
X135761904Y-81261904D01*
X135761904Y-81166666D01*
X135714285Y-81071428D01*
X135666666Y-81023809D01*
X135571428Y-80976190D01*
X135380952Y-80928571D01*
X135285714Y-80880952D01*
X135238095Y-80833333D01*
X135190476Y-80738095D01*
X135190476Y-80642857D01*
X135238095Y-80547619D01*
X135285714Y-80500000D01*
X135380952Y-80452380D01*
X135619047Y-80452380D01*
X135761904Y-80500000D01*
X136095238Y-80452380D02*
X136333333Y-81452380D01*
X136523809Y-80738095D01*
X136714285Y-81452380D01*
X136952380Y-80452380D01*
X137285714Y-80547619D02*
X137333333Y-80500000D01*
X137428571Y-80452380D01*
X137666666Y-80452380D01*
X137761904Y-80500000D01*
X137809523Y-80547619D01*
X137857142Y-80642857D01*
X137857142Y-80738095D01*
X137809523Y-80880952D01*
X137238095Y-81452380D01*
X137857142Y-81452380D01*
X138714285Y-80452380D02*
X138523809Y-80452380D01*
X138428571Y-80500000D01*
X138380952Y-80547619D01*
X138285714Y-80690476D01*
X138238095Y-80880952D01*
X138238095Y-81261904D01*
X138285714Y-81357142D01*
X138333333Y-81404761D01*
X138428571Y-81452380D01*
X138619047Y-81452380D01*
X138714285Y-81404761D01*
X138761904Y-81357142D01*
X138809523Y-81261904D01*
X138809523Y-81023809D01*
X138761904Y-80928571D01*
X138714285Y-80880952D01*
X138619047Y-80833333D01*
X138428571Y-80833333D01*
X138333333Y-80880952D01*
X138285714Y-80928571D01*
X138238095Y-81023809D01*
%TO.C,SW17*%
X97190476Y-96404761D02*
X97333333Y-96452380D01*
X97571428Y-96452380D01*
X97666666Y-96404761D01*
X97714285Y-96357142D01*
X97761904Y-96261904D01*
X97761904Y-96166666D01*
X97714285Y-96071428D01*
X97666666Y-96023809D01*
X97571428Y-95976190D01*
X97380952Y-95928571D01*
X97285714Y-95880952D01*
X97238095Y-95833333D01*
X97190476Y-95738095D01*
X97190476Y-95642857D01*
X97238095Y-95547619D01*
X97285714Y-95500000D01*
X97380952Y-95452380D01*
X97619047Y-95452380D01*
X97761904Y-95500000D01*
X98095238Y-95452380D02*
X98333333Y-96452380D01*
X98523809Y-95738095D01*
X98714285Y-96452380D01*
X98952380Y-95452380D01*
X99857142Y-96452380D02*
X99285714Y-96452380D01*
X99571428Y-96452380D02*
X99571428Y-95452380D01*
X99476190Y-95595238D01*
X99380952Y-95690476D01*
X99285714Y-95738095D01*
X100190476Y-95452380D02*
X100857142Y-95452380D01*
X100428571Y-96452380D01*
%TO.C,SW12*%
X78190476Y-98404761D02*
X78333333Y-98452380D01*
X78571428Y-98452380D01*
X78666666Y-98404761D01*
X78714285Y-98357142D01*
X78761904Y-98261904D01*
X78761904Y-98166666D01*
X78714285Y-98071428D01*
X78666666Y-98023809D01*
X78571428Y-97976190D01*
X78380952Y-97928571D01*
X78285714Y-97880952D01*
X78238095Y-97833333D01*
X78190476Y-97738095D01*
X78190476Y-97642857D01*
X78238095Y-97547619D01*
X78285714Y-97500000D01*
X78380952Y-97452380D01*
X78619047Y-97452380D01*
X78761904Y-97500000D01*
X79095238Y-97452380D02*
X79333333Y-98452380D01*
X79523809Y-97738095D01*
X79714285Y-98452380D01*
X79952380Y-97452380D01*
X80857142Y-98452380D02*
X80285714Y-98452380D01*
X80571428Y-98452380D02*
X80571428Y-97452380D01*
X80476190Y-97595238D01*
X80380952Y-97690476D01*
X80285714Y-97738095D01*
X81238095Y-97547619D02*
X81285714Y-97500000D01*
X81380952Y-97452380D01*
X81619047Y-97452380D01*
X81714285Y-97500000D01*
X81761904Y-97547619D01*
X81809523Y-97642857D01*
X81809523Y-97738095D01*
X81761904Y-97880952D01*
X81190476Y-98452380D01*
X81809523Y-98452380D01*
%TO.C,SW22*%
X116190476Y-98404761D02*
X116333333Y-98452380D01*
X116571428Y-98452380D01*
X116666666Y-98404761D01*
X116714285Y-98357142D01*
X116761904Y-98261904D01*
X116761904Y-98166666D01*
X116714285Y-98071428D01*
X116666666Y-98023809D01*
X116571428Y-97976190D01*
X116380952Y-97928571D01*
X116285714Y-97880952D01*
X116238095Y-97833333D01*
X116190476Y-97738095D01*
X116190476Y-97642857D01*
X116238095Y-97547619D01*
X116285714Y-97500000D01*
X116380952Y-97452380D01*
X116619047Y-97452380D01*
X116761904Y-97500000D01*
X117095238Y-97452380D02*
X117333333Y-98452380D01*
X117523809Y-97738095D01*
X117714285Y-98452380D01*
X117952380Y-97452380D01*
X118285714Y-97547619D02*
X118333333Y-97500000D01*
X118428571Y-97452380D01*
X118666666Y-97452380D01*
X118761904Y-97500000D01*
X118809523Y-97547619D01*
X118857142Y-97642857D01*
X118857142Y-97738095D01*
X118809523Y-97880952D01*
X118238095Y-98452380D01*
X118857142Y-98452380D01*
X119238095Y-97547619D02*
X119285714Y-97500000D01*
X119380952Y-97452380D01*
X119619047Y-97452380D01*
X119714285Y-97500000D01*
X119761904Y-97547619D01*
X119809523Y-97642857D01*
X119809523Y-97738095D01*
X119761904Y-97880952D01*
X119190476Y-98452380D01*
X119809523Y-98452380D01*
%TO.C,H4*%
X189838095Y-144552380D02*
X189838095Y-143552380D01*
X189838095Y-144028571D02*
X190409523Y-144028571D01*
X190409523Y-144552380D02*
X190409523Y-143552380D01*
X191314285Y-143885714D02*
X191314285Y-144552380D01*
X191076190Y-143504761D02*
X190838095Y-144219047D01*
X191457142Y-144219047D01*
%TO.C,SW23*%
X116190476Y-117404761D02*
X116333333Y-117452380D01*
X116571428Y-117452380D01*
X116666666Y-117404761D01*
X116714285Y-117357142D01*
X116761904Y-117261904D01*
X116761904Y-117166666D01*
X116714285Y-117071428D01*
X116666666Y-117023809D01*
X116571428Y-116976190D01*
X116380952Y-116928571D01*
X116285714Y-116880952D01*
X116238095Y-116833333D01*
X116190476Y-116738095D01*
X116190476Y-116642857D01*
X116238095Y-116547619D01*
X116285714Y-116500000D01*
X116380952Y-116452380D01*
X116619047Y-116452380D01*
X116761904Y-116500000D01*
X117095238Y-116452380D02*
X117333333Y-117452380D01*
X117523809Y-116738095D01*
X117714285Y-117452380D01*
X117952380Y-116452380D01*
X118285714Y-116547619D02*
X118333333Y-116500000D01*
X118428571Y-116452380D01*
X118666666Y-116452380D01*
X118761904Y-116500000D01*
X118809523Y-116547619D01*
X118857142Y-116642857D01*
X118857142Y-116738095D01*
X118809523Y-116880952D01*
X118238095Y-117452380D01*
X118857142Y-117452380D01*
X119190476Y-116452380D02*
X119809523Y-116452380D01*
X119476190Y-116833333D01*
X119619047Y-116833333D01*
X119714285Y-116880952D01*
X119761904Y-116928571D01*
X119809523Y-117023809D01*
X119809523Y-117261904D01*
X119761904Y-117357142D01*
X119714285Y-117404761D01*
X119619047Y-117452380D01*
X119333333Y-117452380D01*
X119238095Y-117404761D01*
X119190476Y-117357142D01*
%TO.C,SW10*%
X78190476Y-60404761D02*
X78333333Y-60452380D01*
X78571428Y-60452380D01*
X78666666Y-60404761D01*
X78714285Y-60357142D01*
X78761904Y-60261904D01*
X78761904Y-60166666D01*
X78714285Y-60071428D01*
X78666666Y-60023809D01*
X78571428Y-59976190D01*
X78380952Y-59928571D01*
X78285714Y-59880952D01*
X78238095Y-59833333D01*
X78190476Y-59738095D01*
X78190476Y-59642857D01*
X78238095Y-59547619D01*
X78285714Y-59500000D01*
X78380952Y-59452380D01*
X78619047Y-59452380D01*
X78761904Y-59500000D01*
X79095238Y-59452380D02*
X79333333Y-60452380D01*
X79523809Y-59738095D01*
X79714285Y-60452380D01*
X79952380Y-59452380D01*
X80857142Y-60452380D02*
X80285714Y-60452380D01*
X80571428Y-60452380D02*
X80571428Y-59452380D01*
X80476190Y-59595238D01*
X80380952Y-59690476D01*
X80285714Y-59738095D01*
X81476190Y-59452380D02*
X81571428Y-59452380D01*
X81666666Y-59500000D01*
X81714285Y-59547619D01*
X81761904Y-59642857D01*
X81809523Y-59833333D01*
X81809523Y-60071428D01*
X81761904Y-60261904D01*
X81714285Y-60357142D01*
X81666666Y-60404761D01*
X81571428Y-60452380D01*
X81476190Y-60452380D01*
X81380952Y-60404761D01*
X81333333Y-60357142D01*
X81285714Y-60261904D01*
X81238095Y-60071428D01*
X81238095Y-59833333D01*
X81285714Y-59642857D01*
X81333333Y-59547619D01*
X81380952Y-59500000D01*
X81476190Y-59452380D01*
%TO.C,SW13*%
X78190476Y-117404761D02*
X78333333Y-117452380D01*
X78571428Y-117452380D01*
X78666666Y-117404761D01*
X78714285Y-117357142D01*
X78761904Y-117261904D01*
X78761904Y-117166666D01*
X78714285Y-117071428D01*
X78666666Y-117023809D01*
X78571428Y-116976190D01*
X78380952Y-116928571D01*
X78285714Y-116880952D01*
X78238095Y-116833333D01*
X78190476Y-116738095D01*
X78190476Y-116642857D01*
X78238095Y-116547619D01*
X78285714Y-116500000D01*
X78380952Y-116452380D01*
X78619047Y-116452380D01*
X78761904Y-116500000D01*
X79095238Y-116452380D02*
X79333333Y-117452380D01*
X79523809Y-116738095D01*
X79714285Y-117452380D01*
X79952380Y-116452380D01*
X80857142Y-117452380D02*
X80285714Y-117452380D01*
X80571428Y-117452380D02*
X80571428Y-116452380D01*
X80476190Y-116595238D01*
X80380952Y-116690476D01*
X80285714Y-116738095D01*
X81190476Y-116452380D02*
X81809523Y-116452380D01*
X81476190Y-116833333D01*
X81619047Y-116833333D01*
X81714285Y-116880952D01*
X81761904Y-116928571D01*
X81809523Y-117023809D01*
X81809523Y-117261904D01*
X81761904Y-117357142D01*
X81714285Y-117404761D01*
X81619047Y-117452380D01*
X81333333Y-117452380D01*
X81238095Y-117404761D01*
X81190476Y-117357142D01*
%TO.C,SW20*%
X116190476Y-60404761D02*
X116333333Y-60452380D01*
X116571428Y-60452380D01*
X116666666Y-60404761D01*
X116714285Y-60357142D01*
X116761904Y-60261904D01*
X116761904Y-60166666D01*
X116714285Y-60071428D01*
X116666666Y-60023809D01*
X116571428Y-59976190D01*
X116380952Y-59928571D01*
X116285714Y-59880952D01*
X116238095Y-59833333D01*
X116190476Y-59738095D01*
X116190476Y-59642857D01*
X116238095Y-59547619D01*
X116285714Y-59500000D01*
X116380952Y-59452380D01*
X116619047Y-59452380D01*
X116761904Y-59500000D01*
X117095238Y-59452380D02*
X117333333Y-60452380D01*
X117523809Y-59738095D01*
X117714285Y-60452380D01*
X117952380Y-59452380D01*
X118285714Y-59547619D02*
X118333333Y-59500000D01*
X118428571Y-59452380D01*
X118666666Y-59452380D01*
X118761904Y-59500000D01*
X118809523Y-59547619D01*
X118857142Y-59642857D01*
X118857142Y-59738095D01*
X118809523Y-59880952D01*
X118238095Y-60452380D01*
X118857142Y-60452380D01*
X119476190Y-59452380D02*
X119571428Y-59452380D01*
X119666666Y-59500000D01*
X119714285Y-59547619D01*
X119761904Y-59642857D01*
X119809523Y-59833333D01*
X119809523Y-60071428D01*
X119761904Y-60261904D01*
X119714285Y-60357142D01*
X119666666Y-60404761D01*
X119571428Y-60452380D01*
X119476190Y-60452380D01*
X119380952Y-60404761D01*
X119333333Y-60357142D01*
X119285714Y-60261904D01*
X119238095Y-60071428D01*
X119238095Y-59833333D01*
X119285714Y-59642857D01*
X119333333Y-59547619D01*
X119380952Y-59500000D01*
X119476190Y-59452380D01*
%TO.C,SW30*%
X154290476Y-62404761D02*
X154433333Y-62452380D01*
X154671428Y-62452380D01*
X154766666Y-62404761D01*
X154814285Y-62357142D01*
X154861904Y-62261904D01*
X154861904Y-62166666D01*
X154814285Y-62071428D01*
X154766666Y-62023809D01*
X154671428Y-61976190D01*
X154480952Y-61928571D01*
X154385714Y-61880952D01*
X154338095Y-61833333D01*
X154290476Y-61738095D01*
X154290476Y-61642857D01*
X154338095Y-61547619D01*
X154385714Y-61500000D01*
X154480952Y-61452380D01*
X154719047Y-61452380D01*
X154861904Y-61500000D01*
X155195238Y-61452380D02*
X155433333Y-62452380D01*
X155623809Y-61738095D01*
X155814285Y-62452380D01*
X156052380Y-61452380D01*
X156338095Y-61452380D02*
X156957142Y-61452380D01*
X156623809Y-61833333D01*
X156766666Y-61833333D01*
X156861904Y-61880952D01*
X156909523Y-61928571D01*
X156957142Y-62023809D01*
X156957142Y-62261904D01*
X156909523Y-62357142D01*
X156861904Y-62404761D01*
X156766666Y-62452380D01*
X156480952Y-62452380D01*
X156385714Y-62404761D01*
X156338095Y-62357142D01*
X157576190Y-61452380D02*
X157671428Y-61452380D01*
X157766666Y-61500000D01*
X157814285Y-61547619D01*
X157861904Y-61642857D01*
X157909523Y-61833333D01*
X157909523Y-62071428D01*
X157861904Y-62261904D01*
X157814285Y-62357142D01*
X157766666Y-62404761D01*
X157671428Y-62452380D01*
X157576190Y-62452380D01*
X157480952Y-62404761D01*
X157433333Y-62357142D01*
X157385714Y-62261904D01*
X157338095Y-62071428D01*
X157338095Y-61833333D01*
X157385714Y-61642857D01*
X157433333Y-61547619D01*
X157480952Y-61500000D01*
X157576190Y-61452380D01*
%TO.C,H5*%
X74438095Y-24052380D02*
X74438095Y-23052380D01*
X74438095Y-23528571D02*
X75009523Y-23528571D01*
X75009523Y-24052380D02*
X75009523Y-23052380D01*
X75961904Y-23052380D02*
X75485714Y-23052380D01*
X75438095Y-23528571D01*
X75485714Y-23480952D01*
X75580952Y-23433333D01*
X75819047Y-23433333D01*
X75914285Y-23480952D01*
X75961904Y-23528571D01*
X76009523Y-23623809D01*
X76009523Y-23861904D01*
X75961904Y-23957142D01*
X75914285Y-24004761D01*
X75819047Y-24052380D01*
X75580952Y-24052380D01*
X75485714Y-24004761D01*
X75438095Y-23957142D01*
%TO.C,SW2*%
X40666666Y-93904761D02*
X40809523Y-93952380D01*
X41047619Y-93952380D01*
X41142857Y-93904761D01*
X41190476Y-93857142D01*
X41238095Y-93761904D01*
X41238095Y-93666666D01*
X41190476Y-93571428D01*
X41142857Y-93523809D01*
X41047619Y-93476190D01*
X40857142Y-93428571D01*
X40761904Y-93380952D01*
X40714285Y-93333333D01*
X40666666Y-93238095D01*
X40666666Y-93142857D01*
X40714285Y-93047619D01*
X40761904Y-93000000D01*
X40857142Y-92952380D01*
X41095238Y-92952380D01*
X41238095Y-93000000D01*
X41571428Y-92952380D02*
X41809523Y-93952380D01*
X42000000Y-93238095D01*
X42190476Y-93952380D01*
X42428571Y-92952380D01*
X42761904Y-93047619D02*
X42809523Y-93000000D01*
X42904761Y-92952380D01*
X43142857Y-92952380D01*
X43238095Y-93000000D01*
X43285714Y-93047619D01*
X43333333Y-93142857D01*
X43333333Y-93238095D01*
X43285714Y-93380952D01*
X42714285Y-93952380D01*
X43333333Y-93952380D01*
%TO.C,SW18*%
X97190476Y-115404761D02*
X97333333Y-115452380D01*
X97571428Y-115452380D01*
X97666666Y-115404761D01*
X97714285Y-115357142D01*
X97761904Y-115261904D01*
X97761904Y-115166666D01*
X97714285Y-115071428D01*
X97666666Y-115023809D01*
X97571428Y-114976190D01*
X97380952Y-114928571D01*
X97285714Y-114880952D01*
X97238095Y-114833333D01*
X97190476Y-114738095D01*
X97190476Y-114642857D01*
X97238095Y-114547619D01*
X97285714Y-114500000D01*
X97380952Y-114452380D01*
X97619047Y-114452380D01*
X97761904Y-114500000D01*
X98095238Y-114452380D02*
X98333333Y-115452380D01*
X98523809Y-114738095D01*
X98714285Y-115452380D01*
X98952380Y-114452380D01*
X99857142Y-115452380D02*
X99285714Y-115452380D01*
X99571428Y-115452380D02*
X99571428Y-114452380D01*
X99476190Y-114595238D01*
X99380952Y-114690476D01*
X99285714Y-114738095D01*
X100428571Y-114880952D02*
X100333333Y-114833333D01*
X100285714Y-114785714D01*
X100238095Y-114690476D01*
X100238095Y-114642857D01*
X100285714Y-114547619D01*
X100333333Y-114500000D01*
X100428571Y-114452380D01*
X100619047Y-114452380D01*
X100714285Y-114500000D01*
X100761904Y-114547619D01*
X100809523Y-114642857D01*
X100809523Y-114690476D01*
X100761904Y-114785714D01*
X100714285Y-114833333D01*
X100619047Y-114880952D01*
X100428571Y-114880952D01*
X100333333Y-114928571D01*
X100285714Y-114976190D01*
X100238095Y-115071428D01*
X100238095Y-115261904D01*
X100285714Y-115357142D01*
X100333333Y-115404761D01*
X100428571Y-115452380D01*
X100619047Y-115452380D01*
X100714285Y-115404761D01*
X100761904Y-115357142D01*
X100809523Y-115261904D01*
X100809523Y-115071428D01*
X100761904Y-114976190D01*
X100714285Y-114928571D01*
X100619047Y-114880952D01*
%TO.C,J2*%
X160200000Y-29987500D02*
X154100000Y-29987500D01*
X160200000Y-17887500D02*
X154100000Y-17887500D01*
X154350000Y-17887500D02*
X154350000Y-15887500D01*
X154100000Y-17887500D02*
X154100000Y-29987500D01*
X159950000Y-17887500D02*
X159950000Y-15887500D01*
X159950000Y-15887500D02*
X154350000Y-15887500D01*
X160200000Y-17887500D02*
X160200000Y-29987500D01*
D11*
%TO.C,J1*%
X144820000Y-33245000D02*
X147480000Y-33245000D01*
X147480000Y-33245000D02*
X147480000Y-35845000D01*
X144820000Y-30645000D02*
X146150000Y-30645000D01*
X144820000Y-35845000D02*
X147480000Y-35845000D01*
X144820000Y-31975000D02*
X144820000Y-30645000D01*
X144820000Y-33245000D02*
X144820000Y-35845000D01*
D10*
%TO.C,U1*%
X110220000Y-33310000D02*
X110220000Y-25690000D01*
X112760000Y-25690000D02*
X112760000Y-20610000D01*
X112760000Y-38390000D02*
X112760000Y-33310000D01*
X143240000Y-20610000D02*
X143240000Y-38390000D01*
X110220000Y-25690000D02*
X112760000Y-25690000D01*
X112760000Y-38390000D02*
X143240000Y-38390000D01*
X112760000Y-33310000D02*
X110220000Y-33310000D01*
X112760000Y-20610000D02*
X143240000Y-20610000D01*
D12*
%TO.C,D12*%
X75500000Y-84275000D02*
X74950000Y-84275000D01*
X75500000Y-84275000D02*
X75900000Y-84875000D01*
X75100000Y-84875000D02*
X75500000Y-84275000D01*
X75500000Y-84275000D02*
X76050000Y-84275000D01*
X75500000Y-84875000D02*
X75500000Y-85375000D01*
X75500000Y-83875000D02*
X75500000Y-84275000D01*
X75900000Y-84875000D02*
X75100000Y-84875000D01*
%TO.C,D9*%
X56500000Y-126650000D02*
X57050000Y-126650000D01*
X56500000Y-127250000D02*
X56500000Y-127750000D01*
X56100000Y-127250000D02*
X56500000Y-126650000D01*
X56500000Y-126250000D02*
X56500000Y-126650000D01*
X56900000Y-127250000D02*
X56100000Y-127250000D01*
X56500000Y-126650000D02*
X56900000Y-127250000D01*
X56500000Y-126650000D02*
X55950000Y-126650000D01*
%TO.C,D2*%
X37500000Y-79900000D02*
X38050000Y-79900000D01*
X37500000Y-79900000D02*
X37900000Y-80500000D01*
X37900000Y-80500000D02*
X37100000Y-80500000D01*
X37100000Y-80500000D02*
X37500000Y-79900000D01*
X37500000Y-80500000D02*
X37500000Y-81000000D01*
X37500000Y-79900000D02*
X36950000Y-79900000D01*
X37500000Y-79500000D02*
X37500000Y-79900000D01*
%TO.C,D23*%
X113800000Y-103150000D02*
X113250000Y-103150000D01*
X113400000Y-103750000D02*
X113800000Y-103150000D01*
X113800000Y-103150000D02*
X114200000Y-103750000D01*
X113800000Y-102750000D02*
X113800000Y-103150000D01*
X113800000Y-103150000D02*
X114350000Y-103150000D01*
X114200000Y-103750000D02*
X113400000Y-103750000D01*
X113800000Y-103750000D02*
X113800000Y-104250000D01*
%TO.C,D13*%
X75500000Y-102775000D02*
X74950000Y-102775000D01*
X75500000Y-102775000D02*
X75900000Y-103375000D01*
X75500000Y-102775000D02*
X76050000Y-102775000D01*
X75500000Y-103375000D02*
X75500000Y-103875000D01*
X75900000Y-103375000D02*
X75100000Y-103375000D01*
X75500000Y-102375000D02*
X75500000Y-102775000D01*
X75100000Y-103375000D02*
X75500000Y-102775000D01*
%TO.C,D25*%
X133000000Y-48650000D02*
X132450000Y-48650000D01*
X132600000Y-49250000D02*
X133000000Y-48650000D01*
X133000000Y-48650000D02*
X133550000Y-48650000D01*
X133400000Y-49250000D02*
X132600000Y-49250000D01*
X133000000Y-48250000D02*
X133000000Y-48650000D01*
X133000000Y-48650000D02*
X133400000Y-49250000D01*
X133000000Y-49250000D02*
X133000000Y-49750000D01*
%TO.C,D32*%
X151500000Y-85775000D02*
X152050000Y-85775000D01*
X151500000Y-85775000D02*
X151900000Y-86375000D01*
X151500000Y-85775000D02*
X150950000Y-85775000D01*
X151100000Y-86375000D02*
X151500000Y-85775000D01*
X151900000Y-86375000D02*
X151100000Y-86375000D01*
X151500000Y-86375000D02*
X151500000Y-86875000D01*
X151500000Y-85375000D02*
X151500000Y-85775000D01*
%TO.C,D16*%
X94500000Y-62375000D02*
X94500000Y-62775000D01*
X94900000Y-63375000D02*
X94100000Y-63375000D01*
X94500000Y-62775000D02*
X93950000Y-62775000D01*
X94500000Y-62775000D02*
X95050000Y-62775000D01*
X94100000Y-63375000D02*
X94500000Y-62775000D01*
X94500000Y-62775000D02*
X94900000Y-63375000D01*
X94500000Y-63375000D02*
X94500000Y-63875000D01*
%TO.C,D17*%
X94500000Y-81775000D02*
X93950000Y-81775000D01*
X94500000Y-81375000D02*
X94500000Y-81775000D01*
X94500000Y-81775000D02*
X94900000Y-82375000D01*
X94500000Y-82375000D02*
X94500000Y-82875000D01*
X94900000Y-82375000D02*
X94100000Y-82375000D01*
X94500000Y-81775000D02*
X95050000Y-81775000D01*
X94100000Y-82375000D02*
X94500000Y-81775000D01*
%TO.C,D24*%
X130100000Y-128250000D02*
X130500000Y-127650000D01*
X130500000Y-128250000D02*
X130500000Y-128750000D01*
X130500000Y-127650000D02*
X131050000Y-127650000D01*
X130500000Y-127650000D02*
X130900000Y-128250000D01*
X130500000Y-127650000D02*
X129950000Y-127650000D01*
X130500000Y-127250000D02*
X130500000Y-127650000D01*
X130900000Y-128250000D02*
X130100000Y-128250000D01*
%TO.C,D27*%
X132500000Y-85775000D02*
X131950000Y-85775000D01*
X132100000Y-86375000D02*
X132500000Y-85775000D01*
X132500000Y-85775000D02*
X132900000Y-86375000D01*
X132900000Y-86375000D02*
X132100000Y-86375000D01*
X132500000Y-86375000D02*
X132500000Y-86875000D01*
X132500000Y-85775000D02*
X133050000Y-85775000D01*
X132500000Y-85375000D02*
X132500000Y-85775000D01*
%TO.C,D15*%
X94900000Y-45250000D02*
X94100000Y-45250000D01*
X94500000Y-44650000D02*
X95050000Y-44650000D01*
X94500000Y-44650000D02*
X93950000Y-44650000D01*
X94500000Y-45250000D02*
X94500000Y-45750000D01*
X94500000Y-44650000D02*
X94900000Y-45250000D01*
X94500000Y-44250000D02*
X94500000Y-44650000D01*
X94100000Y-45250000D02*
X94500000Y-44650000D01*
%TO.C,D19*%
X95000000Y-119775000D02*
X94450000Y-119775000D01*
X94600000Y-120375000D02*
X95000000Y-119775000D01*
X95400000Y-120375000D02*
X94600000Y-120375000D01*
X95000000Y-119775000D02*
X95550000Y-119775000D01*
X95000000Y-120375000D02*
X95000000Y-120875000D01*
X95000000Y-119775000D02*
X95400000Y-120375000D01*
X95000000Y-119375000D02*
X95000000Y-119775000D01*
%TO.C,D22*%
X113100000Y-84375000D02*
X113500000Y-83775000D01*
X113500000Y-84375000D02*
X113500000Y-84875000D01*
X113500000Y-83775000D02*
X114050000Y-83775000D01*
X113500000Y-83775000D02*
X113900000Y-84375000D01*
X113500000Y-83375000D02*
X113500000Y-83775000D01*
X113900000Y-84375000D02*
X113100000Y-84375000D01*
X113500000Y-83775000D02*
X112950000Y-83775000D01*
%TO.C,D30*%
X151750000Y-49000000D02*
X151750000Y-49500000D01*
X151750000Y-48400000D02*
X152300000Y-48400000D01*
X152150000Y-49000000D02*
X151350000Y-49000000D01*
X151750000Y-48400000D02*
X151200000Y-48400000D01*
X151350000Y-49000000D02*
X151750000Y-48400000D01*
X151750000Y-48000000D02*
X151750000Y-48400000D01*
X151750000Y-48400000D02*
X152150000Y-49000000D01*
%TO.C,D29*%
X151500000Y-127775000D02*
X152050000Y-127775000D01*
X151500000Y-128375000D02*
X151500000Y-128875000D01*
X151500000Y-127375000D02*
X151500000Y-127775000D01*
X151900000Y-128375000D02*
X151100000Y-128375000D01*
X151100000Y-128375000D02*
X151500000Y-127775000D01*
X151500000Y-127775000D02*
X150950000Y-127775000D01*
X151500000Y-127775000D02*
X151900000Y-128375000D01*
%TO.C,D33*%
X168000000Y-138150000D02*
X167450000Y-138150000D01*
X168000000Y-137750000D02*
X168000000Y-138150000D01*
X168400000Y-138750000D02*
X167600000Y-138750000D01*
X168000000Y-138750000D02*
X168000000Y-139250000D01*
X167600000Y-138750000D02*
X168000000Y-138150000D01*
X168000000Y-138150000D02*
X168550000Y-138150000D01*
X168000000Y-138150000D02*
X168400000Y-138750000D01*
%TO.C,D31*%
X151500000Y-67150000D02*
X150950000Y-67150000D01*
X151500000Y-67150000D02*
X152050000Y-67150000D01*
X151500000Y-66750000D02*
X151500000Y-67150000D01*
X151500000Y-67150000D02*
X151900000Y-67750000D01*
X151100000Y-67750000D02*
X151500000Y-67150000D01*
X151900000Y-67750000D02*
X151100000Y-67750000D01*
X151500000Y-67750000D02*
X151500000Y-68250000D01*
%TO.C,D11*%
X75500000Y-64750000D02*
X75500000Y-65150000D01*
X75500000Y-65150000D02*
X75900000Y-65750000D01*
X75500000Y-65150000D02*
X74950000Y-65150000D01*
X75500000Y-65150000D02*
X76050000Y-65150000D01*
X75900000Y-65750000D02*
X75100000Y-65750000D01*
X75500000Y-65750000D02*
X75500000Y-66250000D01*
X75100000Y-65750000D02*
X75500000Y-65150000D01*
%TO.C,D5*%
X56500000Y-51475000D02*
X57050000Y-51475000D01*
X56500000Y-52075000D02*
X56500000Y-52575000D01*
X56100000Y-52075000D02*
X56500000Y-51475000D01*
X56500000Y-51475000D02*
X56900000Y-52075000D01*
X56900000Y-52075000D02*
X56100000Y-52075000D01*
X56500000Y-51075000D02*
X56500000Y-51475000D01*
X56500000Y-51475000D02*
X55950000Y-51475000D01*
%TO.C,D14*%
X75500000Y-121750000D02*
X75500000Y-122150000D01*
X75500000Y-122750000D02*
X75500000Y-123250000D01*
X75500000Y-122150000D02*
X76050000Y-122150000D01*
X75100000Y-122750000D02*
X75500000Y-122150000D01*
X75500000Y-122150000D02*
X74950000Y-122150000D01*
X75900000Y-122750000D02*
X75100000Y-122750000D01*
X75500000Y-122150000D02*
X75900000Y-122750000D01*
%TO.C,D10*%
X75500000Y-46150000D02*
X74950000Y-46150000D01*
X75500000Y-46750000D02*
X75500000Y-47250000D01*
X75100000Y-46750000D02*
X75500000Y-46150000D01*
X75500000Y-46150000D02*
X75900000Y-46750000D01*
X75900000Y-46750000D02*
X75100000Y-46750000D01*
X75500000Y-46150000D02*
X76050000Y-46150000D01*
X75500000Y-45750000D02*
X75500000Y-46150000D01*
%TO.C,D18*%
X94500000Y-101150000D02*
X95050000Y-101150000D01*
X94500000Y-101750000D02*
X94500000Y-102250000D01*
X94500000Y-100750000D02*
X94500000Y-101150000D01*
X94900000Y-101750000D02*
X94100000Y-101750000D01*
X94100000Y-101750000D02*
X94500000Y-101150000D01*
X94500000Y-101150000D02*
X94900000Y-101750000D01*
X94500000Y-101150000D02*
X93950000Y-101150000D01*
%TO.C,D3*%
X37500000Y-107875000D02*
X37500000Y-108275000D01*
X37500000Y-108275000D02*
X38050000Y-108275000D01*
X37500000Y-108275000D02*
X37900000Y-108875000D01*
X37500000Y-108875000D02*
X37500000Y-109375000D01*
X37500000Y-108275000D02*
X36950000Y-108275000D01*
X37900000Y-108875000D02*
X37100000Y-108875000D01*
X37100000Y-108875000D02*
X37500000Y-108275000D01*
%TO.C,D1*%
X37500000Y-51425000D02*
X36950000Y-51425000D01*
X37900000Y-52025000D02*
X37100000Y-52025000D01*
X37500000Y-51025000D02*
X37500000Y-51425000D01*
X37500000Y-52025000D02*
X37500000Y-52525000D01*
X37500000Y-51425000D02*
X38050000Y-51425000D01*
X37100000Y-52025000D02*
X37500000Y-51425000D01*
X37500000Y-51425000D02*
X37900000Y-52025000D01*
%TO.C,D28*%
X132500000Y-104775000D02*
X131950000Y-104775000D01*
X132500000Y-104375000D02*
X132500000Y-104775000D01*
X132100000Y-105375000D02*
X132500000Y-104775000D01*
X132500000Y-104775000D02*
X132900000Y-105375000D01*
X132900000Y-105375000D02*
X132100000Y-105375000D01*
X132500000Y-104775000D02*
X133050000Y-104775000D01*
X132500000Y-105375000D02*
X132500000Y-105875000D01*
%TO.C,D26*%
X132500000Y-67375000D02*
X132500000Y-67875000D01*
X132500000Y-66775000D02*
X133050000Y-66775000D01*
X132500000Y-66775000D02*
X132900000Y-67375000D01*
X132500000Y-66775000D02*
X131950000Y-66775000D01*
X132900000Y-67375000D02*
X132100000Y-67375000D01*
X132500000Y-66375000D02*
X132500000Y-66775000D01*
X132100000Y-67375000D02*
X132500000Y-66775000D01*
%TO.C,D20*%
X113500000Y-46400000D02*
X113900000Y-47000000D01*
X113500000Y-46400000D02*
X112950000Y-46400000D01*
X113500000Y-47000000D02*
X113500000Y-47500000D01*
X113500000Y-46400000D02*
X114050000Y-46400000D01*
X113900000Y-47000000D02*
X113100000Y-47000000D01*
X113500000Y-46000000D02*
X113500000Y-46400000D01*
X113100000Y-47000000D02*
X113500000Y-46400000D01*
%TO.C,D4*%
X37500000Y-126775000D02*
X38050000Y-126775000D01*
X37900000Y-127375000D02*
X37100000Y-127375000D01*
X37500000Y-127375000D02*
X37500000Y-127875000D01*
X37500000Y-126375000D02*
X37500000Y-126775000D01*
X37100000Y-127375000D02*
X37500000Y-126775000D01*
X37500000Y-126775000D02*
X37900000Y-127375000D01*
X37500000Y-126775000D02*
X36950000Y-126775000D01*
%TO.C,D21*%
X113500000Y-65375000D02*
X113500000Y-65875000D01*
X113100000Y-65375000D02*
X113500000Y-64775000D01*
X113500000Y-64775000D02*
X112950000Y-64775000D01*
X113500000Y-64775000D02*
X114050000Y-64775000D01*
X113500000Y-64775000D02*
X113900000Y-65375000D01*
X113900000Y-65375000D02*
X113100000Y-65375000D01*
X113500000Y-64375000D02*
X113500000Y-64775000D01*
%TO.C,D8*%
X56900000Y-108875000D02*
X56100000Y-108875000D01*
X56500000Y-107875000D02*
X56500000Y-108275000D01*
X56100000Y-108875000D02*
X56500000Y-108275000D01*
X56500000Y-108275000D02*
X55950000Y-108275000D01*
X56500000Y-108275000D02*
X56900000Y-108875000D01*
X56500000Y-108275000D02*
X57050000Y-108275000D01*
X56500000Y-108875000D02*
X56500000Y-109375000D01*
%TO.C,D6*%
X56500000Y-71400000D02*
X56500000Y-71900000D01*
X56900000Y-71400000D02*
X56100000Y-71400000D01*
X56500000Y-70800000D02*
X56900000Y-71400000D01*
X56500000Y-70800000D02*
X57050000Y-70800000D01*
X56500000Y-70400000D02*
X56500000Y-70800000D01*
X56500000Y-70800000D02*
X55950000Y-70800000D01*
X56100000Y-71400000D02*
X56500000Y-70800000D01*
%TO.C,D7*%
X56900000Y-89750000D02*
X56100000Y-89750000D01*
X56500000Y-89150000D02*
X56900000Y-89750000D01*
X56500000Y-89150000D02*
X55950000Y-89150000D01*
X56500000Y-89750000D02*
X56500000Y-90250000D01*
X56500000Y-89150000D02*
X57050000Y-89150000D01*
X56100000Y-89750000D02*
X56500000Y-89150000D01*
X56500000Y-88750000D02*
X56500000Y-89150000D01*
%TD*%
M02*
